<svg width="1274" height="672" viewBox="0 0 1274 672" fill="none" xmlns="http://www.w3.org/2000/svg">
<path d="M1014.52 685.839V21.1609" stroke="#F1F6FF" stroke-width="2" stroke-miterlimit="10" stroke-linecap="round" stroke-linejoin="round"/>
<path d="M422.667 687.293V203.802" stroke="#F1F6FF" stroke-width="2" stroke-miterlimit="10" stroke-linecap="round" stroke-linejoin="round"/>
<path d="M439.135 687.293V187.331" stroke="#F1F6FF" stroke-width="2" stroke-miterlimit="10" stroke-linecap="round" stroke-linejoin="round"/>
<path d="M447.853 184.908L1014.52 675.666" stroke="#F1F6FF" stroke-width="2" stroke-miterlimit="10" stroke-linecap="round" stroke-linejoin="round"/>
<path d="M439.135 199.442L1000.48 685.839" stroke="#F1F6FF" stroke-width="2" stroke-miterlimit="10" stroke-linecap="round" stroke-linejoin="round"/>
<path d="M1031.48 685.839V21.1609" stroke="#F1F6FF" stroke-width="2" stroke-miterlimit="10" stroke-linecap="round" stroke-linejoin="round"/>
<path d="M1597.66 184.908L1031.48 675.666" stroke="#F1F6FF" stroke-width="2" stroke-miterlimit="10" stroke-linecap="round" stroke-linejoin="round"/>
<path d="M1606.38 199.442L1045.04 685.839" stroke="#F1F6FF" stroke-width="2" stroke-miterlimit="10" stroke-linecap="round" stroke-linejoin="round"/>
<path d="M426.542 173.766L1.78027 679.541V705.218C510.816 702.311 1535.18 702.311 2044.22 705.218V679.541L1619.46 173.766" stroke="#F1F6FF" stroke-width="2" stroke-miterlimit="10" stroke-linecap="round" stroke-linejoin="round"/>
<path d="M1.78027 705.702L435.744 188.299L426.542 173.766L1022.76 1.78247V18.7386L435.744 188.299" stroke="#F1F6FF" stroke-width="2" stroke-miterlimit="10" stroke-linecap="round" stroke-linejoin="round"/>
<path d="M2044.22 705.702L1610.26 188.299L1619.46 173.766L1022.76 1.78247V18.7386L1610.26 188.299" stroke="#F1F6FF" stroke-width="2" stroke-miterlimit="10" stroke-linecap="round" stroke-linejoin="round"/>
</svg>
