<?xml version="1.0" encoding="UTF-8"?>
<svg id="Layer_2" data-name="Layer 2" xmlns="http://www.w3.org/2000/svg" viewBox="0 0 145.74 128.51">
  <defs>
    <style>
      .cls-1 {
        fill: #1d1d1d;
      }
    </style>
  </defs>
  <g id="Layer_1-2" data-name="Layer 1">
    <g>
      <path class="cls-1" d="m125.09,72.11c.69-.7,1.34-1.35,1.34-1.35-.02-.02-.06-.03-.09-.05-.46.51-.86.97-1.25,1.4Z"/>
      <path class="cls-1" d="m124.62,74.26c.14-.14.28-.28.42-.43-.07.03-.09.02-.14.03-.09.13-.18.25-.28.4Z"/>
      <path class="cls-1" d="m127.45,66.39c-2.41,4-10.25,12.49-1.11,4.32-.36-.15-1.17.16-.74-.78.74-.75,2.22-2.24,2.96-3,.6-.89-.28-.27-.42-.41.74-.75,1.48-1.5,1.41-1.57.3-.67-.62.02-2.1,1.43Z"/>
      <path class="cls-1" d="m124.97,72.26c-1.9,2.16-3,3.54-3.98,4.98l3.9-3.94c.24-.57.64-1.28.08-1.04Z"/>
      <path class="cls-1" d="m133.88,64.66c-.26.46-.52.9-.75,1.32,3.3-3.74,5.78-8.2,7.15-12.75,1.39-4.55,1.69-9.15,1.16-13.15.04.71.07,1.39.1,2.06,0,.66-.04,1.3-.06,1.93-.03.63-.01,1.24-.08,1.84-.07.6-.15,1.19-.22,1.78-.09,1.19-.4,2.34-.66,3.54-.21,1.22-.72,2.4-1.13,3.71.04.02.1.14-.36.94.16-.32.26-.62.36-.94-.05-.03-.14,0-.03-.45-1.1,3.32-2.99,7.03-5.49,10.16Z"/>
      <path class="cls-1" d="m132.36,67.74c.68-.64.72-.73.68-.78-.23.26-.45.51-.68.78Z"/>
      <path class="cls-1" d="m13.98,21.44l1.33-1.55c.45-.51.86-1.06,1.37-1.49.98-.92,1.91-1.89,3.01-2.64.53-.39,1.04-.83,1.58-1.19.56-.34,1.12-.68,1.67-1.02l.83-.51.87-.42c.58-.28,1.15-.56,1.71-.83,1.15-.5,2.33-.89,3.46-1.32,1.17-.29,2.3-.66,3.41-.89,1.13-.17,2.21-.44,3.26-.54-4.87.37-9.64,1.86-13.88,4.25-5.04,2.97-8.5,7.03-10.88,11.54.3-.61.7-1.16,1.09-1.71l1.16-1.68Z"/>
      <path class="cls-1" d="m8.54,35.24c-.07.34-.16.67-.23,1.01l-.13,1.03-.26,2.05-.06,2.06c0,.34-.04.68-.03,1.03l.07,1.03c.05.68.07,1.37.13,2.05l.32,2.02c.11.5.23,1.02.42,1.49-.58-3.38-.76-6.5-.6-9.45.03-.74.15-1.45.21-2.17.04-.36.07-.71.1-1.07.05-.35.13-.69.2-1.04.13-.69.26-1.38.38-2.05.19-.66.37-1.32.56-1.98l-.65,1.97-.45,2.02Z"/>
      <path class="cls-1" d="m10.63,26.84c-.33.68-.6,1.39-.9,2.08l-.44,1.03-.33,1.07c-.21.71-.45,1.41-.63,2.11-.25,1.44-.64,2.82-.7,4.22-.05.7-.15,1.38-.17,2.06,0,.68.02,1.35.02,2.01.18-6.4,1.73-11.75,4.25-16.58-.37.67-.74,1.34-1.1,2Z"/>
      <path class="cls-1" d="m104.08,1.49l2.58-.1c.86-.06,1.72.05,2.58.08.86.07,1.72.04,2.57.19.85.12,1.7.24,2.54.36.67.04,1.3.16,1.89.27.6.11,1.16.22,1.7.32,1.08.17,2.01.48,2.84.72.83.25,1.55.46,2.18.67.61.26,1.12.47,1.55.65.41.11.88.25,1.43.4.56.14,1.18.37,1.88.67-.28-.16-.58-.33-.85-.49-5.13-2.5-10.78-3.87-16.49-4.15-1.17,0-2.31,0-3.39.05-1.08.11-2.09.23-3.01.36Z"/>
      <path class="cls-1" d="m122.54,4.3c.21.11,1.04.45,1.89.74,1.69.59,3.44,1.07.08-.4-1.72-.48-2.17-.47-1.97-.35Z"/>
      <path class="cls-1" d="m90.48,11.28c.81-.48,1.64-.82,2.47-1.23-.21.1-.43.2-.64.29-.6.32-1.26.57-1.82.94Z"/>
      <path class="cls-1" d="m39.48,4.58c.67,0,1.39-.02,2.15-.03.38,0,.77,0,1.16,0,.39.01.79.07,1.2.11.81.09,1.63.19,2.46.31,4.3.77,8.5,2.24,12.3,4.34-3.89-2.21-8.19-3.68-12.4-4.38-4.22-.7-8.35-.56-11.97.02,1.08-.19,2.19-.12,3.28-.17.55-.07,1.16-.17,1.83-.21Z"/>
      <path class="cls-1" d="m107.72,6c.97.06,1.95.12,2.93.18.97.13,1.94.3,2.92.46-1.05-.13-2.09-.33-3.15-.41l-3.17-.15c-1.01.04-2.01.09-3.03.13-6.54.74-13.17,3.12-18.71,7.6l1.68-1.32c.56-.44,1.2-.78,1.8-1.17.62-.36,1.2-.8,1.86-1.11l1.95-.96c.64-.35,1.33-.6,2.02-.85l2.07-.77,2.14-.57c.71-.2,1.43-.39,2.17-.49-5.62.8-11.14,3.09-15.78,6.54-2.35,1.7-4.35,3.82-6.33,5.85-.98,1.01-1.95,2.02-2.92,3.03-.97,1.02-1.93,2.03-2.89,3.04-.43-.42-.86-.83-1.29-1.24-1.13-1.06-2.35-2.21-3.62-3.41-1.27-1.21-2.6-2.48-3.95-3.77-2.7-2.55-5.95-4.65-9.2-6.11-.15-.03-.3-.05-.43-.07-.49-.23-.98-.46-1.46-.69-.42-.17-.88-.3-1.31-.4-.42-.1-.81-.19-1.11-.26-7.08-2.2-14.78-2.04-22.07.25-.61.24-1.22.48-1.85.72-.24.09-.49.18-.75.28-.25.12-.52.24-.79.37-.54.24-1.11.5-1.69.76-.59.23-1.12.56-1.64.85-.52.29-1.01.57-1.44.82,1.33-.77,2.61-1.59,4-2.16,1.34-.69,2.76-1.14,4.14-1.65,4.06-1.41,7.9-2.06,11.88-2.1,3.97,0,8.14.6,12.6,2.5.58.22,1.13.43,1.51.6l.39.16c.65.1,1.46.48,2.44.95.49.24,1.02.5,1.57.81.52.35,1.07.73,1.64,1.12,2.3,1.55,4.53,3.88,6.62,5.99-.61-.89,1.56,1.44,1.68,1.29,1.54,1.37,2.98,2.64,4.11,3.61,1.31-1.51,2.56-2.94,3.73-4.29,1.31-1.48,2.54-2.88,3.69-4.19,2.94-3.23,6.6-5.84,10.44-7.67,3.85-1.83,7.84-3.06,11.68-3.71.54-.15,1.24-.21,2.02-.26.78-.05,1.65-.12,2.56-.14,1.81.07,3.76.11,5.42.36.7.07,1.45.08,2.2.21.75.14,1.52.28,2.29.42l-2.42-.62c-.81-.17-1.64-.28-2.46-.43-.14-.03.2,0,.9.07.35.04.79.09,1.31.15.51.09,1.09.22,1.73.35.64.14,1.34.29,2.09.45.73.23,1.5.47,2.31.72.4.13.81.26,1.22.39.4.17.81.34,1.22.51.82.35,1.66.69,2.48,1.07,1.58.89,3.24,1.68,4.6,2.71.7.49,1.4.93,2.01,1.41.6.5,1.16.97,1.67,1.41.51.44,1,.81,1.37,1.19.38.37.7.69.95.95.52.5.79.73.73.59,0,0-.06-.08-.18-.22-.12-.14-.31-.35-.55-.62-.24-.27-.54-.59-.89-.97-.37-.37-.83-.75-1.32-1.19-.5-.44-1.04-.92-1.63-1.44-.62-.48-1.32-.96-2.04-1.48-.36-.26-.74-.52-1.13-.8-.39-.26-.82-.48-1.25-.73-.86-.47-1.74-1.03-2.7-1.47-3.8-1.9-8.45-3.24-13.22-3.77-4.78-.53-9.67-.18-13.96.81-1.7.25-1.08-.27.3-.94.35-.16.74-.35,1.15-.51.42-.14.86-.27,1.3-.4.87-.25,1.72-.46,2.31-.56.26-.05.56-.08.84-.12-.68,0-1.36.11-2.04.19l-2.03.27c-1.35.19-2.67.57-3.99.85-4.13,1.26-8.1,3.15-11.68,5.63-1.39,1.08-2.85,2.07-4.08,3.34-.62.6-1.32,1.23-1.88,1.81l-1.6,1.7c-2.82,2.95-2.59,2.82-3.49,3.81.38-.5.72-.97,1-1.39.06-.1.12-.2.19-.3.27-.31.55-.62.82-.93.56-.62,1.14-1.26,1.72-1.91.3-.32.59-.65.89-.97l.46-.49.55-.54c.75-.71,1.52-1.43,2.29-2.16.83-.67,1.7-1.3,2.58-1.95,3.58-2.49,7.76-4.46,12.22-5.66,4.7-1.43,9.61-1.98,14.45-1.73.13,0,.25,0,.37,0-6.16-.5-12.55.27-18.41,2.38-4.76,1.88-9.22,4.69-12.97,8.3-.46.44-.96.91-1.39,1.34l-1.17,1.23-2.34,2.47-.29.31c-.09.1-.06.07-.1.11l-.12.15-.25.31-.54.65c-.17-.15-.35-.3-.54-.45.2.13.37.23.54.32l.28-.44c.1-.18.21-.37.32-.55l.14-.23s0-.01.02-.03l.12-.13.25-.27.5-.54c.68-.72,1.36-1.46,2.07-2.21.36-.38.69-.74,1.09-1.14.44-.41.89-.83,1.33-1.25,3.58-3.37,8.1-6.15,13.05-7.94,10.12-3.99,21.45-3.95,31.37-.22-3.34-1.31-7.04-2.44-10.84-2.85l-1.41-.19c-.47-.06-.95-.05-1.42-.08-.95-.04-1.89-.07-2.82-.11-.93.05-1.85.09-2.76.14-.45.03-.91.05-1.35.08-.44.07-.88.13-1.32.19-.9.14-1.8.29-2.69.43-.88.22-1.76.44-2.63.66l-1.31.34-1.27.45c-.84.31-1.68.61-2.52.91-3.26,1.46-6.42,3.11-9.14,5.31-1.43,1.01-2.66,2.23-3.9,3.41-.67.62-1.12,1.13-1.63,1.66-.5.53-1,1.05-1.49,1.58-.49.52-.99,1.05-1.48,1.57l-.16.23c-.13.18-.26.35-.38.53l-.49-.36-.14-.1-.07-.05s0,0-.18-.17c-.52-.5-1.03-1-1.54-1.49-.51-.5-1.02-.99-1.53-1.48l-.76-.74c-.25-.24-.59-.53-.89-.79-1.23-1.07-2.4-2.17-3.75-3.04-5.22-3.7-11.14-6.07-17.24-6.99-3.07-.25-6.11-.35-9.14-.1-3.5.18-7.24.93-10.85,2.1-3.64,1.1-7.01,2.97-9.93,4.91,1.05-.53-1.78,1.54-1.72,1.62-.7.53-1.32,1.17-1.96,1.81-.63.65-1.34,1.25-1.94,1.95-1.2,1.41-2.49,2.8-3.56,4.42-1.19,1.53-2.11,3.29-3.11,5-.42.9-.84,1.81-1.26,2.72l-.31.68-.25.71-.49,1.42c-.35,1.09-.52,1.03-.86,2.17-.99,5.38-1.29,11.76.04,18.3,1.42,6.48,4.39,13.13,9.07,18.32.59.64,1.19,1.34,1.78,1.93.58.59,1.17,1.17,1.76,1.77,1.17,1.19,2.34,2.39,3.52,3.6-1.15-1.16-2.32-2.33-3.49-3.52-.59-.6-1.17-1.19-1.77-1.79-.59-.6-1.2-1.33-1.8-1.99l-1.01-1.12c-.33-.38-.61-.8-.92-1.19-.59-.81-1.23-1.59-1.76-2.43-.52-.85-1.04-1.71-1.55-2.56-.52-.85-.89-1.78-1.34-2.66-1.41-3.1-2.54-6.35-3.14-9.7.74,4.22,2.13,8.27,4.11,11.98.61,1.02,1.22,2.03,1.83,3.04.65.99,1.39,1.9,2.08,2.86.34.48.73.92,1.13,1.35l1.19,1.3c.8.91,1.57,1.63,2.34,2.4,6.17,6.14,12.31,12.26,18.57,18.49,1.49,1.49,2.97,2.96,4.45,4.43,1.26,1.24,2.52,2.48,3.77,3.7l.69.67c.19.1.02.27,0,.41l-.16.44c-.2.6-.45,1.18-.69,1.77-.76,1.7-1.66,3.45-2.64,5.08-.99,1.64-2.09,3.2-3.27,4.68-.29.37-.59.74-.91,1.1l-.55.64c-.22.25-.46.48-.68.72-.86.96-1.98,1.84-2.83,2.75l-.66.67-.54.64c-.38.44-.65.8-.97,1.19-.29.37-.59.69-.85,1.05-.26.37-.42.89-.42,1.43-.04,1.1.64,2.28,1.55,2.73.89.4,1.86.72,2.94,1.01.87.24,1.86.38,2.85.5.98.12,1.98.21,2.98.28,1,.06,2.01.1,3.01.09.86-.01,1.66-.02,2.5-.06,3.31-.12,6.65-.55,9.91-1.46-.54.21-1.06.42-1.57.61,2.44-.56,4.81-1.41,7.04-2.55,2.55-1.35,3.48-2.06,4.83-3.24.11-.18.21.06.31.12l.3.3.61.6c.41.4.82.81,1.23,1.21,1.1,1.09,2.22,2.18,3.35,3.3.6.58,1.3,1.31,1.97,1.92.49.43.96.84,1.51,1.15.55.31,1.16.49,1.79.55,1.26.14,2.54-.28,3.47-1.05.94-.76,1.83-1.75,2.67-2.62.7-.73,1.39-1.45,2.09-2.17,2.78-2.87,5.51-5.69,8.24-8.52,5.51-5.62,11.04-11.26,17.05-17.38l8.81-9.06c2.15-2.32-1.97,1.02,1.66-2.8-.22.18-.44.36-.64.5-2.73,2.94-5.09,5.58-6.03,6.24-1.32.76,3.88-4.82,6.98-8.55.04-.15.13-.34.26-.59,0,0,.48-.49,1.06-1.07.1-.15.19-.27.29-.4-.23.04-.17-.22-.02-.56-1.3,1.32-2.6,2.63-3.9,3.94.98-1.45,2.07-2.82,3.97-4.98,0,0,0,0-.02,0,.05-.05.09-.09.14-.15.39-.43.79-.89,1.25-1.4h0c-9.13,8.16-1.29-.33,1.11-4.32-.77.74-1.69,1.66-2.69,2.72-.07-.07-.21-.21-.21-.21-6.8,6.61-11.52,10.83-17.79,16.48-1.55,1.43-1.83,1.16-4.05,3.41-5.92,5.99-11.92,11.93-17.77,17.99-1.7,1.77-3.38,3.54-5.05,5.29l-.16.16-.08.08s0,0-.01.01h0s0,.04,0,.04l-.03.07s-.07.08-.12.08c-.05,0-.09-.03-.14-.05h-.02s.02.02-.12-.13l-.64-.63-1.27-1.25c-2.93-2.91-5.84-5.81-8.75-8.71l-4.5,3.87c-.76.64-1.54,1.17-2.3,1.76l-.55.4-.25.15-.5.3c-1.34.78-2.76,1.42-4.27,1.92-3.02,1.01-6.4,1.45-9.97,1.53.11.02.15.04.14.06l-1.27.02c-.12,0-.25,0-.38-.02-.13-.01-.26-.02-.39-.04-.13-.03-.29-.02-.38-.13-.08-.1-.11-.24-.07-.33.05-.08.1-.16.14-.23.1-.17.27-.43.5-.67l.91-1.02.95-1.14c.61-.78,1.23-1.55,1.8-2.36,1.16-1.6,2.2-3.27,3.16-4.98.47-.86.93-1.72,1.35-2.61l.32-.67c.06-.12.14-.29.22-.49l.23-.55.9-2.21c.31-.73.57-1.48.86-2.22l.42-1.11.21-.56.11-.28s.05-.1.03-.14l-.1-.11c-1.1-1.14-2.15-2.29-3.29-3.42-5.22-5.23-10.4-10.42-15.57-15.6-2.45-2.45-4.91-4.89-7.36-7.33l-3.68-3.66c-1.21-1.21-2.54-2.48-3.45-3.55-1.07-1.06-1.91-2.31-2.82-3.51-.44-.61-.78-1.28-1.18-1.92l-.58-.96-.48-1.02c-1.4-2.67-2.24-5.62-2.81-8.6-.49-1.84-.8-3.89-.87-6.09-.07.74-.02,1.5,0,2.27.05.77-.01,1.57.12,2.36-.81-3.67-.94-8.3.2-13.11,1.16-4.79,3.67-9.65,7.23-13.66l.65-.77c.23-.24.48-.46.72-.69l1.45-1.38c.47-.47,1.04-.82,1.55-1.24.53-.39,1.03-.83,1.59-1.18,2.22-1.4,4.52-2.67,6.9-3.48,4.73-1.76,9.49-2.34,13.48-2.28,5.67,0,11.56,1.65,16.82,4.73.66.38,1.26.86,1.9,1.28.63.44,1.28.86,1.84,1.4.58.51,1.17,1.02,1.76,1.53.59.53,1.16,1.13,1.75,1.69,2.57,2.54,5.17,5.11,7.79,7.71,3.02-3.1,6.09-6.25,9.19-9.44,2.8-2.82,6.15-5.15,9.84-6.84,9.48-4.8,21.76-5.05,32.08.02-4.7-2.29-9.96-3.48-15.33-3.6-5.37-.1-10.94.85-16.1,3.29,5.24-2.35,11.15-3.19,16.94-2.81.73,0,1.45.13,2.17.24.72.11,1.45.19,2.16.32l2.13.51,1.06.26,1.03.36,2.07.71c.67.28,1.33.6,1.99.9,1.36.54,2.57,1.38,3.84,2.09.72.4,1.35.92,2.02,1.38l1,.71c.33.24.62.53.92.79l1.82,1.61,1.64,1.8.82.9.72.98,1.43,1.96,1.23,2.09c.2.35.43.69.6,1.05l.51,1.1c2.83,5.84,3.95,12.49,3.37,19.18-.18,1.54-.31,3.1-.67,4.49-.15.7-.28,1.37-.41,1.99-.18.61-.34,1.17-.46,1.69-.19,1.51-.61,2.95-.95,4.29.41-.97.91-1.92,1.24-2.92.33-1.01.66-2.01.96-3,.22-1.01.43-2.01.64-2.98.19-.97.24-1.94.36-2.85-.03.48.06.44.11.45.41-2.87.34-5.38.14-7.87-.02-.63-.14-1.25-.24-1.88-.1-.63-.2-1.27-.3-1.92-.1-.65-.31-1.3-.46-1.98-.18-.67-.31-1.38-.54-2.09,1.46,3.98,2.24,8.77,1.91,13.77-.06,1.25-.29,2.5-.44,3.77-.23,1.26-.56,2.51-.85,3.77-.43,1.23-.8,2.48-1.28,3.7-.56,1.18-1.03,2.42-1.67,3.57-.17.53-.32,1.01-.43,1.45,2.84-4.72,4.61-10.11,5.16-15.64.5-5.53-.23-11.17-2.13-16.37-1.89-5.2-4.93-9.98-8.88-13.79-3.96-3.82-8.8-6.59-13.92-8.18-3.73-1.1-7.65-1.73-11.61-1.63Zm-5.52,89.7c-.13.1-.26.2-.4.31.75-.83,1.5-1.65,2.23-2.46-.47.64-1.11,1.42-1.83,2.15Zm2.54-3.41s.01.06,0,.11c-6.36,6.65-12.89,13.59-18.1,18.62,6.11-6.38,12.61-13.3,18.11-18.73Zm-34.14,26.64s-.01.03-.02.04l-.1-.15s.08.07.12.1ZM10.48,60.92c.42.62,1.04,1.2,1.59,1.89.28.34.58.7.88,1.06.31.35.67.69,1.02,1.05,1.32,1.42,3.07,3.04,4.82,4.73,3.5,3.39,7.26,7.09,10.73,10.32,2.31,2.15,4.63,4.32,6.94,6.47l3.99,3.83,2,1.92,2.63,2.56,1.53,1.53.76.77.38.39s.07.06.09.1l-.05.13-.09.25c-.49,1.35-.96,2.72-1.52,4.07-.27.67-.54,1.39-.81,2.02l-.64,1.39c-.43.92-.9,1.81-1.39,2.71-.98,1.78-2.1,3.5-3.3,5.17-.61.83-1.25,1.64-1.91,2.45l-1.2,1.4c-.45.51-.92.96-1.4,1.37-.25.17-.49.45-.42.79.05.33.35.6.7.64.55.09,1.12.15,1.67.17.28.01.55.02.82.01h.4s.5-.04.5-.04c3.19-.09,6.26-.47,8.89-1.2,1.76-.48,3.45-1.06,5.02-1.79.08,0,.17-.02.27-.04-1.91.96-3.98,1.64-6.16,2.13-1.77.47-3.64.93-4.61.99-.95.12-1.99.19-3.08.23-.31.01-.62.02-.94.04-.22,0-.44,0-.67,0-.46-.01-.94-.05-1.43-.11l-.75-.1c-.25-.05-.53-.05-.75-.19-.42-.18-.61-.71-.36-1.09.28-.34.72-.58,1.08-.92.38-.32.76-.66,1.11-1.02l.26-.27.45-.5c.48-.53.93-1.09,1.38-1.64.72-.89,1.25-1.92,1.17-1.97,1.21-1.57,2.19-3.06,3.01-4.52.42-.72.77-1.45,1.13-2.15.35-.74.63-1.38.99-2.19.4-1.03.8-2.06,1.2-3.11.18-.52.37-1.05.56-1.58.1-.27.19-.53.29-.8l.14-.4.07-.2c0-.06-.09-.11-.13-.16-1.53-1.55-3.15-3.2-4.97-5.05.53.63,1.82,2.02,2.8,3.12-.56-.55-1.1-1.08-1.63-1.6-.43-.41-.85-.82-1.27-1.21-.71-.67-1.4-1.32-2.12-2-1.44-1.35-2.97-2.8-4.86-4.64-2.96-3-5.46-4.97-7.68-7.22-3.76-3.69-7.52-7.38-11.09-10.89-.45-.44-.89-.87-1.33-1.3-.4-.43-.79-.85-1.18-1.27-.39-.42-.79-.83-1.17-1.25-.35-.45-.69-.89-1.03-1.33-.34-.44-.68-.87-1.02-1.3-.32-.44-.59-.91-.88-1.35-.57-.89-1.18-1.75-1.61-2.66.53.87,1.62,2.56,2.19,3.39Zm2.68,8.67c10.7,10.79,22.95,23.18,27.38,26.14,2.13,3.83-15.32-12.99-21.25-19-1.84-1.87-3.76-3.82-5.73-5.81-.49-.51-.99-.97-1.5-1.52-.5-.55-1.01-1.11-1.52-1.67-1.07-1.08-1.9-2.37-2.84-3.58-3.58-5-5.81-10.99-6.79-16.86.14-1.01.37-.89.67.07.15.48.32,1.17.5,2.04.24.86.53,1.89.87,3.07.14.6.38,1.2.62,1.85.24.64.48,1.32.74,2.02.27.7.64,1.39.98,2.13.35.73.67,1.5,1.14,2.23,1.6,3.04,4.03,6.06,6.73,8.88Zm2.1-55.05c2.73-2.54,5.59-4.66,8.77-6.19,3.15-1.57,6.54-2.81,10.34-3.38,6.12-1.17,13.03-.55,19.55,1.81,1.58.71,3.24,1.3,4.74,2.23.76.45,1.56.82,2.28,1.34l2.17,1.54c.37.24.71.52,1.04.83l1,.88c.65.59,1.37,1.19,1.92,1.76,1.18,1.16,2.35,2.32,3.52,3.48.5.44,1,.89,1.49,1.32.42.38.81.75,1.17,1.12.53-.55,1.03-1.02,1.53-1.49l.37-.4c-.07.08-.14.16-.21.24l1.04-.95c.56-.53,1.13-1.06,1.71-1.61,1.17-1.09,2.31-2.24,3.86-3.56l.77-.83.19.22c-.84.89-1.79,1.79-2.6,2.69-.82.9-1.66,1.81-2.52,2.72-.71.75-1.43,1.5-2.17,2.27-.65.66-1.31,1.34-1.97,2.01-1.52-1.54-3.06-3.11-4.59-4.67-.99-.99-1.93-1.97-2.97-2.94-.54-.48-1.08-.96-1.62-1.43l-.81-.7c-.28-.22-.58-.41-.87-.62-.74-.51-1.48-1.02-2.23-1.54-.79-.44-1.58-.88-2.38-1.32-.78-.47-1.63-.81-2.47-1.17-.85-.34-1.66-.77-2.55-1.01-.87-.28-1.75-.55-2.62-.83-.89-.22-1.79-.4-2.69-.59-.89-.23-1.81-.31-2.72-.42-.91-.1-1.82-.26-2.74-.24-7.32-.36-14.72,1.46-20.64,5.13-1.83,1.1-4.55,2.83-6.11,4.29Z"/>
      <path class="cls-1" d="m144.58,33.01c-2.52-10.21-9.29-19.32-18.56-24.44l-.44-.22c-1.02-.47-2.17-.87-3.35-1.36-1.19-.46-2.5-.79-3.82-1.22-1.35-.31-2.76-.64-4.21-.89-.73-.09-1.47-.18-2.22-.27l-1.12-.13-1.14-.04c-6.07-.3-12.49.84-17.43,3.29-4,1.91-7.67,4.5-10.67,7.69-1.52,1.54-2.91,3.13-4.37,4.69l-4,4.37-4.11-3.8c1.38,1.4,2.76,2.79,4.11,4.15,2.23-2.28,4.45-4.54,6.65-6.79,2.19-2.35,4.65-4.51,7.31-6.33,5.45-3.45,11.81-5.53,18.36-5.67,4.57-.32,9.26.19,13.74,1.59,1.76.46,3.41,1.21,5.09,1.9,1.59.86,3.26,1.63,4.72,2.71,3.6,2.45,6.85,5.75,9.42,9.64,2.58,3.9,4.44,8.41,5.36,13.16.94,4.75.97,9.71.08,14.48-.88,4.77-2.67,9.35-5.17,13.37-.04.64.16.86.78.42,2.88-4.41,4.8-9.44,5.64-14.64.84-5.2.61-10.56-.67-15.66Z"/>
      <path class="cls-1" d="m20.28,15.57c-.35.27-.7.53-1.05.79-.35.25-.69.52-.98.83-.61.59-1.21,1.18-1.8,1.75-.55.62-1.05,1.28-1.57,1.9-.25.32-.52.61-.74.95l-.64,1.01c-1.78,2.62-2.97,5.47-3.87,8.44,1.19-3.43,2.96-6.67,5.25-9.58,3.22-4.04,7.11-7,11.47-9.02,4.33-2.03,9.08-3.02,13.89-3.06-3.53-.06-7.08.4-10.48,1.37-3.39,1.02-6.6,2.59-9.48,4.62Z"/>
      <path class="cls-1" d="m46.22,9.55c3.2.59,6.26,1.74,9.15,3.16,2.89,1.48,5.43,3.45,7.79,5.67,2.89,2.88,5.78,5.76,8.67,8.63l-6.52-6.39c-.87-.83-1.76-1.73-2.62-2.51-.87-.72-1.67-1.5-2.57-2.17-3.58-2.7-7.75-4.58-12.1-5.57-.65-.13-1.3-.26-1.95-.38-.64-.15-1.31-.15-1.95-.23-.65-.05-1.29-.16-1.94-.17h-1.94s1.96.06,1.96.06c.65.03,1.3.16,1.95.23.64.1,1.31.12,1.94.29l1.91.43c.64.12,1.26.33,1.88.54l1.86.61,1.78.78c.59.27,1.21.49,1.75.84,1.11.66,2.29,1.22,3.3,2.03l1.58,1.12,1.45,1.29c.95.79,1.98,1.86,2.99,2.85l3.49,3.47,5.2,5.12,6.47-6.74,2.2-2.32,1.1-1.16c.37-.4.73-.78,1.09-1.09,2.72-2.83,6.05-5.09,9.68-6.69,7.27-3.23,15.76-3.89,23.61-1.83.97.3,1.93.61,2.89.91.92.4,1.84.79,2.76,1.19-8.31-4.2-18.35-4.84-27.07-1.94-4.36,1.44-8.4,3.76-11.73,6.8l-1.24,1.14c-.41.4-.83.84-1.24,1.25-.82.84-1.64,1.68-2.46,2.52-2.03,2.08-4.06,4.15-6.07,6.21-3-2.98-5.96-5.92-8.89-8.83l-.95-.93-.95-.83c-.64-.53-1.22-1.14-1.91-1.61-.68-.48-1.36-.95-2.04-1.42-.67-.48-1.43-.82-2.14-1.23l-1.07-.59c-.37-.17-.75-.32-1.12-.48-.75-.3-1.48-.66-2.24-.92-1.54-.47-3.05-.99-4.62-1.24-1.54-.38-3.11-.45-4.65-.62-.77-.03-1.55-.01-2.31-.02h-1.14l-1.14.11c-.5.05-1.06.1-1.59.15,3.25-.3,6.53-.04,9.73.51Z"/>
      <path class="cls-1" d="m101.19,6.59c1.02-.12,2.01-.32,3.02-.37,1.18-.07,2.34-.21,3.5-.22-.71-.06-1.43.02-2.13.03-.74.07-1.48.07-2.21.19-.73.12-1.45.24-2.18.36Z"/>
      <path class="cls-1" d="m66.69,15.14c-.43-.42-.97-.85-1.46-1.27-.5-.43-.99-.85-1.49-1.28-.51-.42-1.07-.76-1.61-1.15-.54-.38-1.09-.75-1.64-1.13-.57-.34-1.16-.65-1.74-.98,1.75.9,3.31,2.12,4.88,3.27,1.46,1.29,2.95,2.57,4.15,3.81.64.62,1.26,1.23,1.88,1.84.29.28.58.57.87.85l.58.55c.74.68,1.46,1.34,2.14,1.97.64-.71,1.2-1.36,1.7-1.96l-.16.15c-.5.54-1.01,1.08-1.53,1.63-.87-.84-1.77-1.71-2.67-2.58-.86-.81-1.72-1.63-2.6-2.45-.44-.42-.88-.83-1.32-1.25Z"/>
      <path class="cls-1" d="m52.73,3.62l1.73.49c.58.16,1.12.41,1.69.62-1.07-.57-3.36-1.28-4.49-1.68-.7-.2-1.43-.27-2.14-.39.54.14,1.09.25,1.63.41l1.6.55Z"/>
      <path class="cls-1" d="m18.52,7.87C26.95,2.62,37.07.74,46.68,2.26c.95.07,1.88.27,2.82.4-6.38-1.6-13.1-1.71-19.33-.18-6.23,1.48-12.01,4.43-16.48,8.47-.84.84-1.9,1.88-2.88,2.97-.91,1.15-1.84,2.26-2.58,3.16-3.4,4.34-5.76,9.31-7.04,14.42-1.28,5.11-1.51,10.38-.77,15.46C-.23,42.09,0,37.04,1.2,32.08c.03-.14.06-.27.09-.41C3.81,21.75,10.07,13.14,18.52,7.87Z"/>
    </g>
  </g>
</svg>