<?xml version="1.0" encoding="UTF-8"?>
<svg id="Layer_2" data-name="Layer 2" xmlns="http://www.w3.org/2000/svg" viewBox="0 0 146.59 148.53">
  <defs>
    <style>
      .cls-1 {
        fill: #1d1d1d;
      }
    </style>
  </defs>
  <g id="Layer_1-2" data-name="Layer 1">
    <g>
      <path class="cls-1" d="m142.42,25.26s-.06.02-.1.03c.03.75.07,1.42.1,2.06v-2.09Z"/>
      <path class="cls-1" d="m143.59,28.74c-.03.08-.05.09-.08.13.03.17.05.33.08.53v-.66Z"/>
      <path class="cls-1" d="m140.66,20.63c0-1.16,0-2.31-.1-2.31-.26-.76-.43.49-.49,2.74,1.1,4.99,1.49,17.68,2.25,4.24-.36.16-.72,1.03-1.07-.03v-4.63c-.19-1.16-.39,0-.59,0Z"/>
      <path class="cls-1" d="m142.43,27.56c.16,3.15.35,5.08.67,6.97v-6.09c-.22-.63-.45-1.49-.67-.88Z"/>
      <path class="cls-1" d="m139.99,9.99c-1.95-1.62-4.43-2.5-6.86-2.49-5.37.06-10.55.2-15.18.46,3.28,0,6.05-.04,8.78-.09,1.37-.02,2.73-.04,4.14-.06.7,0,1.42-.01,2.16-.02.32.01.65.03.98.04.33.05.66.1,1.01.15.01-.06.11-.07.98.24-.34-.08-.66-.17-.98-.24-.02.05.02.14-.43.11,1.73.19,3.54.92,5.1,2.13.76.62,1.46,1.36,2.05,2.17.56.84,1.03,1.74,1.35,2.7.23.47.5.94.65,1.4-.44-2.52-1.79-4.88-3.75-6.49Z"/>
      <path class="cls-1" d="m144.45,17.21c.02.38.04.73.06,1.1.04-1,0-1.1-.06-1.1Z"/>
      <path class="cls-1" d="m7.8,67.71c.08,7,.42,13.13.75,19.34-.28-13.17-.42-26.68-.79-36.74.01,5.77.03,11.57.04,17.4Z"/>
      <path class="cls-1" d="m9.54,103.08l.02,1.29c0,.42,0,.92.04,1.12.12,2.15,1.18,4.19,2.87,5.49.18.1.35.2.52.3.18.08.36.16.54.24-.56-.33-1.04-.76-1.49-1.19-.41-.47-.82-.92-1.11-1.45-.63-1.02-.96-2.13-1.06-3.25l-.04-.42-.02-.68c-.01-.46-.03-.91-.04-1.36-.03-.9-.06-1.79-.09-2.68-.08-1.76-.15-3.48-.23-5.19.02,1.73.04,3.46.07,5.19l.03,2.59Z"/>
      <path class="cls-1" d="m9.17,102.57c-.05-1.85-.1-3.63-.15-5.38-.13-3.5-.3-6.83-.47-10.15.1,3.72.19,7.41.28,10.98.06,1.78.12,3.54.18,5.26.02.43.03.86.05,1.28l.03.63.05.42c.02.28.07.55.14.82.05.27.13.53.22.77-.19-.62-.24-1.26-.28-1.88-.02-.93-.03-1.85-.05-2.75Z"/>
      <path class="cls-1" d="m65.06,1.44c5.21-.28,8.37-.41,10.17-.44.8-.14,1.85-.3,3.27-.51h-.93c-5.38.16-10.84.32-16.35.48-2.26.12-4.41.26-6.21.42,3.36.02,6.72.03,10.05.05Z"/>
      <path class="cls-1" d="m75.23,1c-6.79,1.17,7.01-.12,0,0h0Z"/>
      <path class="cls-1" d="m38.42,7.21c1.06-.02,2.07-.04,3.12-.07-.26,0-.53,0-.8,0-.77.02-1.56.04-2.32.07Z"/>
      <path class="cls-1" d="m3.18,39.45c-.04-4.57-.11-9.16-.2-13.66.1,9.29.2,18.65.5,26.41,0-1.15.1-2.32.1-3.47-.2-2.32-.39-5.79-.39-9.27Z"/>
      <path class="cls-1" d="m5.9,115.46c.42.45.88.87,1.35,1.26-.48-.39-.93-.81-1.35-1.26Z"/>
      <path class="cls-1" d="m1.22,70.73c.2-1.16.2,2.32.29,2.32.39,6.95.29,15.05.29,23.17,0,1.15-.1,1.15-.18,2.35.11,1.38.21,2.81.3,4.29.04.74.08,1.49.12,2.26.04.47.08.94.12,1.41.05.48.16.96.24,1.43.81,3.82,3.22,7.48,6.79,9.67,1.77,1.1,3.8,1.85,5.91,2.13.53.1,1.06.1,1.59.13.28.01.53.02.73.02h.66c.88,0,1.77,0,2.66,0,3.55,0,7.15.02,10.72.03,1.81,0,3.63-.02,5.46-.03,1.63,0,3.27.01,4.93.02-3.39,0-6.88,0-10.39,0-4.13.03-8.21.1-12.26.18-1.05,0-1.9.08-3.26,0-.63-.02-1.25-.14-1.87-.22-.61-.15-1.23-.25-1.83-.47-1.77-.57-3.44-1.47-4.9-2.64,2.5,2.05,5.64,3.29,8.82,3.43,1.04.05,1.7.01,2.48.01l2.29-.03c1.52-.02,3.05-.04,4.57-.06,5.7-.07,11.36-.13,17.03-.2,4.68,4.73,9.4,9.48,14.17,14.3,3.27,3.28,6.48,6.51,9.66,9.71l1.2,1.19.62.61c.27.24.53.51.83.73,1.16.91,2.54,1.55,3.98,1.85,2.88.62,5.98-.23,8.14-2.12.25-.24.53-.5.75-.72l.57-.6,1.13-1.2,2.26-2.4c1.5-1.6,2.99-3.19,4.49-4.78,2.98-3.19,5.95-6.36,8.91-9.53l4.11-4.33,3.71-3.82c2.89.02,5.77.03,8.66.05-.6.07-1.18.13-1.75.19,4.4.04,8.72.05,13.06.04,1.09,0,2.17,0,3.26-.01h1.64c.55-.01,1.07,0,1.73-.05,2.52-.12,5.01-1.01,7.11-2.47.75-.54,1.46-1.14,2.09-1.82,1.81-1.92,2.99-4.32,3.48-6.82.08-.63.21-1.25.21-1.88.01-.31.03-.64.03-.93v-.83c-.02-1.11-.04-2.21-.05-3.31-.04-4.39-.08-8.7-.12-13.03-.03-8.65-.05-17.34-.09-26.77l-.1-13.89c-.1-3.47-.68,2.32-.78-3.47-.03.31-.06.62-.1.89.12,4.41.31,8.3.1,9.53-.41,1.61-.62-6.77-1.04-12.08-.08-.15-.15-.36-.23-.66v-1.66c-.03-.19-.05-.36-.08-.54-.14.21-.27-.04-.41-.43v6.09c-.32-1.89-.51-3.81-.67-6.97,0,0,0,0-.01.01v-.22c-.03-.64-.06-1.31-.1-2.06h0c-.76,13.44-1.15.75-2.25-4.24-.03,1.17-.03,2.61,0,4.21h-.29c-.2,10.42-.59,17.37-1.08,26.64-.1,2.32-.49,2.32-.49,5.79,0,9.26-.1,18.54,0,27.8.04,2.35.07,4.68.11,7l.03,1.74c0,.29.01.62,0,.7,0,.14,0,.29,0,.43-.07.57-.16,1.13-.37,1.66-.79,2.17-2.95,3.79-5.28,3.91-.17.04-.87.04-1.42.04l-1.7.02-3.4.04c-2.26.02-4.52.04-6.78.06-5.31.04-10.61.07-15.93.11-1.2,1.24-2.41,2.49-3.62,3.74.1-.08.16-.1.16-.07-3.2,3.3-6.41,6.61-9.68,9.98-3.24,3.32-5.46,6.01-8.7,9.32-1.69,1.73-3.38,3.46-5.06,5.18l-.6.61c-.08.05-.13.15-.21.19-.14.11-.29.21-.45.28-.31.16-.66.19-1,.18-.35,0-.67-.14-.97-.32-.17-.1-.25-.18-.47-.38l-1.26-1.28c-1.67-1.7-3.35-3.4-5.01-5.09-7.18-7.26-14.3-14.48-21.43-21.68-6.48.05-12.95.1-19.43.15-2.89.03-5.79.06-8.69.09h-.54s-.33-.01-.33-.01c-.22,0-.45,0-.66-.05-.44-.04-.87-.15-1.29-.27-.85-.25-1.65-.67-2.35-1.23-1.25-.79-2.41-2.09-2.97-3.77.3,1.16.86,2.31,1.72,3.3-1.19-.99-2.14-2.54-2.51-4.4-.06-.47-.13-.89-.16-1.67-.03-.69-.07-1.4-.1-2.11-.06-1.42-.11-2.88-.17-4.36-.21-5.94-.36-12.31-.48-18.68-.24-12.74-.39-25.48-.78-34.75-.2-5.26-.36-10.68-.5-16.22-.06-2.77-.12-5.57-.18-8.4-.03-1.47-.07-2.72.19-3.98.24-1.26.74-2.48,1.44-3.58,1.39-2.21,3.62-3.93,6.19-4.67.64-.19,1.3-.31,1.97-.39l1.01-.06h1.11c1.48-.02,2.96-.03,4.44-.04,5.95-.02,11.97-.05,18.05-.07,11.97-.35,24.33-.66,36.93-.91-11.48.35-23.29.63-36.13.91,12.93.02,26.1.04,39.29.06,14.81-.24,28.98-.19,44.01-.36,1.74-.04,3.48-.08,5.07-.11,1.58-.05,3.01-.09,4.17-.13,1.62-.11,3.31.15,4.76.65-1.06-.55-2.2-.93-3.36-1.17-1.17-.2-2.38-.24-3.49-.19-2.26.05-4.44.11-6.46.15.53-.04.47-.12.47-.17-6.31.02-10.83.19-17.38.19,4.64-.26,9.79-.39,15.2-.46,2.7-.02,5.47-.05,8.27-.07.68-.02,1.43.01,2.18.05.74.1,1.48.21,2.2.42,1.44.4,2.82,1.07,4.04,1.94.58.26,1.08.55,1.53.81-2.3-2.23-5.48-3.59-8.72-3.65-3.01-.04-5.92-.02-8.89-.02-5.92.03-11.84.06-17.76.09-11.83.1-23.64.27-35.25.5-4.21.12-8.48.24-12.8.36,2.13.03,4.28.07,6.45.1h-6.96c-1.11,0-2.21,0-3.33,0-7.24.17-14.7.34-22.61.52,6.32-.17,12.75-.35,19.27-.53-6.55-.03-13.26-.06-19.93-.09-3.34.01-6.66.02-9.96.04-1.65.03-3.29.01-4.92.09-1.64.09-3.25.53-4.68,1.25-1.5.8-2.98,1.96-4.12,3.49-1.12,1.53-1.99,3.37-2.27,5.36-.17.99-.14,1.99-.12,3.04l.08,3.12c.06,2.08.12,4.14.18,6.14.04.17.07.33.11.47,0,.61-.01,1.21-.02,1.82.08,1.02.16,2.12.22,2.81.21,8.36.47,16.73.6,25.52.03.75.05,1.51.08,2.28.1,2.32,0,5.79,0,8.11,0-3.55-.03-7-.08-10.39-.38-9.86-.92-17.45-.82-28.33-.05-.7-.08-1.36-.08-1.82,0-.16-.01-.31-.02-.47-.29-1.4-.43-3.99-.5-7.05,0-1.53-.13-3.19.06-4.83.21-1.65.8-3.26,1.66-4.64-.38.45-.12-.07.27-.69.39-.62.97-1.28.9-1.34,1.12-1.37,2.55-2.51,4.17-3.29,1.61-.78,3.42-1.18,5.15-1.26,3.33-.18,6.52-.35,9.42-.5,9.26-.39,18.53-.19,26.64-.78,2.32-.2,6.96-.1,10.43-.2,1.47-.08,3.05-.17,4.68-.25-1.71-.04-3.42-.08-5.14-.11-1.15-.1,29.41-.61,28.25-1,0,0-.1,0-.29-.01h-.83c-.72,0-1.77.02-3.08.03-2.62.03-6.31.08-10.55.13-8.49.11-19.2.23-28.12.24-3.47-.29,3.01-1.44,5.34-1.54.26-.02.55-.05.83-.08-2.66-.02-5.32-.04-7.95-.06-4.18.09-8.4.19-12.61.28-3.4.07-6.81.14-10.24.21-1.71.03-3.43.07-5.15.1l-1.29.03h-.64s-.87.06-.87.06c-.58.02-1.16.1-1.73.21-.58.08-1.14.23-1.7.39.6-.19,1.2-.35,1.82-.45.61-.13,1.23-.2,1.86-.24.7-.06,1.06-.07,1.54-.09l1.38-.07c.88-.05,1.79-.1,2.71-.15,7.38-.35,15.98-.35,24.93-.28,4.76-.12,9.48-.24,14.16-.36.13,0,.24-.01.36-.02-5.97-.04-12.05-.08-18-.11-5.45.12-10.94.24-16.48.36-2.77.06-5.54.11-8.32.17l-1.04.02h-.52s-.69.04-.69.04c-.97.03-1.94.19-2.89.38-1.91.43-3.73,1.2-5.36,2.25,2.14-1.42,4.61-2.38,7.2-2.71.35-.03.7-.07,1.05-.1l.53-.04.4-.02c.51-.03,1.02-.05,1.55-.08,1.04-.04,2.11-.08,3.2-.12,2.18-.07,4.44-.11,6.77-.14,4.66-.05,9.58-.04,14.61,0,10.38-.24,20.59-.51,30.51-.84-6.74,0-14.42,0-21.07.1-6.7.13-13.26.25-19.72.38-3.23.06-6.44.13-9.62.19-1.59.03-3.18.06-4.77.1l-1.19.02h-.59s-.85.06-.85.06c-.57.03-1.14.08-1.7.19-.57.09-1.13.19-1.67.35-4.43,1.15-8.26,4.1-10.52,7.96C1.25,11.27.5,13.42.18,15.62c-.08.55-.15,1.1-.16,1.65-.02.55-.04,1.15-.02,1.47l.05,2.33c.13,6.22.26,12.42.39,18.64.23,3.01.42,6,.48,9.01.19,6.94.19,15.06.29,22.01Zm141.49-7.24c-.02.18-.04.36-.07.55-.05-1.23-.09-2.46-.14-3.64.12.86.21,1.97.21,3.09Zm-.59-4.63s.05.04.08.09c.15,10.12.38,20.59.21,28.54-.13-9.71-.37-20.15-.28-28.64Zm-6.14,53.09s.02.02.03.04l-.12.02.09-.06Zm-110.89,3.48c2.25-.22,5.1-.36,8.29-.46,1.6-.04,3.27-.08,5-.13,2.08-.03,4.21-.07,6.36-.1,1.64,1.62,3.29,3.25,4.92,4.86,1.39,1.35,2.77,2.67,4.1,3.95,2.52,2.39,5.05,4.79,7.57,7.18,2.9,2.83,5.8,5.66,8.72,8.51l2.19,2.14.14.13.08.07.15.13c.09.1.22.15.32.23.22.15.45.26.69.35.95.38,2.04.3,2.91-.17.11-.05.22-.11.32-.19.11-.06.21-.14.3-.22.1-.07.19-.16.28-.26l.16-.15.27-.28c.71-.76,1.42-1.51,2.14-2.27,1.43-1.52,2.87-3.04,4.32-4.58,2.91-3.06,5.85-6.16,8.85-9.31,3.6-3.81,7.59-8.05,11.39-12.08,1.93-.03,3.8-.06,5.64-.09,1.22-.03,2.4-.07,3.55-.1,2.33-.07,4.67-.08,6.97-.07.11.02.22.05.35.08-2.82.03-5.66.06-8.48.09-1.16.05-2.32.15-3.33.23-.81.04-1.56.08-2.22.11-.69.03-1.29.05-1.78.05-.18,0-.36,0-.57.01-1.93,2.05-4.09,4.35-6.37,6.76-1.86,1.95-3.81,3.99-5.76,6.04-3.1,3.45-7.29,7.46-11.27,11.67-.81.83-1.48,1.79-1.41,1.86-.72.71-1.4,1.39-2.05,2.04-.42.41-.74.64-1.14.86-.77.42-1.63.54-2.47.42-.42-.05-.83-.2-1.22-.41-.2-.09-.38-.24-.57-.37l-.27-.23-.45-.44c-1.22-1.19-2.5-2.47-3.9-3.94l2.29,2.63c-3.31-3.25-5.88-5.6-10-9.67-3.24-3.32-5.95-5.52-8.38-8.01-2.4-2.39-4.8-4.78-7.15-7.14-2.39.03-4.77.05-7.1.08-2.04.04-4.04.07-6,.1-3.91.08-7.62.2-11.02.37,1.16-.2,3.48-.2,4.64-.29Zm-18.73-.78c.22.04.66.45,1.41.99.73.57,1.79,1.27,3.18,1.91,1.39.64,3.15,1.18,5.17,1.29,6.99-.02,17.02-.05,26.92-.08,2.31,2.33,4.61,4.65,6.81,6.87,2.35,2.35,4.6,4.58,6.67,6.59,4.14,4.01,7.54,7.12,9.49,8.49,1.2,2.07-2.96-1.56-8.23-6.53-2.64-2.49-5.55-5.31-8.21-7.92-1.33-1.31-2.59-2.57-3.73-3.7-.99-1-1.87-1.88-2.58-2.6-.16-.17-.33-.34-.5-.52h-7.83c-2.99.03-6.05.06-9.13.09-1.54.03-3.08.05-4.62.08l-2.31.05-1.15.03h-.58s-.69,0-.69,0c-3.69-.07-7.3-1.64-9.89-4.16-.37-.65-.41-.91-.2-.86ZM2.65,17.75c.01-.55.05-1.09.14-1.63.06-.54.18-1.08.32-1.61.55-2.12,1.58-4.12,3.02-5.77.97-1.2,2.14-2.22,3.42-3.04,1.41-.88,2.87-1.48,4.33-1.79.73-.15,1.45-.27,2.16-.3.36-.01.71-.03,1.06-.04l.86.02c.35,0,.69,0,1.03-.02-.19,0-.4.02-.6.03,3.41.08,6.68.24,10.75.3l1.15-.1v.29c-2.61.17-5.36.27-8.2.32-1.42.02-2.86.04-4.32.05-.68,0-1.6.03-2.42.13-.84.1-1.67.3-2.48.55-3.26,1.02-6.11,3.34-7.8,6.33-.85,1.49-1.4,3.14-1.63,4.82-.07.42-.11.84-.11,1.26-.02.42-.03.85-.02,1.2.02.73.03,1.46.05,2.19.39,15.06.49,31.27,1.17,46.33.1,2.32,0,5.8,0,8.11-.29-8.11-.78-15.06-1.08-23.17-.31-6.56-.5-13.57-.64-20.76-.06-3.59-.11-7.23-.17-10.87l-.02-1.37c0-.46-.02-.87,0-1.46Z"/>
      <path class="cls-1" d="m16.47,6.05c1.05-.07,2.06-.03,3.09-.04,4.1-.02,8.18-.03,12.24-.05,8.13-.03,16.23-.04,24.48.05,5.01-.11,10.05-.22,15.13-.33,3.92-.13,7.82-.26,11.72-.39,9.3-.26,19.38-.35,29.63-.4,5.13-.02,10.3-.04,15.43-.07,1.28,0,2.57-.01,3.84-.02h.96s1.07.04,1.07.04c.36,0,.71.08,1.06.13.35.04.71.11,1.05.2,2.79.63,5.31,2.22,7.16,4.34.64.33.95.23.62-.63-2.07-2.52-5.07-4.25-8.28-4.88l-1.22-.19-1.22-.07c-.77-.03-1.38-.01-2.08-.02h-4.07s-16.27.06-16.27.06c-10.84.07-21.68.16-32.52.08-.17,0-.34.02-.51.03-9.27.59-24.33.39-35.91.88-5.79.29-11.58.49-17.38.67l-4.34.14c-1.46.06-2.86.04-4.4.21-3,.41-5.78,1.97-7.68,4.22,1.42-1.59,3.29-2.72,5.28-3.4,1.01-.3,2.04-.53,3.09-.56Z"/>
      <path class="cls-1" d="m9.44,95.3c-.06-4.54-.12-9.1-.18-13.69-.23-12.79-.52-24.15-.88-35.76.03,8.52.05,17.09.08,25.72.1,8.64.6,15.97.97,23.73Z"/>
      <path class="cls-1" d="m7.56,21.49l-.03-2.87c0-.26,0-.45.01-.63l.02-.57c.04-.38.1-.75.16-1.13.31-1.49.97-2.9,1.92-4.1.61-.76,1.35-1.41,2.16-1.96-1.3.92-2.38,2.15-3.1,3.54-.48.95-.78,1.97-.92,3.01-.09.52-.08,1.03-.1,1.58l.04,2.01.37,16.06c.1,3.18.2,6.3.3,9.42-.05-6.32-.09-12.61-.14-18.88l-.04-4.7-.02-2.35c0-.75-.03-1.67,0-2.16.1-2.32,1.16-4.58,2.89-6.17,1.39-1.35,3.24-2.19,5.18-2.42l.74-.06c.26-.02.62-.02.93-.03l1.93-.04,3.86-.07,15.43-.29,30.85-.67c2.34-.04,4.65-.09,6.96-.13-19.14-.06-38.24-.11-56.62,0-1.14.01-2.32,0-3.41.03-.99.02-1.96.21-2.9.48-.92.33-1.81.74-2.61,1.28-.79.56-1.53,1.19-2.14,1.94-1.22,1.48-2.04,3.28-2.26,5.15-.09.46-.08.94-.1,1.4,0,.5.01,1.09.02,1.63.02,1.1.04,2.2.06,3.29.16,8.74.39,17.22.69,25.34.02.6.05,1.26.07,1.89-.05-7.73-.1-15.42-.15-23.08l-.05-5.74Z"/>
      <path class="cls-1" d="m51.44,6.12c1.12,0,2.23,0,3.34.01,1.3-.03,2.57-.07,3.84-.1-.78,0-1.56-.02-2.33-.03-1.62.04-3.24.08-4.85.12Z"/>
      <path class="cls-1" d="m2.81,17.46c-.04.85,0,1.48.01,2.16.02.68.03,1.36.05,2.04.03,1.37.06,2.74.09,4.12-.03-2.51-.06-5.01-.09-7.47,0-1.45.2-2.89.6-4.26.42-1.37,1.04-2.66,1.79-3.83.78-1.16,1.71-2.19,2.73-3.08,1.04-.87,2.18-1.59,3.36-2.15,1.2-.52,2.42-.95,3.67-1.13.61-.13,1.23-.15,1.84-.21.52-.03,1.02-.05,1.52-.07-.14,0-.29,0-.43,0-.45,0-.89,0-1.49.05l-.84.06-.83.13c-1.11.17-2.2.52-3.24.94-2.09.87-3.95,2.26-5.43,3.98-.99,1.21-1.8,2.58-2.38,4.06-.58,1.48-.88,3.07-.94,4.66Z"/>
      <path class="cls-1" d="m.05,30.19v4.64c.06.71.12,1.4.18,2.11,0-1.08.01-2.18.02-3.27l-.2-3.47Z"/>
      <path class="cls-1" d="m1.89,107c-.07-.4-.07-.8-.1-1.2l-.04-.6v-.47s-.04-1.9-.04-1.9c-.02-1.27-.05-2.55-.07-3.83,0-.14,0-.28,0-.43-.41-20.53-.8-39.78-1.18-58.86-.07-.93-.15-1.85-.22-2.78-.06,12.8.07,25.54.61,37.28.1,2.31.39,5.79.39,8.11.05,5.48.15,10.83.27,16.12.03,1.32.07,2.64.1,3.95l.05,1.97.03,1.02.09,1.25c.39,3.32,1.85,6.49,4.14,8.84-2.17-2.26-3.58-5.28-4.01-8.45Z"/>
    </g>
  </g>
</svg>