<?xml version="1.0" encoding="UTF-8"?>
<svg id="Layer_2" data-name="Layer 2" xmlns="http://www.w3.org/2000/svg" viewBox="0 0 143.68 147.64">
  <defs>
    <style>
      .cls-1 {
        fill: #1d1d1d;
      }
    </style>
  </defs>
  <g id="Layer_1-2" data-name="Layer 1">
    <g>
      <path class="cls-1" d="m132.59,70.52c-.41.38-.75.72-1.04,1.11-.28.4-.49.83-.63,1.28.26-.76.72-1.38,1.11-1.75.39-.38.68-.62.68-.62-.03-.02-.08-.01-.12-.02Z"/>
      <path class="cls-1" d="m131.84,75.18c.07.21.16.41.29.64-.1-.26-.19-.52-.24-.8-.01.09-.04.1-.05.15Z"/>
      <path class="cls-1" d="m136.15,65.38c-.25.24-.52.5-.82.77-.32.28-.52.49-1.23,1.02-1.17.92-2.55,1.83-3.35,2.94-.85,1.01-1.37,2.4-1.4,3.66-.04,1.28.35,2.25.72,3.08.39.82.82,1.39,1.03,1.63.21.24.26.16.1-.32-.15-.47-.54-1.38-.77-2.68-.12-.64-.13-1.5.19-2.42.31-.95.98-1.83,1.97-2.56-.49-.08-1.78.72-.9-.66.67-.67,2.03-1.46,3.29-2.3.83-.54,1.65-1.08,2.21-1.44.95-.86-.21-.33-.32-.49,1.06-.69,2.12-1.39,2.07-1.47.55-.67-.69-.06-2.78,1.23Z"/>
      <path class="cls-1" d="m131.18,76.24c.35.89.85,1.69,1.28,2.41.22.36.43.7.63,1.04.16.24.32.48.47.71.31.45.61.88.92,1.3l-1.67-3.23c-.33-.65-.68-1.3-.94-1.95-.25-.65-.51-1.26-.53-1.96-.29-.9,0-2.16-.51-1.36-.28,1.16-.03,2.19.34,3.03Z"/>
      <path class="cls-1" d="m141.26,60.94c-.26-.24-.52-.42-.93-.68-.76-.49-1.51-.98-2.26-1.46-.8-.52-1.6-1.03-2.4-1.55-.89-.57-1.78-1.15-2.52-1.79-.74-.66-1.18-1.7-1.1-2.7.02-.5.2-.96.38-1.41.18-.46.38-.92.61-1.38.59-1.19,1.17-2.36,1.74-3.52.56-1.16.92-1.86,1.26-2.67.34-.8.32-1.7.06-2.48-.29-.77-.79-1.44-1.46-1.85.75.57,1.22,1.39,1.38,2.23.16.84,0,1.7-.37,2.4-.98,1.96-1.91,3.85-2.9,5.82-.24.48-.44.96-.63,1.44-.18.47-.35.96-.37,1.5-.05,1.07.45,2.22,1.32,2.92.07-.03.15.05,1.19.92-.44-.32-.83-.61-1.19-.92-.05,0-.09.09-.38-.16.88.84,2.07,1.55,3.24,2.29,1.03.65,2.1,1.31,3.17,1.99.5.32,1.09.68,1.53.98.38.24.68.57.94.92.49.72.72,1.66.56,2.54.03.48-.04.96-.19,1.38.74-1.19.73-2.81-.02-3.98-.17-.3-.4-.56-.66-.8Z"/>
      <path class="cls-1" d="m141.54,67.12c-.15.11-.3.23-.45.34.44-.26.66-.45.76-.57.11-.11.11-.15.09-.17-.14.13-.27.26-.4.39Z"/>
      <path class="cls-1" d="m16.55,55.9c.52-.84.82-1.88.79-2.88-.03-1-.34-1.88-.74-2.85-.45-.95-.99-1.89-1.47-2.83-.33-.62-.67-1.24-1-1.86-.25-.46-.5-.92-.75-1.38-.18-.33-.39-.66-.48-1.04-.09-.37-.1-.76,0-1.13.17-.74.69-1.38,1.37-1.7.33-.17.7-.24,1.07-.28.51-.07,1.02-.13,1.52-.2,1.67-.2,3.29-.39,4.87-.58.75-.09,1.45-.26,2.08-.46.63-.19,1.23-.49,1.74-.93,1.05-.86,1.62-2.16,1.69-3.35-.1,1.24-.75,2.54-1.82,3.36-.53.41-1.12.68-1.74.85-.62.18-1.29.33-2.01.4-2.19.22-4.38.45-6.58.67-1.24.05-2.38.98-2.64,2.2-.08.42-.07.85.04,1.24.1.4.34.74.52,1.09.67,1.21,1.33,2.39,1.97,3.55.49.92,1.05,1.84,1.46,2.77.39.94.69,1.79.66,2.78-.02.97-.35,1.95-.88,2.73-.53.75-1.22,1.4-2.04,2.02l-2.47,1.74-1.66,1.2c1.46-.99,2.93-1.99,4.4-2.99.87-.66,1.56-1.31,2.1-2.14Z"/>
      <path class="cls-1" d="m14.94,83.84l.06-.1.12-.21c.15-.28.3-.56.44-.84.79-1.52,1.56-3,2.31-4.45.62-1.26.94-2.45.97-3.62.03-1.2-.29-2.47-.88-3.5-.29-.52-.64-.97-1.03-1.38-.4-.42-.85-.83-1.36-1.2-.51-.37-1.07-.69-1.6-1.04-.5-.32-1-.63-1.49-.94-1.13-.69-2.77-1.7-2.74-1.62-.36-.15-.7-.42-.88-.8.13.42.48.73.85.92l.27.16.86.55,1.93,1.24c1.01.68,2.12,1.3,3.05,2.05.91.77,1.6,1.53,2.1,2.57.49,1.02.71,2.2.63,3.29-.09,1.05-.4,2.15-.95,3.26-.94,1.87-1.87,3.71-2.8,5.55-.04.18-.08.35-.08.51.06-.15.15-.28.23-.41Z"/>
      <path class="cls-1" d="m15.84,69.56c-.6-.55-1.36-1.01-2.07-1.48-.63-.4-1.26-.8-1.88-1.2-.43-.27-.85-.53-1.28-.8-.4-.25-.95-.6-.99-.6-.3-.17-.64-.32-.89-.58-.52-.5-.73-1.3-.5-2,.11-.35.32-.67.6-.91l.44-.37.24-.2.55-.4-.61.42-.27.2c-.18.13-.36.25-.52.39-.33.28-.57.65-.67,1.07-.22.82.14,1.72.8,2.17.16.11.34.2.51.3l.25.14.15.08.31.19c.88.53,1.74,1.06,2.6,1.59,1.28.82,2.71,1.58,3.66,2.57.97.9,1.68,2.21,1.87,3.58-.1-.83-.37-1.65-.78-2.34-.41-.71-.91-1.25-1.52-1.8Z"/>
      <path class="cls-1" d="m90.12,6.74l-.34.26-.19.15c-.26.21-.51.41-.75.61-.49.4-.95.79-1.39,1.15,1.18-.83,2.36-1.66,3.54-2.48,1.75-1.22,3.77-1.91,5.82-1.92,2.05-.03,4.07.59,5.75,1.73.88.57,1.62,1.26,2.25,1.99.6.76,1.11,1.53,1.45,2.38.19.41.36.83.51,1.24.12.32.25.64.37.95.17.43.34.84.49,1.23.29.73.55,1.38.77,1.94.05.09.1.17.14.24.04.08.06.12.07.16.13.03.37.03.6-.21-.03,0-.05-.01-.08-.02-.12,0-.16-.1-.24-.19l-.1-.15-.62-1.63-.63-1.65-.51-1.39c-.21-.51-.42-1.02-.66-1.5-.51-.95-1.15-1.81-1.89-2.56-.77-.73-1.62-1.37-2.55-1.86-1.88-.97-4.04-1.35-6.14-1.09-1.84.27-3.54.99-4.93,2.07-.24.18-.49.37-.73.55Z"/>
      <path class="cls-1" d="m108.15,16.48c.12.2.32.4.5.34.19-.07.11-.13-.04-.45-.08-.01-.15-.04-.22-.06-.36-.15-.38-.06-.25.17Z"/>
      <path class="cls-1" d="m77.2,8.68c.11.14.22.28.34.42.33.42.66.83,1,1.25-.18-.23-.35-.46-.53-.69-.28-.33-.54-.66-.8-.98Z"/>
      <path class="cls-1" d="m23.13,31.22c-.03-.29-.07-.6-.11-.93-.04-.42-.08-.87-.12-1.33-.04-.48-.07-.97-.11-1.49-.04-.59-.07-1.2-.11-1.83-.04-.92-.03-1.86.24-2.78.26-.92.73-1.79,1.37-2.52.9-1.03,2.11-1.8,3.44-2.15,1.33-.4,2.75-.28,4.1.1,2,.56,3.99,1.12,5.97,1.67.44.12.86.24,1.29.34l-1.29-.36c-1.25-.36-2.5-.71-3.74-1.07l-1.11-.32c-.47-.14-.93-.27-1.4-.39-.93-.24-1.87-.34-2.81-.23-1.86.23-3.57,1.21-4.68,2.65-.56.71-.96,1.54-1.2,2.4-.23.87-.24,1.76-.21,2.65.08,1.71.16,3.37.23,4.97.04.58.07,1.16.11,1.72.01.29.06.57.02.86-.04.28-.14.55-.3.78.29-.38.43-.85.41-1.32.01-.46.03-.94.01-1.43Z"/>
      <path class="cls-1" d="m101.54,11.28c-.37-.49-.81-.93-1.31-1.29-.51-.34-1.07-.61-1.66-.78-.6-.16-1.21-.22-1.83-.2-.62.04-1.22.19-1.79.41-.56.25-1.08.59-1.57.96.49-.35,1-.67,1.56-.89.57-.2,1.16-.33,1.76-.35,1.21-.03,2.41.35,3.38,1.08-.99-.72-2.23-1.09-3.46-1.02-.62.02-1.22.19-1.78.42-.57.23-1.06.61-1.57.96l-.31.22c-.99.7-1.98,1.4-2.98,2.11-.79.59-1.58,1.18-2.38,1.77-.41.29-.79.62-1.22.88-.44.25-.96.37-1.46.32-.51-.04-1-.22-1.4-.53-.41-.31-.68-.75-1.01-1.13-.64-.81-1.29-1.62-1.94-2.43-.64-.81-1.29-1.62-1.93-2.43-.66-.78-1.18-1.65-2-2.25-1.61-1.22-4.01-1.25-5.68-.07,1.32-.97,3.16-1.16,4.7-.53.78.31,1.46.84,1.98,1.51l1.62,2.02c1.1,1.37,2.21,2.75,3.32,4.14.28.34.53.7.85.99.33.29.74.48,1.17.57.43.08.89.06,1.31-.08.43-.12.78-.42,1.13-.68-.38.28-.77.57-1.24.67-.46.11-.95.09-1.4-.06-.45-.15-.86-.43-1.16-.8l-.87-1.14c-1.17-1.55-2.34-3.1-3.51-4.65-.62-.78-1.15-1.68-1.97-2.3-.8-.61-1.78-1.01-2.79-1.09-1.01-.08-2.05.1-2.95.58-.92.46-1.62,1.23-2.21,2.05-1.4,1.85-2.8,3.7-4.19,5.53-.35.44-.64.93-1.06,1.31-.43.37-.98.57-1.54.6-.56.03-1.12-.15-1.57-.48l-1.38-.95c-1.66-1.13-3.3-2.25-4.93-3.36-.71-.46-1.42-.99-2.28-1.23-.85-.25-1.8-.3-2.7-.06-.9.23-1.77.69-2.43,1.4-.68.69-1.07,1.61-1.33,2.55-.72,2.18-1.45,4.42-2.18,6.65-.22.58-.37,1.17-.68,1.7-.32.52-.83.92-1.4,1.14-.57.23-1.2.25-1.77.11-.58-.13-1.16-.26-1.75-.42-.38-.1-.74-.2-1.1-.29-.2-.02-.4-.04-.58-.05-.65-.2-1.28-.4-1.92-.6-.55-.12-1.12-.26-1.64-.37-.46-.09-.87-.18-1.19-.25-1.43-.48-3.1-.22-4.22.79-.56.49-1,1.12-1.23,1.82-.25.71-.21,1.47-.16,2.2.05,1.04.1,2.08.16,3.12.04.99.13,2.49.15,3.81-.01.67,0,1.32-.13,1.95-.15.63-.49,1.24-.97,1.7-.99.99-2.32,1.08-3.69,1.3-1.34.15-2.76.31-4.18.48-.7.1-1.42.2-2.14.3-.91.08-2.09.46-2.85,1.37-.41.47-.68,1.04-.81,1.61.19-.92.7-1.77,1.47-2.3.57-.42,1.26-.63,1.95-.7.8-.09,1.59-.18,2.38-.27,1.42-.19,2.8-.38,4.14-.55,1.37-.24,2.68-.35,3.63-1.34.45-.47.77-1.07.9-1.69.1-.62.08-1.25.08-1.9-.13-2.29-.26-4.57-.4-6.89-.09-.91-.08-1.89.34-2.77.41-.87,1.12-1.62,2.03-2.07.9-.45,1.99-.6,3.02-.33.52.12,1.03.3,1.56.45.6.18,1.2.37,1.82.55.76.18,1.42.35,1.95.5.18.05.37.1.55.15.31.04.67.09,1.1.18.37.07.78.14,1.22.22.43.07.89.21,1.41.15.51-.04,1.04-.24,1.49-.6.45-.36.78-.89.95-1.48.79-2.36,1.65-4.93,2.54-7.45.21-.59.39-1.19.73-1.71.33-.52.76-.98,1.25-1.35-.54.32-.1-.15.6-.55.7-.41,1.66-.6,1.64-.68.98-.2,2.03-.13,2.97.24.93.36,1.78,1,2.6,1.5,1.52.95,2.98,1.87,4.3,2.7.36.23.71.45,1.06.67.33.23.69.42,1.09.45.78.1,1.57-.26,2.02-.85.85-1.25,1.65-2.42,2.41-3.53.69-.97,1.39-1.95,2.08-2.92.79-1.12,1.79-2.11,3.07-2.61,1.25-.54,2.66-.65,3.99-.37,1.32.29,2.55.99,3.46,1.99.46.5.87,1.05,1.29,1.59l1.01,1.28c.62.77,1.23,1.54,1.83,2.31.5.58.93,1.22,1.47,1.7.59.44,1.45.46,2.06.04.58-.45,1.12-.92,1.63-1.35.08-.07.17-.15.27-.23l.15-.12.23-.18c.32-.24.67-.51,1.04-.79.82-.59,1.72-1.25,2.66-1.93,1.08-.81,2.35-1.39,3.68-1.58,1.33-.2,2.66,0,3.8.43,1,.35,1.98.94,2.77,1.78.82.82,1.38,1.88,1.83,3.04-.41-1.24-.97-2.43-1.88-3.35-.89-.93-2.01-1.64-3.23-2.04-.18-.06.17,0,.9.29.71.29,1.81.87,2.81,2.03.52.56.96,1.29,1.33,2.13.18.43.36.87.53,1.35.14.36.28.74.42,1.12.26.68.53,1.4.8,2.14.11.29.23.59.34.89.08.2.16.4.24.61.25.54.35,1.25.96,1.52.28.14.61.18.92.11.3-.09.59-.2.88-.3.28-.1.56-.2.83-.3.49-.16.98-.33,1.45-.49,1.18-.39,2.29-.76,3.31-1.1,2.54-.87,4.79-.5,6.13.03,1.36.53,1.95,1.01,1.78.79,0,0-.6-.53-1.94-1.05-1.32-.53-3.47-.9-6.03-.09-.95.3-2,.62-3.13.98-.49.15-.99.31-1.51.48-.23.08-.47.16-.72.24-.48.12-1,.46-1.56.25-.26-.09-.5-.29-.62-.56-.1-.27-.21-.55-.32-.83-.35-.97-.72-1.96-1.09-2.98-.29-.8-.58-1.6-.87-2.41-.38-1.03-.88-2-1.57-2.83-1.37-1.67-3.42-2.77-5.59-2.99-2.18-.25-4.38.42-6.17,1.74-1.47,1.05-2.92,2.1-4.35,3.13-.35.25-.69.49-1.02.74-.32.27-.77.36-1.16.24-.42-.25-.41-.53-.31-.63.11-.12.38-.16.7-.35.32-.16.59-.55.76-.84.19-.29.32-.49.43-.6.13-.13.44-.38.66-.56l-.74.52-.2.13-.4.26c-.26.19-.67.08-.82-.2l-.25-.26-.13-.14-.07-.07-.03-.04-.13-.16-2.15-2.7-.85-1.09c-.32-.38-.64-.77-.99-1.13-.7-.69-1.49-1.27-2.34-1.74-1.72-.9-3.68-1.29-5.6-1.09-2.71.27-5.25,1.71-6.93,4.01-.79,1.07-1.58,2.14-2.37,3.22-.91,1.22-.79,1.11-1.05,1.49-.1.14-.19.3-.31.43-.13.13-.3.21-.47.23-.38.06-.65-.23-.96-.4l-.52-.33-1.52-1.04,1.54,1c.25.14.36.19.54.28.21.1.39.22.6.27.25.04.55-.08.72-.31.11-.16.19-.33.28-.49l.13-.23.07-.11s.01-.03.15-.22c.42-.58.84-1.16,1.27-1.76.55-.74,1.11-1.5,1.67-2.26,1.55-2.07,3.83-3.54,6.41-3.97,2.56-.45,5.33.15,7.53,1.74,1.11.77,2.02,1.84,2.86,3,.51.67,1.02,1.34,1.53,2.02,1.31,1.73,1.09,1.46,1.38,1.86.13.17.37.25.58.18.21-.07.36-.27.52-.39l.23-.2,1.22-.91c.99-.74,1.99-1.47,2.97-2.2,1.52-1.11,3.21-1.75,4.98-1.99.24-.04.46-.05.69-.07-2.01.07-3.98.77-5.71,1.97-1.27.9-2.55,1.8-3.84,2.7l-.5.35-.13.08-.25.16c-.16.11-.41.05-.52-.12l-.16-.24-.08-.12-.38-.51c-.84-1.05-1.67-2.11-2.51-3.17-1.34-1.85-3.11-3.25-5.19-3.96-2.05-.74-4.33-.78-6.43-.15-1.05.32-2.04.81-2.96,1.44-.92.63-1.68,1.45-2.4,2.35-.79,1.07-1.59,2.16-2.39,3.25-.93,1.25-.75,1.05-.94,1.34-.12.21-.27.46-.54.49-.27.05-.46-.15-.69-.26l-.41-.25c-.51-.35-1.03-.7-1.54-1.05-.52-.35-1.03-.71-1.55-1.06-.83-.56-1.78-1.28-2.74-1.7l.58.27.56.34c.38.22.75.46,1.11.71l.83.55.64.41,1.27.82.64.41.32.21c.07.04.06.03.1.05.09.03.17.06.27.1.19.05.34.17.54.12.2-.04.33-.22.41-.4l.14-.24.08-.13.53-.72c.85-1.13,1.71-2.29,2.58-3.45,1.35-1.76,3.15-3.08,5.25-3.74,1.04-.33,2.13-.5,3.23-.51,1.1.01,2.2.19,3.26.53,2.12.69,4.01,2.06,5.39,3.99.86,1.14,1.72,2.29,2.59,3.44l.32.41c.07.09.05.05.08.08l.1.09.18.17c.12.11.33.08.44-.05l.16-.17.07-.08.02-.02h.01s.1-.09.1-.09l.4-.3c1.26-.93,2.5-1.86,3.73-2.77,2.29-1.65,5.05-2.36,7.71-2.08,2.66.26,5.18,1.54,6.98,3.49.9.99,1.66,2.09,2.15,3.39.36.95.72,1.89,1.08,2.83.25.66.5,1.31.75,1.96l.16.42h.02s.02,0,.03-.01c-.28-.79-.56-1.6-.85-2.42l-.35-1.01-.33-.93c-.12-.34-.23-.68-.38-1-.49-1.35-1.28-2.5-2.21-3.52-1.87-2.03-4.49-3.32-7.21-3.57-2.73-.28-5.49.48-7.76,2.07-1.05.76-2.07,1.49-3.07,2.21-.4.29-.79.58-1.18.86l-.07.05s0,0,0,0h0s0,.01,0,.01h0c0,.07-.09.18-.16.14l-.05-.02-.03-.02h-.02s0-.01,0-.01h0s-.06-.08-.06-.08c-.67-.85-1.33-1.68-1.99-2.51-.21-.23-.97-1.29-1.6-2l-.5-.57-.54-.49c-.35-.35-.76-.61-1.15-.9-1.6-1.08-3.46-1.69-5.32-1.84-3.74-.28-7.4,1.43-9.56,4.38-.9,1.22-1.77,2.4-2.62,3.54l-.51.69-.04.09-.1.18c-.06.13-.16.26-.3.27-.14.02-.24-.07-.37-.12l-.14-.07-.07-.04-.46-.32c-.63-.43-1.26-.86-1.87-1.28-.32-.22-.64-.44-.96-.65-.56-.39-1.11-.79-1.69-1.12-1.14-.69-2.35-1.14-3.6-1.36-2.5-.43-5.06.07-7.14,1.32-1.04.63-1.98,1.43-2.73,2.38-.76.95-1.31,2.04-1.74,3.21-.45,1.36-.9,2.69-1.33,4l-.27.83-.05.19-.09.35c-.04.23-.13.5-.37.59-.23.1-.46,0-.7-.04l-.37-.08c-.54-.15-1.07-.3-1.6-.45-.54-.15-1.08-.3-1.61-.45l-1.14-.32c-.46-.14-.93-.25-1.39-.35-3.67-.82-7.5.62-9.7,3.43-.69.93-1.22,1.98-1.54,3.09-.31,1.12-.39,2.27-.35,3.46l.12,2,.1,1.41.08,1.41.05.54c.02.22.04.44.06.66.03.22,0,.46-.12.66-.12.19-.32.34-.55.39l-.7.1-.98.12-2.08.23-1.19.13c-.56.06-1.13.11-1.68.2-1.11.15-2.14.49-3.09.99-1.9.99-3.37,2.7-4.1,4.63-.76,1.93-.75,4.09-.08,5.97-.18-1.06.15.25.86,1.52.27.49.54.98.75,1.36.14.24.24.39.26.38.45.78.9,1.57,1.37,2.38.24.4.48.81.73,1.22.28.42.24,1.01-.1,1.38-.36.34-.81.58-1.23.89-.77.51-1.55,1.02-2.33,1.53-.6.4-1.21.79-1.82,1.19-.33.24-.68.47-.99.73-.3.27-.6.54-.88.82-2.21,2.33-2.82,6-1.44,8.93.4.82.66,1.2.9,1.6.14.19.28.38.45.62.19.23.44.48.78.83.63.46,1.33.89,2.03,1.29.28.16.56.33.85.49l.71.4c.47.27.95.55,1.43.83.26.14.52.28.79.42.49.3,1.21.51,1.44,1.15.28.64-.16,1.24-.41,1.83-.19.39-.38.79-.56,1.19-.31.63-.62,1.26-.94,1.89l-.57,1.13c-.24.45-.45.92-.66,1.38-.39.92-.69,1.88-.72,2.88-.09,1.99.64,4.02,2.03,5.49.69.74,1.52,1.36,2.46,1.77.94.42,1.95.61,3.01.73,1.91.19,3.84.39,5.77.58.3.04.61.05.91.11.3.06.57.23.78.46.2.23.33.52.35.83,0,.31-.01.61-.02.92v.26c-.04,1.66-.08,3.34-.12,5.02l-.02.73v.36c-.01.11,0,.35,0,.52,0,.74.17,1.48.39,2.19.47,1.42,1.4,2.67,2.55,3.59-1.13-.88-2.04-2.08-2.54-3.47-.24-.7-.4-1.43-.43-2.17l-.02-.56v-.37s.03-.73.03-.73c.05-1.69.1-3.4.15-5.11,0-.08,0-.17,0-.26,0-.31.02-.61,0-.92-.03-.3-.17-.59-.38-.81-.21-.22-.49-.37-.79-.43-.3-.04-.61-.05-.91-.08-1.93-.16-3.85-.32-5.76-.47-1.69-.12-3.3-.63-4.62-1.61-1.32-.98-2.31-2.36-2.82-3.93-.24-.79-.36-1.6-.37-2.43.03-.82.13-1.65.42-2.43.24-.79.65-1.57,1.03-2.34l.84-1.73-.87,1.74c-.38.78-.81,1.57-1.05,2.37-.56,1.59-.53,3.33-.04,4.9.51,1.58,1.52,2.96,2.83,3.95,1.33.98,2.93,1.5,4.62,1.63,1.97.17,3.93.34,5.88.5.3.04.61.02.9.11.29.09.54.28.71.52.38.51.2,1.16.24,1.74l-.04,2.82-.03,1.8-.02.9c0,.33-.02.51,0,1.05.05,1.85.84,3.68,2.11,4.99,1.25,1.33,2.96,2.19,4.78,2.39.9.11,1.83.05,2.7-.17l.33-.08s-.02,0-.02,0l.05-.02.25-.08.5-.16,2.01-.63,2.04-.64c.17-.06.35-.09.53-.09.09,0,.18.01.27.03.04.01.1.01.11.04l-.03.13-.21,1.03c-.28,1.39-.62,2.82-.98,4.26l-.37,1.39c-.16.6-.32,1.2-.5,1.79-.34,1.19-.68,2.37-1.06,3.55-.72,2.35-1.51,4.66-2.34,6.93-.41,1.14-.85,2.26-1.29,3.39l-.76,1.85-1.01,2.3c-.66,1.52-1.52,3.09-1.93,4.46-.5,1.41-.69,2.53-.96,3.58-.12.51-.13,1.12.08,1.75.21.63.6,1.23,1.11,1.7.51.47,1.14.83,1.78.98.66.15,1.21.14,1.86-.07,1.26-.32,2.51-.64,3.77-.97,1.36-.6,2.76-1.33,4.12-1.98.69-.31,1.35-.72,2.02-1.11l1.91-1.19c1.07-.62,2.01-1.43,3.02-2.14,1.01-.7,1.92-1.55,2.86-2.33.96-.77,1.8-1.67,2.69-2.52,5.58-5.59,10.06-12.2,13.18-19.42l.03.04c-.17.54-.35,1.06-.51,1.57.22-.47.42-.95.63-1.43l.98,1.29,1.47,1.93.86,1.13c.32.4.64.81,1,1.16,1.44,1.43,3.54,2.15,5.57,1.92,1.01-.11,2-.45,2.87-.99.88-.53,1.59-1.3,2.21-2.14.95-1.28,1.95-2.62,2.96-3.97.39-.53.77-1.05,1.16-1.58.24-.32.46-.68.82-.89.34-.22.75-.32,1.14-.3.4.01.77.18,1.08.42.32.22.64.44.96.66,1.1.76,2.19,1.51,3.27,2.26.66.46,1.32.92,1.98,1.37.73.52,1.52.93,2.38,1.14,1.7.45,3.54.19,5.04-.68.75-.43,1.41-1.02,1.92-1.71.52-.69.85-1.5,1.14-2.32.7-2.03,1.4-4.07,2.1-6.13.16-.42.26-.86.47-1.26.22-.39.59-.7,1.01-.86.88-.37,1.78.14,2.64.34,1.2.35,2.43.71,3.66,1.08.74.22,1.48.44,2.23.66.83.25,1.68.42,2.54.4,1.72-.03,3.45-.81,4.61-2.14.58-.66,1.03-1.45,1.29-2.31.27-.86.29-1.76.27-2.68-.03-1.06-.06-2.3-.09-3.55l-.06-2.18c0-.66-.09-1.33-.02-1.99.11-.66.58-1.24,1.19-1.5.3-.14.64-.16.97-.2l.99-.11,4.95-.52c2.24-.29,1.4-.38,1.01-.5-.2-.06-.31-.14.06-.25.18-.05.48-.11.93-.23.45-.11,1.06-.3,1.76-.74-.32.18-.67.28-.97.37-.77.31-1.58.37-2.37.48-.76.1-1.5.19-2.19.28-.68.08-1.33.17-1.93.24-.55.06-1.06.12-1.52.17-.98.12-1.74.1-2.21.19-.37.05-.37-.07-.02-.26.36-.17,1.07-.27,2.03-.44,1.4-.22,3.23-.5,5.15-.8.9-.16,1.83-.2,2.64-.57.8-.36,1.46-.95,1.88-1.59.03-.16.07-.38.14-.66,0,0,.39-.62.53-1.46,0-.19-.02-.35-.04-.52-.17.16-.29-.1-.47-.45.13,1.76-1.12,3.48-2.82,3.94.69-.37,1.27-.94,1.7-1.71.39-.77.65-1.81.27-2.96,0,0,0,0,0,.01-.02-.05-.03-.1-.05-.16-.14-.38-.37-.72-.6-1.12-.04-.06-.08-.14-.13-.22h0c.04.09.07.17.09.23.37.77.51,1.44.43,1.97-.07.53-.27.88-.43,1.11-.36.44-.56.41-.57.21-.03-.21.07-.66-.03-1.21-.06-.56-.43-1.15-.86-1.58l-.2-.22c-.04-.05-.04-.03-.12-.14l-.19-.28c-.26-.37-.51-.74-.76-1.1-.25-.35-.5-.69-.73-1.02-.35-.53-.68-1.03-.99-1.49.38.76.81,1.6,1.27,2.51.18.34.36.7.55,1.06.1.18.2.37.3.56l.08.15.05.08c-.09.04-.27.11-.27.11.01.03.03.07.04.1.19.37.25.78.08,1.11-.15.33-.45.56-.77.63-.16.04-.32.03-.47.02l-.22-.02-.93.05c-.68.04-1.37.08-2.04.12-1.16.09-2.31.17-3.46.26-.83.07-1.61.25-2.32.48-.7.24-1.34.55-1.97.99-1.25.87-2.27,2.22-2.77,3.6-.25.69-.44,1.47-.52,2.32-.05.86-.02,1.77-.03,2.67,0,.45,0,.91,0,1.36l-.02.73c-.01.49-.02.98-.03,1.49,0,.47-.02.86-.05,1.2,0,.12-.02.05-.02.08h-.03s-.04.03-.06.03c-.14.04-.3-.02-.3-.02,0,0-.02,0-.02,0l-6.89-2.08c-1.1-.33-2.19-.43-3.15-.36-.96.06-1.97.29-2.92.7-.95.41-1.84.99-2.56,1.68-.71.67-1.3,1.44-1.8,2.42-.49.98-.81,2.11-1.2,3.18l-.78,2.24-.56,1.62-.28.81c-.03.1-.03.08-.03.08h0s.01,0,.02.02c.01.03-.01.1-.06.09h-.03s0,0,0,0l-.09-.06-.35-.24c-.47-.33-.94-.65-1.41-.98-1.41-.98-2.8-1.95-4.19-2.92-1.96-1.33-3.78-1.73-5.9-1.55-1.03.11-2.05.42-2.94.86-.87.45-1.65,1-2.42,1.8-.74.81-1.39,1.77-2.07,2.65l-1.36,1.82-1.03,1.38-.51.69-.06.09h0s0,.02,0,.02v.02c-.08.2-.38.3-.56.14l-.06-.06-.03-.03h0s-.09-.12-.09-.12l-.18-.23-1.44-1.86-1.44-1.86-.72-.93-.36-.46-.18-.23-.14-.18c-.19-.24-.4-.48-.63-.71-.46-.45-1-.83-1.53-1.12l-5.77-3.06-2.18,6.29c-1.54,4.43-3.81,8.81-6.6,12.73.09-.09.14-.12.15-.1-2.64,3.7-5.75,7.07-9.34,9.94-.22.18-.43.36-.64.54-.22.16-.44.32-.66.48-.43.32-.85.63-1.27.94-.41.31-.81.63-1.24.89l-.32.2c-.08.05-.27.17-.23.15l-.06.07c-.21.22-.59.5-.99.67-.3.1-.65.37-.95.11-.13-.11-.19-.29-.15-.45.05-.16.15-.3.21-.45.15-.3.29-.61.42-.92l.64-1.51c.37-.94.76-1.88,1.12-2.82,1.44-3.78,2.72-7.59,3.83-11.43.29-.96.54-1.92.81-2.89l.31-1.15.31-1.27.6-2.53c.42-1.69.78-3.35,1.12-5.01l1.04-4.99-1.61-.82-.2-.1c-.08-.03-.21-.06-.3-.09l-.59-.16-.53-.12-.24-.05c-.07-.02-.15-.03-.28,0l-5.42.88-5.4.89-1.35.22-.67.11-.17.03-.38.11h-.03s-.04.02-.05.02c-.02.02-.09,0-.11-.03-.04-.02-.04,0-.03,0h0s0-.12,0-.17v-.45s.03-.9.03-.9l.04-1.79.11-4.95c.03-.98-.12-1.89-.35-2.7-.21-.8-.61-1.6-1.15-2.32-.54-.71-1.22-1.33-1.97-1.77-.74-.44-1.51-.72-2.42-.94-.9-.21-1.9-.25-2.86-.36l-2.24-.21-1.64-.15-.76-.07h-.2c-.48,0-1-.21-1.24-.66-.28-.44-.17-1,.09-1.43.01-.06.02-.1.05-.18l.26-.6c.18-.4.36-.81.54-1.23l.28-.62.14-.32.24-.5c.34-.71.68-1.42,1.03-2.15.35-.72.57-1.47.72-2.19.15-.71.2-1.46.08-2.24.09.73.03,1.45-.14,2.15-.17.7-.42,1.47-.83,2.25-.65,1.23-1.36,2.57-2.09,3.94.21-.49.42-.99.64-1.5.38-.81.77-1.64,1.16-2.5.49-1.1.8-2.17.85-3.25.05-1.11-.29-2.33-.94-3.3-.32-.49-.72-.88-1.16-1.28-.44-.4-.96-.77-1.51-1.12-.97-.59-1.96-1.2-2.95-1.8-.37-.22-.74-.44-1.1-.66l-.56-.33-.21-.12-.14-.08c-.36-.21-.77-.39-1.09-.69-.67-.59-.96-1.6-.7-2.51.12-.45.4-.87.76-1.19.18-.16.38-.3.58-.44l.76-.53c.81-.55,1.63-1.11,2.44-1.67,1.13-.77,2.36-1.51,3.25-2.41.91-.81,1.56-2.07,1.59-3.38.03-.65-.11-1.26-.31-1.85-.2-.6-.46-1.22-.78-1.82-.95-1.77-1.9-3.54-2.84-5.3-.21-.39-.45-.78-.56-1.22-.11-.43-.11-.9-.01-1.33.2-.87.8-1.64,1.6-2.03.39-.21.83-.29,1.27-.34.54-.07,1.08-.13,1.62-.2,1.63-.19,3.23-.38,4.8-.56.76-.09,1.46-.25,2.11-.44.64-.18,1.26-.52,1.76-1,.51-.47.89-1.07,1.1-1.7.22-.63.23-1.26.28-1.93.03-.67-.01-1.36-.04-2.02-.03-.62-.06-1.23-.09-1.83-.06-.97-.12-1.91-.17-2.82-.02-.27-.04-.54-.06-.83-.04-.49-.09-1,0-1.5.09-.5.3-.98.6-1.4.6-.84,1.57-1.42,2.63-1.52.53-.07,1.07.04,1.58.18.61.16,1.22.32,1.83.49,1.55.43,3.11.86,4.68,1.29.66.19,1.32.32,1.96.42.63.11,1.31.06,1.93-.19.62-.24,1.18-.66,1.57-1.2.38-.54.59-1.15.85-1.78.25-.64.45-1.31.68-1.96l.59-1.77c.35-1.05.7-2.1,1.05-3.15.18-.55.36-1.11.69-1.59.32-.49.75-.9,1.26-1.2,1-.61,2.27-.79,3.42-.45.58.16,1.1.47,1.58.83l1.67,1.16c1.28.89,2.56,1.78,3.84,2.68.54.38,1.1.73,1.64,1.04.54.32,1.18.5,1.83.46.65-.03,1.29-.25,1.81-.64.51-.39.88-.91,1.31-1.41,1.45-1.91,2.91-3.84,4.38-5.77.47-.68,1.04-1.33,1.79-1.71.73-.41,1.59-.57,2.43-.51.84.05,1.66.38,2.33.89.69.52,1.11,1.25,1.67,1.93,1.03,1.28,2.06,2.56,3.09,3.85.56.71,1.12,1.39,1.7,2.02.56.64,1.43,1.04,2.31,1.02.44,0,.88-.1,1.27-.29.39-.2.73-.46,1.1-.7.73-.5,1.44-1.05,2.15-1.57,1.3-.97,2.6-1.94,3.91-2.92.53-.4,1.08-.81,1.71-1.05.63-.25,1.31-.37,1.99-.33,1.36.06,2.7.69,3.58,1.76.45.53.74,1.17.96,1.83l.75,2c.51,1.36,1.02,2.73,1.53,4.1.22.58.44,1.17.66,1.76.23.58.71,1.06,1.29,1.32-.57-.24-1.05-.71-1.29-1.29-.23-.59-.45-1.17-.68-1.77-.5-1.32-1.01-2.65-1.51-3.98-.25-.65-.5-1.31-.75-1.96-.23-.64-.49-1.28-.91-1.81-.83-1.08-2.15-1.77-3.51-1.84-.68-.04-1.37.06-2.01.3-.65.23-1.21.64-1.75,1.05-1.18.88-2.37,1.76-3.57,2.65-.67.49-1.35.99-2.02,1.49-.34.24-.69.48-1.04.71-.34.23-.71.43-1.12.53-.82.21-1.73.05-2.43-.41-.36-.23-.64-.54-.91-.85-.28-.32-.56-.64-.84-.99-1.03-1.3-2.07-2.6-3.11-3.92.98,1.28,1.95,2.56,2.93,3.84.55.68,1.06,1.37,1.69,1.91.67.52,1.56.77,2.41.65.87-.1,1.54-.64,2.28-1.1.73-.49,1.45-1.02,2.17-1.52,1.24-.88,2.49-1.76,3.75-2.65.95-.75,2.13-1.28,3.37-1.16,1.22.09,2.4.68,3.16,1.66.39.48.63,1.06.82,1.64l.66,1.9c.51,1.45,1.01,2.91,1.52,4.37.23.65.48,1.27.75,1.87.26.6.74,1.12,1.34,1.45.59.33,1.29.47,1.95.4.65-.1,1.31-.27,1.98-.46,2.13-.67,4.24-1.33,6.32-1.99.59-.19,1.2-.39,1.83-.41.63-.03,1.26.08,1.84.32,1.16.47,2.11,1.45,2.52,2.64.22.59.26,1.23.23,1.86l-.04,2-.1,4.52c-.01.61,0,1.21.02,1.8,0,.58.18,1.18.53,1.67.34.49.83.88,1.38,1.1.55.22,1.15.24,1.74.34,2.24.22,4.49.43,6.74.65.82.07,1.68.14,2.43.52.75.37,1.4.96,1.84,1.67.46.71.69,1.56.67,2.41,0,.86-.32,1.68-.73,2.43-.93,1.9-1.86,3.79-2.69,5.48-.35.75-.7,1.43-.9,2.1-.16.69,0,1.38.3,1.89.53.83,1.57,1.15,2.36,1.56.8.36,1.57.72,2.31,1.06-.62-.4-1.25-.8-1.87-1.2l-.93-.59c-.31-.19-.63-.39-.86-.68-.48-.56-.66-1.34-.48-2.04.22-.68.6-1.28.88-1.92.82-1.68,1.59-3.26,2.31-4.73-.24.54-.14.52-.09.55.53-1.11,1.2-2.1,1.36-3.22.19-1.11,0-2.23-.48-3.18-.47-.96-1.23-1.74-2.15-2.25-.45-.27-.96-.43-1.47-.56-.52-.09-1.05-.14-1.6-.19-1.97-.18-4.06-.38-6.39-.59,2.02.1,4.07.21,6.44.38.73.07,1.48.08,2.18.33.71.23,1.38.61,1.95,1.11,1.16.99,1.87,2.53,1.86,4.11.06,1.61-.9,3.06-1.58,4.48-.64,1.27-1.29,2.56-1.95,3.85l-.55,1.08c-.19.36-.37.74-.37,1.15-.05.82.43,1.63,1.14,2.03,1.45.94,2.91,1.88,4.37,2.83.6.25,1.15.47,1.64.65-1.66-1.1-3.33-2.2-5-3.3-.36-.25-.75-.45-1.07-.76-.31-.31-.51-.72-.57-1.16-.06-.43.04-.88.25-1.26l.6-1.17,1.85-3.58.55-1.07.57-1.15c.35-.77.6-1.58.63-2.43.1-1.68-.6-3.38-1.79-4.56-.6-.59-1.31-1.06-2.09-1.38-.79-.31-1.63-.4-2.48-.5l-6.29-.59c-.45-.06-.91-.04-1.35-.18-.43-.14-.82-.43-1.07-.8-.26-.37-.38-.83-.36-1.29l.02-1.36.07-4.05.03-2.37c0-.82-.08-1.65-.39-2.41-.58-1.53-1.82-2.77-3.33-3.39-.75-.31-1.56-.47-2.37-.44-.81.01-1.6.23-2.38.48-2.13.68-4.25,1.35-6.37,2.02-.49.14-.96.35-1.46.4-.51.05-1.02-.08-1.45-.35-.43-.27-.75-.69-.91-1.16l-.53-1.42c-.34-.91-.67-1.81-1.01-2.7-.42-1.1-.84-2.21-1.27-3.32-.21-.58-.47-1.14-.82-1.65Zm18.92,89.56c-.02.12-.04.24-.06.37l-.06-.77-.06-1c-.04-.67-.08-1.33-.12-1.98.14.94.26,2.16.29,3.38Zm-17.83,3.92c.38-.76.95-1.45,1.73-1.93.76-.48,1.68-.74,2.54-.73.85.03,1.75.16,2.68.42,1.68.48,3.37.96,5.04,1.44.53.15,1.06.3,1.59.44.39.11.78.18,1.18.14.79-.07,1.51-.51,1.97-1.12.23-.31.38-.66.47-1.02.08-.37.05-.74.04-1.11-.05-2.19-.1-4.26-.14-6.24.02,0,.05.07.08.16.08,2.03.16,4.07.24,6.1.1.84-.04,1.75-.61,2.41-.54.67-1.38,1.07-2.22,1.07-.42,0-.84-.1-1.24-.22-.57-.17-1.15-.33-1.71-.49-1.6-.47-3.16-.93-4.69-1.38-.97-.28-1.89-.43-2.76-.46-.89,0-1.8.27-2.54.76-.77.49-1.27,1.18-1.65,1.9-.42.73-.74,1.57-1.03,2.39.29-.89.62-1.79,1.05-2.54Zm-26.74,9.56s.03,0,.05.01l-.15.15c.04-.06.07-.11.11-.16Zm-54.76-25.06c.68.02,1.4.09,2.1.22.69.1,1.41.37,2.03.89.61.5,1.11,1.22,1.33,2.01.19.78.29,1.65.3,2.61,0,2.09-.02,4.32-.03,6.64v.79c0,.25.02.3.03.46.06.27.12.53.25.77.25.48.67.9,1.18,1.14.51.26,1.07.32,1.61.22l.69-.18,1.02-.23c.68-.16,1.37-.31,2.05-.47,1.38-.31,2.74-.62,4.09-.93.68-.15,1.36-.31,2.03-.46l1.01-.23c.33-.07.7-.19.94-.16.28,0,.59.04.91.1.15.04.35.06.47.13l.18.27c.24.36.49.71.74,1.05l-1.07,5.7c-.4,1.93-.83,3.92-1.31,5.9l-.46,1.81c-.14.55-.28,1.1-.43,1.64-.3,1.1-.6,2.19-.93,3.28-.63,2.18-1.35,4.35-2.09,6.52-.39,1.08-.76,2.16-1.18,3.23l-1.07,2.77c-.33.87-.67,1.7-1.01,2.47-.14.4-.42.73-.42,1.16,0,.42.34.81.77.93.45.15.89-.11,1.29-.29.4-.2.81-.36,1.19-.57l1.11-.62.5-.33.28-.19.69-.43c.9-.6,1.75-1.27,2.64-1.89.88-.64,1.68-1.39,2.53-2.08,2.62-2.33,5.19-5.15,7.39-8.25,2.2-3.1,4.06-6.45,5.43-9.67.58-1.39,1.14-2.78,1.62-4.16l1.82-5.24,4.79,2.56c.52.28,1.03.66,1.45,1.11.11.11.21.23.3.34l.17.22.05.07.2.27.41.53.81,1.06c.05.1.1.22.16.34l-.93-1.2-.47-.6-.23-.3-.38-.48c-.44-.51-1.01-.96-1.58-1.26l-4.73-2.52-1.74,5.14c-.59,1.75-1.32,3.51-2.14,5.22-.47,1.07-.94,2.15-1.36,3.09-.45.92-.85,1.72-1.15,2.23-2.36,4.08-6.09,8.73-10.62,12.48-.44.39-.88.8-1.38,1.18-.5.37-1.02.74-1.54,1.13-.53.38-1.06.79-1.65,1.12-.32.2-.66.39-.99.59-.5.31-1.06.53-1.6.82-.57.25-1.15.5-1.73.76-.48.19-1.24.19-1.38.34-.37-.31-.55-.82-.46-1.25.11-.43.36-.76.51-1.12.33-.7.59-1.38.86-2.12.16-.43.32-.87.48-1.31.32-.85.65-1.72,1-2.61.67-1.79,1.36-3.7,2.13-5.84-.49,1.21-.99,2.41-1.51,3.6.87-2.45,1.55-4.61,2.21-6.95.34-1.16.67-2.38,1.01-3.68.17-.65.35-1.33.53-2.05.11-.41.22-.84.33-1.27.12-.52.25-1.05.38-1.59.9-3.55,1.42-6.53,1.9-9.23-.19-.35-.37-.69-.54-1.03l-.12-.26-.06-.13s-.14-.04-.21-.06c-.29-.07-.57-.11-.83-.12-.28,0-.47-.02-.77.06l-.86.21c-.57.13-1.14.26-1.7.39-2.36.55-4.71,1.1-7.05,1.65l-.44.1c-.14.03-.28.07-.52.13-.14.03-.28.09-.42.09-.28.05-.57.04-.85,0-.57-.06-1.11-.33-1.55-.69-.45-.36-.75-.86-.92-1.39-.09-.26-.11-.55-.13-.82,0-.47.01-.93.02-1.39.03-2.07.06-4.1.08-6.09.01-.73-.05-1.42-.14-2.07-.07-.64-.32-1.29-.73-1.82-.4-.54-.94-.97-1.53-1.24-.59-.27-1.21-.34-1.86-.46-.65-.1-1.33-.13-1.98-.19-.6-.04-1.2-.08-1.79-.12-.98-.05-1.95-.11-2.89-.16,1.21-.08,3.58.16,5.49.25Zm-6.72,2.76c1.86.17,3.86.36,5.95.55.42.05.84.06,1.26.14.42.09.81.33,1.08.67.62.7.36,1.69.39,2.56-.03,1.04-.06,2.1-.08,3.17-.02.6-.03,1.21-.05,1.82l-.02.91c0,.31-.03.58,0,1.01.04,1.59.75,3.17,1.88,4.28,1.11,1.14,2.64,1.83,4.22,1.95.78.05,1.62-.04,2.3-.24l1.3-.4c.89-.28,1.78-.55,2.66-.83.89-.28,1.77-.55,2.63-.83.22-.06.45-.09.68-.07.11,0,.22.03.33.06.08.05-.01.2-.01.29-.08.42-.16.84-.24,1.26-.66,3.41-1.29,6.21-2.18,9.79-.8,3.25-1.47,5.83-1.76,7.47-.95,1.44-.5-.61.45-4.38.23-.94.5-1.99.78-3.12.14-.57.28-1.15.43-1.75.14-.58.27-1.18.42-1.79.4-1.87.78-3.76,1.09-5.58.06-.45.21-.95.19-1.33-.49-.14-.98.05-1.43.21-.89.29-1.76.58-2.58.84-.8.26-1.56.5-2.25.72l-.25.08c-.13.04,0,.01-.27.08-.35.1-.7.16-1.05.19-.69.08-1.35.04-1.95-.05-1.57-.28-3.06-1.07-4.16-2.28-1.11-1.2-1.82-2.84-1.87-4.53-.02-.48,0-.72,0-1.02l.02-.89c.01-.6.03-1.2.04-1.8.02-1.01.04-2.02.06-3.04-.04-.68.18-1.45-.26-2.05-.2-.29-.5-.52-.83-.63-.34-.11-.71-.09-1.06-.13-2.01-.17-4.03-.33-6.04-.5-1.57-.11-3.07-.54-4.33-1.43-1.23-.89-2.21-2.15-2.7-3.59-.5-1.43-.57-3.02-.13-4.48.2-.73.53-1.44.87-2.14.28-.59.57-1.18.85-1.76.52-.58.74-.66.7-.3-.02.18-.1.46-.23.85-.07.19-.16.41-.25.65-.14.31-.28.65-.45,1.02-.31.74-.71,1.57-.87,2.57-.17.99-.14,2.15.28,3.3.4,1.15,1.16,2.29,2.29,3.13,1.11.88,2.58,1.3,4.16,1.42Zm-4.73-46.67c-.4-.73-.81-1.45-1.01-2.25-.19-.8-.2-1.63-.04-2.43.32-1.6,1.33-3.04,2.73-3.89.7-.43,1.5-.68,2.32-.84l1.26-.19,1.18-.17c1.31-.19,2.64-.39,3.99-.59.46-.07.93-.15,1.41-.22.47-.1.9-.39,1.18-.8.15-.24.25-.52.29-.81.03-.29-.02-.59-.03-.88-.04-.57-.09-1.15-.13-1.73-.09-1.62-.18-3.26-.28-4.93-.03-.92-.02-1.84.22-2.73.24-.88.66-1.72,1.23-2.45,1.13-1.46,2.88-2.45,4.76-2.68.94-.13,1.9-.01,2.85.22.47.11.95.25,1.43.39l1.1.31c1.22.34,2.44.68,3.66,1.02.68.14,1.38.54,2.08.24.33-.13.63-.37.81-.68.17-.32.25-.68.37-1.01l2-5.94c.77-2.65,2.96-4.75,5.61-5.33,1.84-.45,3.86-.23,5.52.69.42.21.8.48,1.18.73.34.24.68.47,1.01.7.52.36,1.02.71,1.52,1.06.48.35.95.68,1.42,1.01.27.2.53.39.79.58.12.09.24.18.36.27.18.12.36.24.53.35-.1-.06-.21-.12-.31-.19.4.37.96.62,1.5.49.27-.05.52-.18.72-.36.19-.19.36-.41.55-.63.18-.22.37-.44.56-.67.23-.28.47-.57.71-.86.63-.8,1.29-1.63,1.98-2.51l.65-.97.32-.44.2.22c-.1.14-.21.28-.31.42-1.18,1.68-2.39,3.43-3.65,5.22-.25.33-.47.69-.75,1.01-.29.31-.69.5-1.11.55-.9.14-1.56-.59-2.27-1.04-1.03-.73-2.06-1.46-3.11-2.19l-1.96-1.39c-.75-.54-1.56-.99-2.45-1.24-1.76-.52-3.71-.3-5.31.59-.8.45-1.5,1.05-2.06,1.78-.56.72-.93,1.57-1.23,2.44-.37,1.09-.74,2.17-1.11,3.25-.28.85-.55,1.69-.83,2.53l-.41,1.29c-.16.43-.48.79-.89,1-.4.21-.88.27-1.32.16l-1.33-.36c-1.25-.35-2.5-.69-3.76-1.04l-2.32-.65c-.85-.25-1.72-.38-2.58-.3-1.73.12-3.39.98-4.48,2.33-.55.67-.96,1.45-1.18,2.29-.23.84-.23,1.71-.2,2.58.1,2.15.2,4.29.29,6.43,0,.46.08.93.03,1.4-.07.46-.31.9-.64,1.21-.7.69-1.73.57-2.62.74-2.08.27-4.15.54-6.21.81-2.32.19-4.4,1.81-5,3.98-.22.71-.32,1.57-.19,2.45.11.89.53,1.73.95,2.56.66,1.31,1.31,2.58,1.83,3.62-.69-1.22-1.36-2.42-2-3.56Z"/>
      <path class="cls-1" d="m142.82,57.59c-.18-.13-.26-.18-.4-.27l-.74-.5-1.48-.99-2.4-1.61c-.55-.41-1.31-.7-1.48-1.44-.23-.73.31-1.35.6-1.97l1.68-3.25.62-1.19c.24-.45.45-.91.66-1.37.37-.92.62-1.88.63-2.86.05-1.96-.75-3.91-2.12-5.3-.68-.7-1.5-1.26-2.4-1.66-.91-.39-1.88-.55-2.89-.67l-5.96-.56c-.33-.04-.67-.03-.99-.13-.32-.1-.6-.32-.79-.59-.42-.57-.21-1.3-.25-1.95l.08-3.65.03-1.16c.01-.5.03-1,.02-1.49,0-.98-.15-1.95-.53-2.84-.72-1.79-2.16-3.27-3.92-4.03-.88-.39-1.84-.61-2.8-.62-.97-.02-1.92.17-2.87.45l-4.63,1.39-1.37.4c-.45.12-.91.33-1.38.22-.12,0-.24-.03-.35-.06-.37-.1-.71-.35-.91-.71-.17-.36-.33-.76-.51-1.17-.16-.4-.33-.81-.5-1.22-.24-.62-.48-1.25-.72-1.89-.26-.7-.53-1.41-.8-2.13-.34-.87-.65-1.76-1.23-2.5-1.1-1.51-2.87-2.57-4.79-2.8-1.93-.27-3.92.35-5.49,1.58-1.31.95-2.62,1.91-3.93,2.86l-1.34,1c-.46.31-.87.75-1.43.85-.55.12-1.14-.02-1.57-.36-.41-.36-.7-.82-1.06-1.23-.83-1.01-1.65-2.01-2.43-2.97l-1.08-1.3c-.43-.51-.83-1.04-1.3-1.48-.91-.92-2.13-1.5-3.38-1.72-1.26-.21-2.57-.04-3.72.5-1.17.52-2.07,1.45-2.78,2.49l-3.94,5.52c-.31.41-.57.87-.94,1.23-.38.35-.89.57-1.4.61-1.09.12-1.87-.74-2.75-1.25l-4.48-2.97c-.82-.52-1.59-1.13-2.5-1.46-.9-.33-1.89-.39-2.82-.22.95-.13,1.94-.04,2.82.33.89.36,1.63,1,2.41,1.52,1.49,1.05,2.97,2.1,4.45,3.14l1.38.97c.45.33,1.02.5,1.57.47.56-.03,1.1-.25,1.53-.62.41-.38.7-.87,1.05-1.3,1.38-1.83,2.76-3.66,4.14-5.48.39-.49.74-1.02,1.23-1.41.48-.4,1.01-.74,1.61-.95,1.17-.44,2.49-.45,3.68-.06.59.21,1.14.51,1.64.9.49.4.88.89,1.26,1.39l2.21,2.89,2.11,2.77c.36.44.64.96,1.11,1.3.46.35,1.04.52,1.61.5.58,0,1.12-.29,1.57-.64l1.41-.99c.98-.68,1.95-1.36,2.93-2.04.64-.47,1.28-.95,1.93-1.43.96-.76,2.09-1.39,3.35-1.47,1.24-.12,2.52.2,3.57.88,1.07.68,1.84,1.76,2.24,2.97.43,1.14.85,2.29,1.28,3.44.35.9.69,1.79,1.03,2.68l.39,1.01c.13.33.24.68.46.96.42.58,1.15.91,1.86.88.36,0,.71-.12,1.04-.24l1.01-.35,2.05-.7c1.26-.41,2.52-.82,3.84-1.25.78-.24,1.57-.47,2.38-.49.82-.03,1.64.12,2.41.42,1.54.59,2.85,1.82,3.5,3.39.33.78.46,1.63.47,2.49.01.85-.02,1.79-.03,2.46-.02,1.35-.05,2.7-.07,4.06l-.02,1.28c-.03.43.09.86.33,1.22.24.36.6.63,1.01.77.41.14.85.12,1.28.18,2.08.2,4.16.39,6.26.59.88.1,1.74.2,2.55.53.8.33,1.54.81,2.15,1.42,1.22,1.22,1.94,2.95,1.85,4.69-.03.87-.28,1.71-.63,2.51-.19.4-.38.8-.59,1.19l-.56,1.09c-.6,1.17-1.2,2.35-1.79,3.52l-.62,1.23c-.2.41-.24.9-.1,1.34.26.95,1.27,1.29,1.98,1.81.9.58,1.79,1.15,2.68,1.72l1.49.96c.51.33.94.57,1.6,1.09.79.35,1.16.27.49-.74l-.51-.4Z"/>
      <path class="cls-1" d="m8.9,63.05c.15-.36.46-.6.78-.81l.29-.2.78-.52,1.56-1.05,2.59-1.73c.86-.61,1.55-1.29,2.1-2.01.83-1.12,1.28-2.66,1.16-4.05-.06-.69-.22-1.32-.46-2.01-.24-.68-.6-1.36-.95-2.02-.55-1.04-1.1-2.06-1.64-3.06-.21-.39-.42-.77-.62-1.15l-.15-.28-.06-.1-.12-.2c-.31-.45-.53-1.01-.41-1.57.1-.55.45-1.05.94-1.32.24-.15.52-.21.8-.25.33-.05.37-.07,1.27-.18,1.76-.21,3.51-.42,5.25-.63.71-.08,1.37-.25,1.99-.45.6-.2,1.17-.45,1.7-.83,1.06-.75,1.87-1.95,2.14-3.15.13-.6.23-1.24.25-1.92.02-.68-.03-1.39-.06-2.08l-.15-3.18.09,3.16c.01.69.05,1.38.03,2.06-.03.68-.13,1.3-.26,1.9-.27,1.19-1.08,2.37-2.14,3.09-.54.37-1.1.61-1.7.79-.61.18-1.27.33-1.97.4-1.74.18-3.47.36-5.22.54l-1.35.14c-.33.03-.66.09-.95.25-.6.29-1.04.85-1.21,1.49-.19.65.02,1.33.35,1.89l.04.07c.47.88.94,1.74,1.4,2.59.37.68.73,1.36,1.09,2.03.42.77.84,1.55,1.1,2.31.26.76.45,1.48.44,2.29,0,.8-.2,1.6-.53,2.31-.33.73-.8,1.29-1.35,1.84-.54.56-1.22,1.07-1.92,1.54-.64.45-1.29.9-1.93,1.34l-1.28.92c-.38.28-.99.71-1.01.75l-.4.36c-.53.47-.64,1.26-.35,1.84-.12-.35-.11-.75.04-1.1Z"/>
      <path class="cls-1" d="m28.3,24.25c.43-.54,1.1-.89,1.8-.91.35-.02.69.05,1.03.16l1.55.45c1.68.49,3.36.98,5.03,1.47,1.7.44,3.19.65,4.74.02.75-.31,1.42-.81,1.93-1.4.48-.6.85-1.26,1.19-2.03.33-.77.58-1.6.87-2.41l.66-1.92c.32-.96.65-1.91.97-2.87.17-.62.48-1.23,1.01-1.62.52-.38,1.18-.59,1.83-.53.42.02.84.15,1.2.37.19.1.36.23.54.35l.83.56,4.7,3.24c1.42.92,2.72,1.62,4.35,1.49.79-.07,1.56-.32,2.21-.74.63-.42,1.15-.95,1.7-1.56.53-.62,1.01-1.31,1.51-1.97l1.19-1.62,1.87-2.55c.22-.31.44-.63.73-.88.29-.25.63-.44,1-.57.73-.26,1.57-.21,2.28.1.75.31,1.21.97,1.72,1.61l2.44,3.09c1.1,1.39,2.16,2.9,3.44,3.8.67.45,1.51.72,2.35.73.85.03,1.64-.24,2.34-.63.72-.37,1.45-.88,2.15-1.4l1.91-1.41,2.94-2.19c.55-.45,1.19-.84,1.91-.97.71-.12,1.48-.04,2.14.27.68.29,1.24.82,1.61,1.46.18.32.31.68.44,1.03l.49,1.29c.59,1.6,1.18,3.2,1.77,4.78.22.6.48,1.16.74,1.68.25.52.59,1.01,1.06,1.39-.47-.39-.8-.89-1.04-1.42-.26-.53-.5-1.09-.71-1.69l-1.57-4.52-.63-1.8c-.16-.51-.37-1.01-.7-1.44-.65-.86-1.68-1.39-2.76-1.47-1.09-.1-2.14.35-2.97,1.01l-3.07,2.17-1.87,1.32c-.66.48-1.35.93-2.02,1.3-1.26.85-3.17.76-4.36-.23-1.12-.97-2.08-2.37-3.07-3.65-.79-1.03-1.57-2.06-2.36-3.09-.3-.38-.57-.79-.9-1.15-.33-.35-.73-.64-1.17-.85-.88-.4-1.91-.47-2.83-.17-.46.15-.89.38-1.26.69-.37.31-.65.7-.94,1.08-.67.88-1.33,1.76-2,2.64-.62.81-1.61,2.17-2.49,3.25-.47.54-.9,1.06-1.46,1.45-.56.39-1.26.62-1.95.66-.7.05-1.39-.12-1.98-.44-.59-.3-1.2-.66-1.79-1.08-1.33-.93-2.66-1.86-3.98-2.79l-1.59-1.1c-.43-.31-.88-.59-1.39-.73-1.01-.3-2.12-.14-3.01.39-.92.52-1.46,1.48-1.71,2.46-.35,1.03-.69,2.06-1.03,3.08l-.62,1.84c-.24.7-.46,1.43-.74,2.11-.29.67-.55,1.3-.97,1.85-.43.55-1.03.99-1.69,1.25-.66.26-1.38.34-2.04.24-.67-.08-1.38-.21-2.09-.41-1.62-.45-3.24-.9-4.84-1.35-.57-.15-1.15-.31-1.72-.46-.46-.12-.93-.21-1.39-.15-.93.09-1.78.61-2.3,1.34-.26.37-.44.79-.52,1.23-.08.44-.03.88,0,1.31.11,1.87.21,3.65.31,5.42.04.68.08,1.43.05,2.14.04-.6.05-1.22.02-1.84-.02-.79-.04-1.59-.07-2.38-.03-1.12-.07-2.22-.1-3.32-.08-.83.05-1.73.61-2.38.53-.66,1.35-1.07,2.19-1.1.42-.02.84.07,1.24.2l1.66.48c1.62.47,3.23.94,4.84,1.41,1.58.41,3,.7,4.47.1.71-.29,1.34-.77,1.8-1.34.44-.58.75-1.23,1.07-1.95.3-.72.54-1.5.81-2.25l.63-1.85c.33-.98.67-1.96,1-2.93.26-1.19,1.19-2.22,2.4-2.48.59-.15,1.22-.11,1.79.09.6.19,1.03.58,1.59.95-.57-.36-1-.74-1.6-.92-.57-.18-1.2-.21-1.78-.05-1.19.27-2.07,1.32-2.3,2.46l-.97,2.96-.63,1.89c-.27.77-.5,1.57-.81,2.3-.32.74-.65,1.39-1.1,1.98-.47.58-1.12,1.06-1.83,1.36-1.48.61-2.92.36-4.53-.04l-5.42-1.51-.89-.24c-.21-.05-.41-.11-.61-.15-.41-.09-.83-.08-1.23.03-.65.18-1.2.63-1.52,1.19-.34.57-.37,1.24-.28,1.85.03.21.08,1.3.12,2.08-.02-.7-.04-1.39-.07-2.07-.07-.68.03-1.41.49-1.95Z"/>
      <path class="cls-1" d="m89.99,12.92l3.24-2.42.16-.12-.16.11-1.96,1.36c-1.41,1.05-2.82,2.09-4.21,3.13.99-.69,1.96-1.38,2.94-2.07Z"/>
      <path class="cls-1" d="m43.15,12.36c-.56,1.73-1.13,3.51-1.71,5.33-.21.6-.34,1.26-.64,1.85-.35.57-1.06.88-1.72.75.65.13,1.36-.15,1.73-.71.19-.27.26-.61.37-.91l.31-.93c.61-1.8,1.21-3.58,1.79-5.32.34-1.01.79-1.96,1.45-2.75.65-.79,1.47-1.44,2.38-1.89,1.81-.91,3.95-1.02,5.8-.39.94.29,1.75.85,2.57,1.4.64.43,1.26.85,1.88,1.26.57.38,1.14.76,1.69,1.12.35.22.7.44,1.04.65.22.13.41.25.61.37l-.22-.17c-.12-.08-.24-.16-.37-.25-1.34-.92-2.7-1.86-4.06-2.8-1.1-.78-2.2-1.56-3.48-1.9-1.26-.36-2.61-.41-3.89-.11-2.53.61-4.72,2.6-5.51,5.38Z"/>
      <path class="cls-1" d="m31.92,15.35l4.57,1.13c-.61-.18-1.52-.45-2.43-.73-.39-.12-.78-.23-1.16-.35-.4-.13-.8-.2-1.17-.3-.38-.11-.74-.13-1.07-.17-.33-.05-.64-.07-.92-.07-1.33.03-2.61.32-3.8.84,1.87-.71,3.97-.87,5.98-.35Z"/>
      <path class="cls-1" d="m9.71,76.51c.19-.48.56-.92.45-1.46-.05-.26-.19-.5-.38-.67-.2-.17-.45-.29-.67-.43l-.67-.41-1.14-.71-1.41-.89-.98-.62c-.37-.23-.72-.47-1.06-.72-.2-.14-.39-.27-.57-.43-.72-.62-1.39-1.32-1.88-2.12-.48-.81-.85-1.69-1.06-2.6-.4-1.83-.18-3.8.65-5.48.78-1.73,2.24-3,3.89-4.06,1.08-.73,2.14-1.45,3.2-2.17.41-.3.82-.57,1.18-.88.35-.35.33-.95.03-1.33l-.35-.61c-.14-.24-.15-.24-.5-.9-.65-1.21-1.29-2.41-1.93-3.59-.57-1.12-.98-2.24-1.14-3.42-.16-1.18-.05-2.37.26-3.5.62-2.26,2.18-4.19,4.17-5.35.99-.59,2.1-.96,3.26-1.15.58-.1,1.18-.17,1.77-.23.41-.05.83-.1,1.24-.14.71-.08,1.4-.17,2.1-.25.45-.05.42-.06.56-.08l.32-.05c.35-.07.74-.04.98-.33.27-.27.19-.67.16-.99-.03-.41-.05-.34-.11-1.76-.05-1.29-.11-2.56-.16-3.82-.02-1.27.12-2.45.47-3.55.36-1.1.92-2.1,1.61-2.98.99-1.36,2.37-2.42,3.92-3.11-1.9.73-3.57,2.05-4.68,3.75-1.15,1.7-1.68,3.73-1.63,5.85.04,1.34.07,2.68.11,4.01l.06,1.52c.02.25.04.55-.17.73-.19.2-.48.16-.73.22l-.27.04-.13.02-.52.06c-.74.09-1.48.17-2.21.26l-1.54.18c-.64.06-1.26.18-1.88.29-1.19.3-2.33.77-3.31,1.45-1.99,1.34-3.39,3.43-3.89,5.71-.25,1.14-.29,2.31-.12,3.46.17,1.15.62,2.23,1.16,3.3.88,1.63,1.18,2.13,1.64,2.95.83,1.5.92,1.47,1.34,2.08.2.24.3.57.23.85-.06.29-.28.48-.49.6-.62.42-1.24.84-1.85,1.26l-1.73,1.16c-.88.59-1.79,1.16-2.52,1.86-1.49,1.37-2.46,3.24-2.7,5.2-.28,1.96.2,3.98,1.23,5.63.5.85,1.22,1.54,1.96,2.18.4.3.81.59,1.24.87l1.23.78,1.65,1.03.79.49.38.22.78.45c.27.14.53.34.66.62.13.27.16.6.05.88l-.37.83-.34.76-.75,1.54c.25-.5.5-1.01.75-1.52.12-.25.24-.5.37-.77Z"/>
    </g>
  </g>
</svg>