<?xml version="1.0" encoding="UTF-8"?>
<svg id="Layer_2" data-name="Layer 2" xmlns="http://www.w3.org/2000/svg" viewBox="0 0 145.36 147.66">
  <defs>
    <style>
      .cls-1 {
        fill: #1d1d1d;
      }
    </style>
  </defs>
  <g id="Layer_1-2" data-name="Layer 1">
    <g>
      <path class="cls-1" d="m140.44,71.88c-.05.62-.1,1.17-.15,1.69.13-.88.24-1.71.24-1.71-.03,0-.06.01-.1.02Z"/>
      <path class="cls-1" d="m141.18,75.45c.04-.18.07-.36.11-.55-.04.06-.06.06-.1.09,0,.14,0,.29-.01.45Z"/>
      <path class="cls-1" d="m139.16,76.41c.13-.23.3-.68.54-1.42.23-.73.44-1.75.74-3.11-.37.09-.83.74-1.07-.15.06-.93.28-2.78.27-3.72-.17-.94-.39-.01-.59-.02.03-.92.05-1.84-.04-1.84-.13-.34-.23-.2-.32.19-.1.39-.17,1.08-.23,1.96.26.99.33,2.38.4,3.74,0,1.35.01,2.69-.03,3.55-.01.87.06,1.29.32.83Z"/>
      <path class="cls-1" d="m140.28,73.74c-.24,2.6-.44,4.19-.55,5.8.47-1.64.8-3.3,1.11-4.97-.14-.56-.26-1.3-.56-.83Z"/>
      <path class="cls-1" d="m142.32,64.41c-.25-9.66-3.73-19.04-8.29-25.4.36.59.7,1.16,1.03,1.71.31.57.6,1.11.89,1.65.61,1.06,1.07,2.12,1.58,3.16.5,1.04.9,2.12,1.36,3.22.37,1.13.84,2.28,1.17,3.57.06-.01.11.06.26.94-.09-.33-.17-.63-.26-.94-.06,0-.12.08-.27-.34,1.07,3.22,1.91,7.14,2.16,11.01.13.49.25.97.36,1.42Z"/>
      <path class="cls-1" d="m142.96,66.14c.06-.89.03-.99-.03-.99.01.34.02.66.03.99Z"/>
      <path class="cls-1" d="m22.15,28.92c-3.38,3.41-6.32,7.26-8.76,11.42-1.43,2.51-2.53,5.01-3.34,7.49-.86,2.47-1.4,4.95-1.82,7.43,1.06-5.24,3.02-10.39,5.57-14.87,2.51-4.52,5.53-8.38,8.34-11.47Z"/>
      <path class="cls-1" d="m9.7,78.21c.19.47.39.97.58,1.43-1.73-6.61-2.34-12.26-2.18-17.69-.43,5.51.15,11.03,1.6,16.26Z"/>
      <path class="cls-1" d="m7.7,67.74c-.15-1.48-.11-2.91-.14-4.32.07-2.81.24-5.5.68-8.16-.62,2.96-.85,5.95-.89,8.82,0,.72.02,1.43.03,2.14.06.7.12,1.4.18,2.09.07.69.11,1.37.2,2.03.12.66.24,1.31.36,1.96-.09-.79-.22-1.56-.29-2.31-.05-.76-.09-1.51-.13-2.25Z"/>
      <path class="cls-1" d="m92.76,3.13c1.5.38,3.01.74,4.48,1.21,1.49.42,2.95.93,4.41,1.43,2.31.69,4.16,1.3,5.59,1.88.72.28,1.35.53,1.89.75.53.24.98.45,1.36.63.72.22,1.69.47,2.95.94-.25-.14-.52-.28-.76-.42-4.54-2.21-9.33-3.98-14.27-5.34-1.02-.23-2.02-.47-2.97-.65-.96-.16-1.86-.31-2.69-.43Z"/>
      <path class="cls-1" d="m110.5,9.02c-6.16-1.73,5.89,2.77,0,0h0Z"/>
      <path class="cls-1" d="m77.36,6.86c.91.04,1.78.07,2.67.11-.23-.01-.46-.03-.68-.04-.66-.02-1.34-.04-1.99-.06Z"/>
      <path class="cls-1" d="m26.18,19.32c3.23-2.5,6.66-4.74,10.19-6.69-3.84,2.04-7.47,4.49-10.72,7.1.18-.14.35-.28.53-.41Z"/>
      <path class="cls-1" d="m22.74,22.25c.49-.44.99-.9,1.52-1.37-2.38,2.03-4.52,4.13-6.32,6.23.69-.77,1.52-1.4,2.24-2.13.65-.81,1.57-1.71,2.57-2.73Z"/>
      <path class="cls-1" d="m18.33,23.09c-4.49,4.58-9.13,10.57-11.98,16.38.68-.85-.85,1.98-.71,2.05C3.22,47.44.9,54.64.42,62.13c-.1,1.06-.16,1.06-.28,2.15.33,5.09,1.02,10.96,2.82,16.93,1.76,5.97,4.58,12,8.26,17.33,1.87,2.7,4.01,5.23,6.29,7.71-2.23-2.36-4.4-4.92-6.29-7.71-3.72-5.31-6.72-11.05-8.63-17.17,1.01,3.37,2.27,6.63,3.9,9.67,2.03,3.91,4.39,7.62,7.19,10.94l1.02,1.27c.35.41.73.8,1.1,1.2l2.21,2.38c1.59,1.47,3.1,3.02,4.81,4.35,3.29,2.81,6.93,5.21,10.71,7.38.92.49,1.83.99,2.74,1.48l.34.18.17.09.12.05.46.21.92.42.93.42.46.21v.44c.02.6.04,1.2.05,1.79.07,3.88.14,7.7.21,11.5.02.96.04,1.92.06,2.87,0,.82.05,2.25.42,3.42.39,1.2,1.03,2.3,1.86,3.23.85.9,1.88,1.61,2.99,2.09,2.23.95,4.91.92,7.06-.2.55-.26,1.03-.6,1.5-.96.45-.35.74-.62,1.12-.94l2.15-1.84c4.68-4,9.48-7.87,14.28-11.7-.36.38-.72.75-1.06,1.11,1.45-1.16,2.89-2.32,4.33-3.47l.78-.63.1-.08s.08,0,.12,0h.25s.5-.03.5-.03l1.18-.04c.48-.02.96-.03,1.44-.08,3.85-.24,7.7-.84,11.58-1.71.7-.17,1.41-.31,2.11-.5,7.96-2.07,15.03-5.13,21.57-9.11,6.51-4.01,12.51-9.01,17.78-15.52,2.58-3.2,4.75-6.71,6.61-10.37.66-1.39.27-1.01,0-.86-.28.15-.38.09.61-2.24-.14.24-.28.47-.41.67-1.5,3.54-3.13,6.57-3.93,7.34-.57.47.17-.82,1.13-2.83.52-.98,1.01-2.18,1.54-3.38.49-1.21.94-2.44,1.29-3.53-.02-.15-.03-.35,0-.61,0,0,.23-.6.51-1.32.03-.16.06-.3.09-.45-.2.12-.24-.12-.27-.48-.59,1.62-1.22,3.22-1.95,4.77.38-1.59.86-3.14,1.54-5.69,0,0,0,0-.01,0,.02-.06.04-.11.06-.18.14-.52.28-1.06.44-1.66h0c-.54,1.3-.92,2.29-1.27,2.98-.36.69-.61,1.11-.78,1.32-.33.42-.33-.01-.17-.88.19-.86.42-2.19.64-3.54.17-1.37.33-2.76.25-3.79-.2.91-.55,2-.82,3.25-.09-.03-.28-.08-.28-.08-1.28,3.93-2.84,7.03-4.58,9.85-1.78,2.81-3.76,5.35-6.28,8-.6.69-1.02.93-1.48,1.28-.47.34-.96.82-1.93,1.77-5.08,5.2-11.22,9.38-17.81,12.66-7.02,3.55-14.54,5.76-22.16,6.78-.95.15-1.91.25-2.86.33-.96.09-1.91.19-2.87.22l-2.77.12c-.49.04-1.01,0-1.46.11l-1.15.95-3.29,2.72c-3.18,2.63-6.36,5.26-9.56,7.91.1-.05.15-.07.15-.04-3.09,2.53-6.19,5.08-9.34,7.66-.23.14-.32.22-.45.29-.13.03-.26.12-.44.12-.35.03-.81-.16-1.05-.49-.05-.16-.17-.27-.17-.47-.06-.07,0-.21-.04-.3v-1.22c0-1.69-.01-3.38-.01-5.06,0-3.7-.02-7.38-.03-11.05v-4.56s-.01-.28-.01-.28v-.21s-.06-.03-.06-.03l-.47-.22-.95-.44-1.89-.88-3.72-1.74-2.04-1.1c-.67-.38-1.37-.71-2.02-1.12l-1.95-1.23c-1.33-.77-2.54-1.73-3.79-2.61-9.89-7.24-17.39-17.52-20.67-29.21-.33-.89-.57-1.84-.87-2.82-.13-.49-.31-.99-.41-1.5-.1-.52-.2-1.04-.3-1.58.11.73.14,1.48.29,2.23.14.75.29,1.52.44,2.3-1.29-3.51-1.97-7.97-2.05-12.82-.07-4.85.85-10.06,2.5-15.05,1.71-4.97,4.17-9.7,7.05-13.73,2.85-4.06,5.98-7.47,8.81-10.17,6.44-6.12,14.74-11.14,24.07-14.34,9.33-3.23,19.71-4.53,30.12-3.81,10.28.35,20.91,2.87,30.72,7.74-8.99-4.32-19.02-7.07-30.04-7.7,11.07.87,22.18,4.18,31.95,9.86,11.07,6.18,20.1,15.19,25.8,26.8,1.42,2.64,2.35,5.49,3.15,7.34.32.64.61,1.3.92,1.94.31.64.6,1.27.84,1.87-.88-3.92-2.36-7.8-3.94-10.95.22.4.27.32.33.3-1.12-2.53-2.35-4.56-3.62-6.58-.65-1-1.35-1.98-2.07-3.01-.78-.99-1.52-2.08-2.45-3.16,2.76,2.96,5.41,6.67,7.59,10.89,2.16,4.23,3.8,8.99,4.77,13.89.23.48.42.93.59,1.31-.76-5.16-2.43-10.2-4.67-14.93-2.27-4.73-5.26-9.1-8.68-13.05-6.93-7.86-15.73-13.85-25.14-17.69-3.43-1.35-6.98-2.52-10.65-3.39.89.28,1.78.55,2.67.83.89.3,1.76.63,2.65.95-.96-.32-1.9-.67-2.87-.96l-2.91-.85c-.93-.23-1.86-.46-2.81-.69-3.1-.58-6.26-1.08-9.51-1.3-1.62-.17-3.27-.17-4.94-.25-1.18.01-2.37,0-3.57.02,4.98-.17,10.08.09,15.17.93-5.59-1.12-11.45-1.61-17.25-1.47-2.91.04-5.8.33-8.64.7-2.83.45-5.63.97-8.32,1.74-5.69,1.62-13.07,4.44-18.9,8.13-.11.1-.21.2-.3.3-.47.24-.91.51-1.35.78-.72.52-1.48,1.08-1.93,1.45-5.88,4.1-11.11,9.08-15.56,15.04-.36.53-.72,1.06-1.08,1.6-.55.81-1.19,1.85-1.89,2.85-.4.66-.81,1.32-1.18,1.93,1.3-2.24,2.66-4.38,4.16-6.38,2.4-3.42,4.82-6.27,7.58-8.95,2.77-2.67,5.89-5.17,9.91-7.55.49-.35.95-.68,1.3-.86l.35-.21c.46-.41,1.15-.94,2.04-1.49.9-.52,1.96-1.15,3.15-1.72,2.38-1.16,5.23-2.31,7.93-3.17-.51.07-.04-.12.55-.34.59-.22,1.32-.44,1.29-.54,2.83-1.09,5.77-1.91,8.6-2.65,2.85-.67,5.61-1.2,8.15-1.52,4.06-.52,8.18-.56,12.15-.34,3.97.22,7.8.64,11.39,1.13,1.04.1,2.55.48,4.18.86,1.62.46,3.36.94,4.84,1.42,1.28.31,2.64.74,4.02,1.21l-2.13-.88-2.16-.8c-.48-.21,5.89,1.64,11.86,4.62,2.98,1.48,5.87,3.16,7.93,4.48,2.06,1.32,3.34,2.2,3.19,1.96,0,0-.07-.06-.2-.17-.14-.1-.34-.26-.6-.45-.54-.38-1.28-.99-2.3-1.63-1.98-1.35-4.86-3.1-8.3-4.85-3.45-1.74-7.49-3.4-11.69-4.72-4.19-1.33-8.54-2.31-12.52-2.94-1.53-.38-.81-.64.58-.76,1.39-.14,3.43,0,4.5.15.23.03.51.07.76.11-2.38-.57-4.8-1.04-7.19-1.4-3.83-.42-7.71-.64-11.58-.56-6.24.1-12.51.91-18.65,2.35,1.64-.4,3.27-.86,4.93-1.17.78-.17,1.6-.37,2.44-.5,3.34-.6,7.02-.92,10.88-.98,3.86-.01,7.9.27,11.98.87,4.36.49,8.66,1.32,12.85,2.48.11.03.21.05.33.07-5.29-1.63-10.83-2.82-16.31-3.42-10.06-.77-20.39.14-30.32,2.93,1.63-.49,3.26-.98,4.92-1.38,7.09-1.94,16.13-2.59,25.4-1.55,9.59.73,18.97,3.06,27.54,6.78-5.73-2.73-12.61-5.06-18.75-6.17-12.35-2.31-24.5-1.81-35.89.87-11.37,2.74-21.98,7.74-30.99,14.95-1.06.91-2.03,1.92-3.06,2.85-.97,1-1.99,1.94-2.95,2.95Zm109.68,77.42c-.12.1-.23.19-.36.3.65-.79,1.23-1.64,1.83-2.43-.36.63-.87,1.41-1.47,2.13Zm-5.76,5.12c2.97-2.77,5.56-5.72,7.7-8.5.02.01.02.05.02.11-4.86,6.84-11.64,12.67-17.44,15.92,3.43-2.17,6.76-4.76,9.73-7.53Zm-34.73,14.87s.02.03.02.04h-.16s.09-.03.14-.04ZM11.04,89.79c.34.65.77,1.25,1.04,1.66.44.59.9,1.25,1.38,1.97.52.69,1.09,1.43,1.68,2.21.29.39.59.79.89,1.2.33.39.66.79,1.01,1.2.7.8,1.35,1.68,2.13,2.49,2.97,3.35,6.66,6.52,10.25,8.97,1.2.81,2.39,1.63,3.67,2.31,1.26.71,2.5,1.45,3.81,2.07l2.24,1.15.28.15.43.19.87.39,1.74.78,1.75.78.88.39.44.2c.04.14.02.33.03.49l.07,4.09c.09,3.73.18,7.47.27,11.24.04,1.79.08,3.59.12,5.4.07.87.36,1.45.92,1.93.55.48,1.35.71,2.01.63.33-.07.64-.14.94-.34.08-.02.14-.12.22-.16.09-.07.11-.06.34-.26l1.08-.91c4.62-3.88,9.96-8.48,14.53-12.44.77-.66,1.55-1.31,2.32-1.96.91-.74,1.81-1.48,2.71-2.22.14-.08.29-.17.45-.27-2.07,1.72-4.14,3.44-6.2,5.16-1.5,1.35-2.88,2.84-3.66,3.48-3,2.69-6.9,5.87-10.75,9.12l-.28.25c-.09.08-.21.19-.24.2-.09.07-.18.14-.27.22-.2.11-.39.24-.61.3-.42.14-.91.17-1.41.04-1.03-.26-1.88-1.09-2.12-2.09-.08-.2-.09-.43-.19-.6-.07-.29-.14-.6-.19-.58.1-3.52,0-6.29-.11-9.06-.05-1.38-.1-2.77-.15-4.25,0-.37-.02-.74-.02-1.13,0-.56-.01-1.12-.02-1.7,0-1.21,0-2.47,0-3.8l-.2,4.59c-.03-1.48-.06-2.86-.09-4.22v-.5c-.03-.16.04-.38-.17-.4l-.89-.39c-.59-.26-1.18-.51-1.78-.77-.59-.26-1.2-.52-1.82-.79-.6-.26-1.33-.57-1.7-.77-.9-.46-1.87-.96-2.95-1.52-1.67-.98-3.14-1.84-4.52-2.61-1.32-.86-2.58-1.61-3.73-2.51-7.78-5.9-13.83-13.76-17.47-20.68.3.4.66,1.04,1.01,1.68Zm2.68,10.26c4.51,5.91,10.47,11.37,16.2,14.9,1.45.85,2.79,1.74,4.14,2.4,1.32.65,2.63,1.34,3.69,1.78,1.89.87,4.36,1.06,3.97,2.53-.29,1.05-.55.42-.77-.84-.73-.27-1.69-.57-2.69-.95-.9-.27-2.35-1.02-3.79-1.71-2.9-1.41-5.97-3.35-8.68-5.29-1.37-.96-2.56-2.02-3.69-2.92-1.11-.92-2-1.85-2.77-2.55-3.66-3.66-7.26-8.04-10.23-12.94-2.99-4.89-5.32-10.3-6.8-15.68.19-1.92.81.34,2.35,4.69,1.62,4.3,4.45,10.71,9.06,16.58ZM31.91,15.01c1.34-.9,2.76-1.67,4.17-2.49,1.45-.74,2.88-1.53,4.37-2.19,2.95-1.4,6.03-2.54,9.12-3.54,1.09-.35,2.16-.76,3.24-1.05,2.35-.69,4.44-1.08,6.45-1.4.31-.05.61-.1.91-.16-.17.03-.35.07-.52.11,1.52-.19,3.01-.38,4.58-.47,1.57-.14,3.21-.19,5.02-.27.34-.06.68-.11,1.03-.15v.29c-4.62.52-9.72,1.15-14.87,2.32-5.14,1.16-10.32,2.84-14.95,5.09-6.02,2.9-11.89,6.71-17.06,11.31-5.13,4.63-9.55,10.06-12.61,15.93-1,1.77-2.44,4.46-3.26,6.31,1.27-3.33,2.75-6.31,4.43-9.18,1.69-2.87,3.59-5.65,5.97-8.37,3.78-4.46,8.54-8.66,13.98-12.11Z"/>
      <path class="cls-1" d="m66.34,5.84c1.77-.12,3.54-.28,5.31-.3,1.77-.08,3.54-.01,5.31.02,1.77.12,3.54.18,5.3.41,3.53.37,7.05,1,10.53,1.92,4.26.92,8.49,2.22,12.61,3.92,1.61.61,3.16,1.34,4.73,2.04,1.53.77,3.08,1.52,4.56,2.38,7.11,4.06,14.05,9.96,19.42,17.34,5.42,7.33,9.04,16.17,10.38,25,.36.48.66.51.87-.18-.62-4.89-1.93-9.7-3.88-14.23-1.96-4.52-4.52-8.77-7.51-12.65-5.99-7.78-13.78-13.97-22.28-18.67l-.41-.19c-3.8-1.7-8.82-3.81-14.29-5.33-5.45-1.54-11.32-2.55-16.45-2.71-10.24-.26-20.49.95-30.04,4.31,3.49-1.06,7.01-1.85,10.54-2.4,1.76-.31,3.54-.48,5.3-.69Z"/>
      <path class="cls-1" d="m12.45,43.45c-3.06,6.36-4.2,12.34-4.34,18.51.25-3.6.91-7.2,1.98-10.72,1.45-4.92,3.58-9.34,6.14-13.38,2.54-4.06,5.6-7.68,9.03-11.02-5.2,4.72-9.63,10.32-12.81,16.61Z"/>
      <path class="cls-1" d="m31.17,21.76c-2.1,1.61-4.08,3.28-5.92,5.08,7.7-7.03,17.1-12.11,27.1-15.08,16.41-5.05,34.73-4.55,51.02,1.71.92.38,1.83.76,2.74,1.13.89.42,1.78.84,2.67,1.25-14.42-7.56-31.35-9.97-46.8-7.57-7.74,1.14-15.1,3.58-21.7,6.9-6.61,3.32-12.38,7.7-17.06,12.59-.34.37-.71.77-1.07,1.16,9.02-9.2,20.72-15.53,33.17-18.64-8.73,2.29-17,6.17-24.14,11.48Z"/>
      <path class="cls-1" d="m88.66,7.1c.95.2,1.91.37,2.84.6,1.1.24,2.19.45,3.27.72-.65-.21-1.31-.35-1.96-.53-1.38-.32-2.77-.56-4.15-.79Z"/>
      <path class="cls-1" d="m48.41,7.4c3.98-1.36,7.82-2.34,11.23-3.11-.13.02-.26.03-.39.05-3.22.65-6.49,1.39-9.69,2.45-4.4,1.51-8.86,3.45-13.19,5.83,3.95-2.12,8.06-3.87,12.04-5.23Z"/>
      <path class="cls-1" d="m31.45,12.02c-.92.57-2.76,1.67-3.64,2.3-.51.42-1.01.83-1.52,1.24.84-.56,1.68-1.12,2.53-1.69.87-.63,1.76-1.24,2.64-1.86Z"/>
      <path class="cls-1" d="m.13,64.68v-.4c.11-9.5,2.66-18.7,7.01-26.66,4.33-7.99,10.3-14.82,17.2-20.34l1.94-1.72c-4.85,3.44-9.32,7.46-13,12.01-3.7,4.53-6.69,9.5-8.71,14.62-.87,1.99-1.7,5.15-2.35,7.2C.72,54.27.05,59.27,0,64.16c.01,4.89.51,9.73,1.78,14.36-1.18-4.44-1.6-9.1-1.65-13.84Z"/>
    </g>
  </g>
</svg>