<?xml version="1.0" encoding="UTF-8"?>
<svg id="Layer_2" data-name="Layer 2" xmlns="http://www.w3.org/2000/svg" viewBox="0 0 145.52 147.88">
  <defs>
    <style>
      .cls-1 {
        fill: #1d1d1d;
      }
    </style>
  </defs>
  <g id="Layer_1-2" data-name="Layer 1">
    <g>
      <path class="cls-1" d="m135.81,72.15c.48-.81.93-1.58.93-1.58-.03-.02-.07-.02-.1-.02-.3.59-.58,1.11-.84,1.61Z"/>
      <path class="cls-1" d="m135.9,74.3c.1-.16.2-.33.29-.5-.06.04-.08.04-.12.06-.05.14-.11.28-.17.44Z"/>
      <path class="cls-1" d="m136.6,66.2c-1.28,4.32-6.61,14.12.04,4.35-.38-.06-1.08.41-.91-.57.52-.87,1.55-2.62,2.07-3.5.35-.97-.34-.2-.51-.3.52-.87,1.03-1.75.95-1.8.12-.7-.59.16-1.64,1.82Z"/>
      <path class="cls-1" d="m135.72,72.32c-1.27,2.47-1.96,4.02-2.53,5.61l2.72-4.6c.09-.59.28-1.36-.19-1Z"/>
      <path class="cls-1" d="m140.7,56.81c-.32-.52-.63-1.04-.94-1.56-.63-1.04-1.25-2.06-1.87-3.08-2.48-4.05-4.89-7.88-7.18-11.25,2.93,4.96,5.09,8.28,7.92,13.04.05-.03.13.03.52.87-.18-.3-.35-.58-.52-.87-.05.02-.1.11-.36-.27.47.75.96,1.53,1.47,2.33.49.79,1.08,1.68,1.43,2.36.76,1.48,1.01,3.27.69,4.95,0,.45,0,.9-.05,1.32.75-2.06.64-4.41-.28-6.36-.21-.49-.51-.94-.84-1.49Z"/>
      <path class="cls-1" d="m141.64,66.38c.5-.71.48-.82.44-.85-.13.3-.28.56-.44.85Z"/>
      <path class="cls-1" d="m19.93,36.67c-3.05,5.33-5.5,10.14-7.98,15,5.64-10.1,11.55-20.38,15.71-28.17-2.57,4.37-5.14,8.76-7.73,13.17Z"/>
      <path class="cls-1" d="m8.61,59.11l-.07.14c-.11.19-.18.38-.26.56-.15.38-.24.77-.29,1.17-.1.8-.01,1.62.26,2.36.07.18.14.37.24.54.04.09.09.18.15.27l.21.35,1.18,1.93c.78,1.29,1.57,2.58,2.35,3.86.33.46.67.95.99,1.39-.93-1.66-1.84-3.23-2.73-4.74-.45-.75-.89-1.49-1.33-2.21-.17-.28-.34-.55-.5-.83-.1-.18-.19-.36-.27-.55-.31-.75-.44-1.56-.39-2.35.03-.4.09-.79.22-1.17.07-.19.12-.38.22-.57l.07-.15.13-.25.26-.5-.28.49-.14.25Z"/>
      <path class="cls-1" d="m8.13,63.99c-.1-.21-.19-.44-.26-.66-.15-.45-.24-.9-.27-1.36-.07-.92.07-1.83.41-2.66,1.36-2.63,2.65-5.14,3.94-7.64-.79,1.43-1.59,2.85-2.37,4.26-.39.7-.77,1.41-1.16,2.1-.45.8-.62,1.14-.77,1.6-.3.89-.36,1.84-.2,2.71.08.43.21.85.38,1.23.09.19.18.38.29.55.04.09.12.18.17.27l.24.35-.24-.42c-.07-.11-.12-.22-.17-.33Z"/>
      <path class="cls-1" d="m104.06,1.44c.57-.04,1.11-.07,1.63-.1.55-.03.89-.07,1.71-.06,1.41.01,2.66.23,3.73.53,2.16.62,3.61,1.51,4.59,2.23.93.54,2.15,1.37,3.49,2.87-.24-.35-.53-.7-.8-1.02-2.51-2.81-6.08-4.64-9.82-5.02-.89-.1-2.03-.09-2.48-.06l-1.8.06c-1.2.04-2.41.08-3.62.11-1.98.12-3.87.26-5.45.42,2.94.02,5.9.04,8.82.05Z"/>
      <path class="cls-1" d="m113.35,3.11c.25.17,1.27.68,2.21,1.31.96.62,1.82,1.38,2.07,1.52.12.07.1-.02-.18-.33-.27-.32-.79-.86-1.74-1.57-2.04-1.1-2.62-1.07-2.36-.93Z"/>
      <path class="cls-1" d="m80.67,7.21c.93-.02,1.82-.04,2.73-.07-.23,0-.47,0-.7,0-.67.02-1.36.04-2.03.07Z"/>
      <path class="cls-1" d="m28.56,12.97l1.5-2.61.19-.33.24-.38c.15-.26.33-.5.51-.74.36-.48.75-.94,1.18-1.36,1.71-1.7,3.95-2.84,6.32-3.24-2.45.38-4.75,1.58-6.46,3.32-.42.44-.83.9-1.17,1.4-.36.48-.67,1.05-.9,1.44-.49.87-.98,1.73-1.47,2.59-1.93,3.42-3.76,6.7-5.36,9.71.51-.87,1.12-1.7,1.63-2.58.86-1.85,2.24-4.57,3.8-7.2Z"/>
      <path class="cls-1" d="m144.29,55.71l-.45-.8-1.79-3.09-3.61-6.16-7.31-12.25c-4.92-8.24-9.85-16.48-14.77-24.71-.11-.14-.24-.29-.37-.42-1.7-1.87-4.28-3.48-7.35-3.91-.38-.06-.77-.09-1.16-.11-.38,0-.81-.01-1.11,0-.66.01-1.33.03-2,.04-1.35.02-2.73.05-4.13.07-5.59.09-11.43.16-16.52.4-10.16.59-20.33.78-30.49,1.27,14.69,0,28.65-.21,43.12-.03,2.2-.06,4.4-.12,6.61-.17,1.11-.03,2.21-.05,3.33-.08,1.12-.05,2.34.06,3.47.4-.94-.26-1.92-.39-2.9-.37-.93.03-1.87.06-2.81.09-1.87.06-3.76.12-5.65.17,1.87.04,3.76.07,5.66.1h-6.1c-.97,0-1.94,0-2.92,0-6.36.17-12.9.34-19.84.52,5.54-.17,11.19-.35,16.91-.53-11.5-.06-23.53-.22-34.81.11-2.99.14-6.47.24-10.08.34-1.8.05-3.64.1-5.47.15-.92.04-1.83.02-2.65.16-.84.13-1.64.39-2.38.74-.11.09-.22.18-.3.26-.45.21-.88.44-1.28.72-.65.52-1.21,1.21-1.52,1.66-.52.64-.9,1.35-1.36,2.19l-1.33,2.42c-.89,1.61-1.78,3.23-2.68,4.86-1.8,3.26-3.63,6.55-5.53,9.9-.31.58-.63,1.17-.95,1.76-.95,1.8-2.59,4.38-3.62,6.13,1.58-2.68,3.1-5.31,4.57-7.9,2.02-3.83,3.81-7.23,5.65-10.72.93-1.74,1.88-3.5,2.92-5.33.51-.89,1.06-1.91,1.61-2.75.58-.84,1.33-1.62,2.25-2.24.44-.37.9-.65,1.24-.81l.35-.17c.47-.35,1.23-.73,2.24-.96.99-.22,2.25-.2,3.59-.26,2.68-.07,5.78-.07,8.65-.07-1.02-.2,2.04-.1,2.04-.29,6.1-.38,12.19-.76,17.28-1.08,8.13-.39,16.26-.2,23.38-.78,2.04-.2,6.1-.1,9.15-.2.64-.04,1.31-.09,2-.13.34-.02.69-.04,1.04-.06l.53-.03h.65c-1.54-.06-3.08-.1-4.62-.14-.25-.02,1.23-.07,3.59-.14.15,0,.3,0,.45-.01.2,0,.4,0,.6,0,.41,0,.84.04,1.28.1.88.11,1.8.32,2.71.66,1.83.67,3.65,1.85,5.06,3.43.36.39.68.81.98,1.24l.42.63.32.51c.42.67.84,1.33,1.25,1.96.81,1.26,1.57,2.44,2.21,3.43,1.29,1.98,2.13,3.2,2.09,2.93,0,0-.04-.08-.12-.22-.08-.14-.21-.35-.37-.62-.33-.54-.8-1.33-1.4-2.31-.6-.98-1.32-2.16-2.13-3.5-.41-.67-.84-1.37-1.29-2.11-.19-.31-.53-.88-.89-1.37-.36-.49-.76-.98-1.21-1.42-1.76-1.82-4.21-3.2-6.94-3.72-.68-.12-1.38-.21-2.08-.22h-.51s-.39,0-.39,0h-.79c-1.05.02-2.11.03-3.18.05-4.26.03-8.57.06-12.48.09-3.05-.29,2.64-1.44,4.69-1.54.23-.02.48-.05.73-.07-2.33-.02-4.67-.04-6.98-.06-3.67.09-7.37.19-11.07.28-5.97.14-11.99.27-18.03.41,1.61-.09,3.24-.18,4.85-.26.77-.05,1.57-.1,2.38-.15,6.48-.35,14.03-.35,21.88-.28,4.17-.12,8.32-.24,12.42-.36.11,0,.21-.01.31-.02-5.24-.04-10.58-.08-15.79-.11-9.56.23-19.3.46-29.1.69,1.62-.09,3.23-.18,4.85-.26,6.96-.5,15.42-.5,24.25-.43,4.55-.13,9.07-.26,13.54-.39,2.23-.07,4.45-.15,6.66-.22l.83-.03h.41s.64-.01.64-.01c.89,0,1.79.11,2.67.27,1.76.34,3.47.96,5.01,1.86-2.08-1.26-4.53-2.09-7.09-2.27-.32-.03-.64-.03-.96-.04h-.67s-1.18,0-1.18,0c-.79,0-1.58,0-2.36,0-3.15.03-6.3.06-9.22.08-11.76.26-23.03.52-34.09.76-5.53.13-11.01.26-16.46.39l-2.05.05c-.52,0-1.77.03-2.74.2-2.03.33-3.98,1.08-5.68,2.21-1.7,1.12-3.16,2.6-4.24,4.31l-.38.63-.25.45-.5.89-1,1.79c-1.14,2.39-2.32,4.75-3.61,7.05-2.93,5.35-6.55,11.48-9.57,16.77.68-.78-.87,1.85-.78,1.9-2.76,5.45-6.46,11.52-10.08,17.65-.33.57-.5.85-.68,1.15-.18.3-.36.6-.64,1.26-.87,3.16-.55,6.88,1.26,10.02.76,1.21,1.54,2.45,2.34,3.71.76,1.23,1.53,2.49,2.32,3.76,3.11,5.11,6.31,10.6,9.48,16,1.64,2.72,3.28,5.48,4.91,8.3-1.6-2.71-3.25-5.5-4.91-8.3-3.74-6.21-7.5-12.19-11.28-18.16,4.51,7.38,8.91,14.57,13.29,21.72,2.17,3.59,4.34,7.18,6.51,10.77,1.08,1.8,2.17,3.61,3.25,5.42.54.91,1.09,1.81,1.63,2.72.12.21.3.49.49.78.18.28.39.55.59.82.42.52.87,1.02,1.38,1.47,2.19,2,5.11,3.13,8.01,3.14,1.52-.03,3.04-.06,4.53-.08.11,4.8.22,9.53.33,14.21.03,1.37.07,2.73.1,4.09l.02,1.02c0,.34,0,.66.06,1.13.04.43.07.86.19,1.29.1.43.21.85.39,1.25.65,1.63,1.82,3.01,3.26,3.93,1.44.92,3.15,1.38,4.85,1.31.98,0,1.93-.28,2.84-.62.43-.22.88-.42,1.28-.68.37-.27.85-.58,1.1-.82l3.55-3.03,7.17-5.96c-.36.39-.71.77-1.05,1.13,5.96-4.91,11.64-9.72,17.6-14.89.54-.47,1.08-.93,1.62-1.4,1.09-.96,2.17-1.9,3.12-2.74,3.4-.05,6.7-.1,9.97-.14,1.73-.02,3.44-.04,5.15-.05h.64s.73-.04.73-.04c.49-.04.97-.11,1.45-.2.96-.2,1.88-.53,2.75-.97,1.74-.89,3.24-2.24,4.29-3.9.89-1.5,1.77-3.02,2.67-4.55,1.78-3.03,3.6-6.12,5.49-9.32l6.11-10.55c1.46-2.67-1.62,1.4.88-3.02-.16.22-.33.44-.48.62-1.86,3.4-3.44,6.42-4.17,7.25-1.07,1.01,2.48-5.43,4.49-9.66,0-.15.03-.35.1-.61,0,0,.34-.57.74-1.25.06-.16.11-.3.17-.44-.21.09-.22-.17-.17-.53-.91,1.54-1.81,3.07-2.72,4.6.57-1.59,1.26-3.14,2.53-5.61,0,0,0,0-.02,0,.03-.06.06-.11.1-.17.26-.5.53-1.02.83-1.6h0c-6.65,9.77-1.32-.02-.05-4.35-.55.87-1.19,1.95-1.88,3.18-.08-.05-.25-.15-.25-.15-4.82,7.77-8.26,12.83-12.81,19.58-1.12,1.7-1.46,1.5-3.01,4.13l-3.11,5.24-1.56,2.62-.2.33-.08.13c-.04.08-.1.15-.15.22-.11.14-.23.27-.36.39-.52.49-1.19.8-1.89.91l-.27.02c-.12,0-.09.01-.42.01h-1.52s-3.05.04-3.05.04c-1.96.04-3.91.07-5.83.1-.96.02-1.92.03-2.87.05-1.69.02-3.37.03-5.03.05-10.63,9.14-20.87,17.94-31.25,26.86.1-.05.15-.07.15-.05l-2.31,1.96-.58.49s-.08.03-.11.06c-.02.05-.07.04-.11.06-.03.02-.06.06-.1.05-.23.13-.62.07-.97-.12-.31-.24-.47-.38-.62-.72,0-.16-.07-.03-.07-.63-.02-.45-.03-.9-.05-1.36-.03-.92-.05-1.88-.05-2.89-.01-7.72-.02-15.37-.03-22.82-2.36,0-4.72.01-7.07.01h-3.52s-.88.01-.88.01h-.52c-.16,0-.31-.02-.46-.03-1.23-.15-2.39-.83-3.12-1.83-2.64-4.38-5.27-8.74-7.89-13.1-5.42-8.95-10.82-17.88-16.26-26.87-1.22-1.71-2.49-3.57-3.82-5.56.82,1.39,1.66,2.84,2.51,4.37-.59-.83-1.21-1.7-1.86-2.61-.32-.46-.64-.92-.96-1.39l-.4-.58c-.12-.15-.19-.31-.29-.47-.71-1.29-.94-3.03-.38-4.67.07-.21.15-.4.24-.61l.15-.3.23-.43c.32-.58.64-1.17.96-1.76.65-1.18,1.3-2.37,1.96-3.58,1.34-2.4,2.7-4.85,4.06-7.29,5.48-9.75,11.04-19.46,14.83-26.66,1.1-2.04,2.21-4.1,3.34-6.19l.42-.77c.13-.21.24-.43.39-.63.27-.42.59-.8.95-1.16.7-.72,1.56-1.3,2.5-1.72.95-.41,1.98-.64,3.03-.68,1.23-.03,2.46-.06,3.7-.09,2.48-.05,4.99-.09,7.52-.14,10.12-.16,20.59-.23,31.26-.25,5.26-.16,10.59-.33,16-.49,2.7-.07,5.42-.14,8.15-.21,2.68-.04,5.42,1.15,7.23,3.24-1.69-1.88-4.12-3.04-6.62-3.16-2.52,0-5.14.14-7.76.2-5.26.14-10.67.28-16.3.43,5.67,0,11.4,0,17.15,0h4.32c.71.02,1.48,0,2.13.03.65.03,1.3.12,1.93.29,1.26.35,2.44.97,3.43,1.82.49.43.94.91,1.32,1.44.2.26.36.53.54.82l.55.94c6.81,11.07,13.09,21.8,19.95,33.08,1.64,2.58,3.19,5.2,4.39,6.86.95,1.11,1.9,2.23,2.77,3.21-2.07-3.45-4.27-6.96-6.16-9.95.27.38.31.29.36.27-2.83-4.76-5-8.09-7.92-13.03,4.59,6.75,9.64,15.28,14.75,23.86.38.42.69.85.96,1.23-.23-.67-.6-1.34-.93-1.91l-.98-1.67-1.96-3.35c-1.32-2.23-2.63-4.46-3.95-6.7-2.66-4.46-5.33-8.92-8-13.37-2.7-4.44-5.39-8.87-8.07-13.28-1.35-2.2-2.7-4.39-4.04-6.58-.32-.53-.71-1.14-1.14-1.66-.44-.53-.93-1.01-1.46-1.44-.78-.63-1.65-1.14-2.57-1.52,1.37.54,2.63,1.36,3.67,2.43.64.64,1.21,1.48,1.64,2.17l1.39,2.15c4.37,6.89,8.95,14.46,13.56,22.18,2.31,3.86,4.63,7.76,6.94,11.63,1.16,1.93,2.31,3.86,3.46,5.77.58.95,1.15,1.91,1.72,2.85.27.44.63,1.05.88,1.61.26.58.48,1.18.64,1.8.42.52.73.57.84-.28-.17-.73-.41-1.44-.73-2.12-.15-.34-.33-.67-.5-.99Zm-24.35,43.9c-.1.12-.2.25-.3.38.51-.95,1.01-1.9,1.51-2.82-.28.71-.7,1.6-1.2,2.44Zm-7.67,12.09c.12-.16.21-.33.31-.49l.38-.67.8-1.42c.54-.94,1.07-1.88,1.6-2.81,2.12-3.72,4.2-7.32,6.14-10.5.02.01.03.05.02.11-2.19,3.86-4.42,7.79-6.54,11.51-.54.93-1.06,1.84-1.58,2.74l-.39.67-.19.33-.16.25c-.19.32-.42.61-.66.88-.96,1.09-2.22,1.8-3.46,2.09,1.48-.44,2.83-1.4,3.71-2.69Zm-31.65,7.65s.03.02.04.02l-.15.08s.07-.07.11-.11Zm-63.45-35.41c3.69,4.9,9.29,14.58,14.28,22.26.83,1.28,1.66,2.56,2.49,3.84l.62.94c.15.21.31.42.48.61.34.39.73.73,1.14,1.03,1.19.88,2.61,1.31,4.1,1.25,3.38-.06,6.78-.12,10.2-.18.06,3.65.12,7.32.19,11.01.06,2.49.11,5.01.17,7.54.03,1.27.05,2.54.08,3.82l.04,1.92.02.96c0,.3,0,.73.04.78.05.54.23.96.52,1.33.29.37.73.67,1.21.83.56.2,1.13.11,1.62-.09.11-.09.25-.13.36-.22.13-.13.14-.08.53-.44.61-.54,1.23-1.09,1.85-1.64,2.46-2.2,4.93-4.4,7.21-6.43,1.52-1.37,3.08-2.69,4.63-3.99.09-.04.18-.09.28-.14l-5.63,4.86c-1.49,1.39-2.86,2.92-3.64,3.57-.76.68-1.56,1.41-2.39,2.16-.42.37-.86.75-1.3,1.14-.22.19-.44.39-.67.58-.21.18-.51.45-.55.45-.73.62-1.79.76-2.8.27-.84-.33-1.47-1.14-1.49-2.21,0-.08-.02-.1-.02-.24v-.46s0-.92,0-.92c0-.62,0-1.24,0-1.87-.01-1.26-.02-2.52-.03-3.8,0-1.02-.2-2.03-.29-2.03.07-2.61.04-4.82-.03-6.92-.08-3.18-.15-6.21-.23-9.52-2.37.04-4.83.07-7.61.04l4.39.2c-1.48.03-2.88.06-4.24.09-.67.02-1.34.04-2.02.05l-.73.02c-.17.01-.33,0-.5-.01-1.33-.08-2.83-.55-4.19-1.81-.26-.27-.5-.53-.71-.81-.23-.29-.37-.5-.65-.93-.5-.75-.97-1.47-1.43-2.16-.92-1.37-1.78-2.63-2.56-3.95-5.34-8.65-10.51-17.41-15.06-24.17.69.78,1.72,2.53,2.32,3.36Zm1.3,8.79c3.74,6.31,7.74,13.08,11.25,18.74.46.73.83,1.36,1.33,2.11.51.74,1.09,1.39,1.72,1.95,1.25,1.12,2.68,1.82,4.01,2.2,1.33.37,2.63.42,3.61.31.86-.1,1.63-.22,2.28-.35.83.29,0,.55-1.48.77-.18.02-.38.05-.58.08-.2.03-.4.05-.75.07-.64.04-1.34,0-2.09-.12-1.5-.23-3.17-.88-4.67-1.99-.75-.56-1.46-1.23-2.07-2.01-.3-.37-.61-.84-.84-1.19l-.68-1.07c-.9-1.44-1.81-2.88-2.68-4.27-1.73-2.78-3.28-5.33-4.31-7.08-5.07-8.75-11.27-18.88-17.08-27.9-.83-3.61,5.57,7.15,13.04,19.76Zm-4.74-51.93c3.37-6.28,6.04-11.78,9.41-18.05,1.33-2.55,2.74-5.18,4.2-7.86.74-1.34,1.48-2.68,2.23-4.05l.58-1.04c.24-.41.5-.81.79-1.2.58-.76,1.25-1.46,2.01-2.07,1.51-1.22,3.34-2.07,5.27-2.42.94-.19,2.06-.21,2.77-.22l2.39-.04c3.2-.04,6.4-.09,9.58-.13,1.12-.05,2.23-.09,3.33-.14,2.39-.08,4.46-.06,6.45-.01.3,0,.6,0,.9-.02-.17,0-.35.02-.52.03,2.99.08,5.87.24,9.44.3l1.01-.1v.29c-9.15.68-20.33.2-30.49.49-.83.02-1.66.05-2.49.07-.86.01-1.91.11-2.83.35-1.89.47-3.65,1.44-5.06,2.8-.7.68-1.31,1.45-1.81,2.28l-1.28,2.26c-.84,1.49-1.68,2.99-2.52,4.49-3.35,5.99-6.67,11.99-9.73,17.86-.95,1.8-2.59,4.38-3.62,6.13Z"/>
      <path class="cls-1" d="m9.04,58.37c1.97-3.46,3.96-6.94,5.96-10.44,5.51-9.79,10.32-18.52,15.2-27.47-3.78,6.45-7.58,12.94-11.41,19.48-3.77,6.59-6.61,12.37-9.75,18.43Z"/>
      <path class="cls-1" d="m34.04,12.54l.27-.45c.08-.13.17-.26.26-.38.18-.25.38-.49.59-.71.84-.89,1.93-1.56,3.11-1.92.59-.18,1.2-.28,1.83-.3l2.47-.03,5.03-.05c3.35-.04,6.7-.07,10.04-.11l-14.09.33-3.46.09c-.84.04-1.66.25-2.42.59-.75.35-1.44.82-2.02,1.4-.29.29-.55.6-.77.94-.12.16-.22.34-.32.52l-.41.73c-1.33,2.46-2.64,4.87-3.95,7.27,1.39-2.4,2.78-4.79,4.17-7.18.39-.69.57-.98.86-1.36.28-.37.6-.69.95-.99.7-.6,1.54-1.02,2.42-1.27.44-.12.9-.19,1.36-.22.18-.01.55-.02.9-.02h1.03s4.12-.06,4.12-.06c2.75-.03,5.49-.06,8.24-.09l27.07-.59,13.54-.32,6.77-.17,3.38-.09,1.69-.05c.46,0,.92,0,1.38.08,1.66.24,3.24,1.03,4.42,2.22-1.2-1.27-2.83-2.13-4.55-2.4-.44-.08-.86-.1-1.32-.11h-1.57s-3.14-.01-3.14-.01c-4.18,0-8.36-.01-12.51-.02-8.31.02-16.53.04-24.6.06-8.07.06-15.97.15-23.64.32-1.05.01-1.7.04-2.46.21-.73.17-1.43.46-2.08.83-.64.37-1.23.83-1.72,1.37-.24.27-.48.55-.68.85-.1.15-.2.3-.29.46l-.14.23-.17.3c-1.79,3.25-3.52,6.46-5.2,9.6-.25.46-.52.98-.78,1.46,1.71-2.93,3.41-5.85,5.11-8.77l1.27-2.18Z"/>
      <path class="cls-1" d="m95.03,6.13c1.14-.03,2.25-.07,3.37-.1-.68,0-1.37-.02-2.05-.03-1.42.04-2.84.08-4.25.12.99,0,1.96,0,2.93.01Z"/>
      <path class="cls-1" d="m42.41,4.08c-.6.02-1.2.03-1.8.05-.28,0-.64.02-1.02.04-.1,0-.2.03-.3.04.4-.04.8-.05,1.15-.06l1.64-.02c1.09-.01,2.18-.03,3.26-.05,2.16-.04,4.28-.07,6.35-.11,4.13-.09,8.01-.21,11.41-.38-.12,0-.25,0-.38,0-3.21.05-6.48.1-9.78.15-2.27.08-4.6.16-6.96.24-1.18.04-2.37.07-3.57.11Z"/>
      <path class="cls-1" d="m27.95,8.23c.38-.61.81-1.18,1.28-1.73.93-1.2,2.07-2.25,3.35-3.11-.66.39-1.61,1.07-2.45,1.87-.84.79-1.57,1.7-2.01,2.34l-.34.61-.16.3-.1.21-.39.84.37-.61.44-.72Z"/>
      <path class="cls-1" d="m2.26,68.69l-.22-.35-.27-.47c-.19-.31-.34-.65-.51-.99-1.24-2.7-1.51-5.89-.67-8.84.05-.17.1-.32.15-.49.24-.72.54-1.44.9-2.1l.87-1.56c.55-.97,1.09-1.95,1.64-2.91,1.09-1.93,2.16-3.86,3.24-5.77,2.14-3.82,4.25-7.59,6.35-11.33,4.18-7.48,8.28-14.82,12.37-22.12l1.05-2.21c-5.76,9.64-11.33,19.32-16.1,28.47-.95,1.8-2.25,4.58-3.28,6.32-1.19,2.09-2.37,4.15-3.54,6.2-.58,1.03-1.15,2.05-1.72,3.07l-.87,1.57c-.38.68-.7,1.43-.96,2.18-1.01,3.02-.87,6.36.38,9.21.15.36.33.7.5,1.05.18.31.41.72.55.92l.92,1.45,1.84,2.9c-.57-.93-1.15-1.86-1.73-2.8l-.87-1.4Z"/>
    </g>
  </g>
</svg>