<?xml version="1.0" encoding="UTF-8"?>
<svg id="Layer_2" data-name="Layer 2" xmlns="http://www.w3.org/2000/svg" viewBox="0 0 146.7 148.84">
  <defs>
    <style>
      .cls-1 {
        fill: #1d1d1d;
      }
    </style>
  </defs>
  <g id="Layer_1-2" data-name="Layer 1">
    <g>
      <path class="cls-1" d="m142.51,25.48s-.06.02-.1.03c.04.78.07,1.47.1,2.12v-2.16Z"/>
      <path class="cls-1" d="m143.69,29.07c-.03.08-.05.09-.08.13.02.17.05.35.08.55v-.68Z"/>
      <path class="cls-1" d="m140.75,20.7c0-1.19,0-2.38-.1-2.38-.26-.78-.43.51-.49,2.82,1.1,5.14,1.49,18.23,2.25,4.37-.36.16-.72,1.06-1.07-.03v-4.78c-.19-1.19-.39,0-.59,0Z"/>
      <path class="cls-1" d="m142.53,27.85c.16,3.25.35,5.24.67,7.18v-6.28c-.23-.65-.45-1.54-.67-.9Z"/>
      <path class="cls-1" d="m139.86,9.81c-1.02-.81-2.18-1.43-3.41-1.81-1.24-.39-2.46-.52-3.79-.5-5.58.07-10.89.2-15.67.46,3.38,0,6.24-.04,9.06-.09,1.41-.02,2.81-.04,4.27-.06.73,0,1.47-.02,2.23-.02.4-.01.75,0,1.08.02.35,0,.69.04,1.04.1,0-.03.12-.13,1.02.2-.35-.1-.68-.17-1.02-.2-.02.05.02.14-.44.11,1.78.15,3.7.79,5.32,2.03,1.63,1.21,2.93,2.98,3.59,4.95.25.48.51.97.68,1.44-.46-2.61-1.92-5.01-3.97-6.62Z"/>
      <path class="cls-1" d="m144.54,17.18c.02.39.04.75.06,1.13.03-1.02,0-1.13-.06-1.13Z"/>
      <path class="cls-1" d="m7.89,73.99c.08,7.21.42,13.54.75,19.93-.28-13.58-.42-27.51-.79-37.87.01,5.95.03,11.93.04,17.94Z"/>
      <path class="cls-1" d="m9.62,109.13c0,.42,0,.97.03,1.18.02.28.03.56.09.83.04.28.09.55.18.81.57,2.13,2.18,3.95,4.17,4.82.19.08.39.12.6.17.2.05.39.1.59.11-2.57-.8-4.39-2.84-5.07-5.01-.08-.28-.18-.55-.21-.83l-.09-.42-.04-.43c-.04-.21-.05-.74-.06-1.19-.02-.46-.03-.92-.05-1.37-.08-1.82-.15-3.59-.23-5.35.02,1.79.04,3.57.06,5.35l.02,1.34Z"/>
      <path class="cls-1" d="m9.12,104.39c-.13-3.6-.3-7.04-.47-10.46.1,3.84.19,7.64.28,11.32.03.92.06,1.83.09,2.74.02.45.03.9.05,1.35l.02.67.05.46c.13,1.19.52,2.29,1.09,3.22-.6-1.21-.93-2.41-.96-3.75-.05-1.9-.1-3.75-.15-5.55Z"/>
      <path class="cls-1" d="m62.48,1.44c5.37-.28,8.63-.41,10.48-.44.82-.14,1.9-.3,3.37-.51h-.96c-5.55.16-11.17.32-16.86.48-2.32.12-4.54.26-6.4.42,3.46.02,6.93.03,10.36.05Z"/>
      <path class="cls-1" d="m72.96,1c-7,1.17,7.23-.12,0,0h0Z"/>
      <path class="cls-1" d="m35,7.21c1.09-.02,2.13-.04,3.21-.07-.27,0-.55,0-.82,0-.79.02-1.6.04-2.39.07Z"/>
      <path class="cls-1" d="m3.27,44.86c-.04-4.72-.11-9.44-.2-14.08.1,9.57.21,19.23.5,27.23,0-1.19.1-2.39.1-3.58-.19-2.39-.39-5.96-.39-9.56Z"/>
      <path class="cls-1" d="m146.51,90.09c-.03-8.92-.05-17.87-.09-27.6l-.1-14.32c-.1-3.58-.68,2.39-.78-3.58-.03.32-.06.64-.1.91.12,4.55.31,8.55.1,9.83-.41,1.66-.62-6.97-1.04-12.45-.07-.15-.15-.38-.23-.68v-1.71c-.03-.2-.05-.37-.08-.55-.14.21-.27-.04-.41-.44v6.28c-.32-1.95-.51-3.93-.67-7.18,0,0,0,0-.01.01v-.23c-.03-.66-.06-1.35-.1-2.12h0c-.76,13.86-1.15.77-2.25-4.37-.03,1.21-.04,2.69,0,4.34h-.29c-.2,10.74-.59,17.91-1.08,27.46-.1,2.39-.49,2.39-.49,5.97,0,9.54-.1,19.11,0,28.66.04,2.55.08,5.08.12,7.6.02,1.26.04,2.51.05,3.77.01.38,0,.49,0,.65,0,.16.01.32-.02.47-.02.15-.04.31-.05.46-.04.15-.08.3-.11.45-.58,2.43-2.91,4.36-5.43,4.51l-.24.02h-.12s-.23.02-.23.02h-.92s-1.84.03-1.84.03l-3.68.04c-2.45.02-4.9.04-7.35.07-4.9.04-9.8.07-14.72.11.13.02.19.04.17.07-4.74.02-9.5.04-14.34.05-4.78,0-8.36.29-13.14.29-4.53,0-9.04,0-13.39,0-9.43,7.72-18.72,15.34-27.98,22.93l-.82.68-.39.32s-.08.05-.12.08c-.07.08-.15.1-.22.14-.06.07-.15.05-.21.09-.28.11-.62.09-.97-.04-.34-.13-.68-.35-.84-.63-.07-.14-.17-.27-.19-.45-.03-.08-.06-.17-.05-.27,0-.05-.01-.1-.03-.15v-.52c-.05-7.26-.1-14.51-.15-21.78-4.06.02-8.14.05-12.23.07l-1.86.02c-.36,0-.53,0-.71-.01-.19-.01-.38,0-.57-.03-.76-.05-1.49-.3-2.19-.59-1.45-.44-2.89-1.53-3.87-3.08.56,1.1,1.44,2.1,2.51,2.92-1.38-.74-2.79-2.04-3.53-3.85-.18-.45-.36-.92-.45-1.42-.06-.25-.12-.5-.13-.76-.03-.27-.07-.47-.08-.88-.06-1.47-.12-2.97-.17-4.5-.21-6.12-.36-12.69-.48-19.26-.24-13.14-.39-26.27-.78-35.82-.2-5.43-.36-11.01-.5-16.72-.06-2.85-.12-5.74-.18-8.66-.03-1.46-.05-2.92-.08-4.4,0-.73-.03-1.49-.03-2.2l.04-1,.14-1c.49-2.64,2.03-5.12,4.25-6.76,1.11-.82,2.38-1.44,3.73-1.79,1.36-.37,2.72-.39,4.3-.39,6.13-.02,12.34-.05,18.6-.07,12.34-.35,25.09-.66,38.07-.91-11.84.35-24.01.63-37.25.91,13.33.02,26.91.04,40.5.06,15.27-.24,29.87-.19,45.37-.36,3.58-.08,7.18-.13,9.54-.26,1.66-.18,3.41.03,4.92.5-1.1-.55-2.29-.9-3.51-1.07-1.22-.2-2.44-.13-3.59-.11-2.32.05-4.58.11-6.66.15.54-.04.48-.12.49-.17-6.51.02-11.17.19-17.91.19,4.78-.26,10.09-.39,15.66-.46,2.79-.02,5.64-.05,8.53-.07,1.4-.02,3-.03,4.5.34,1.51.35,2.95.98,4.24,1.85.58.29,1.14.53,1.59.81-2.42-2.25-5.79-3.49-9.08-3.44-3.04,0-6.09,0-9.14,0-6.1.03-12.21.06-18.31.09-12.2.1-24.37.27-36.34.5-4.34.12-8.74.24-13.2.36,2.2.03,4.41.07,6.64.1h-7.17c-1.14,0-2.28,0-3.43,0-7.47.17-15.16.34-23.31.52,6.51-.17,13.14-.35,19.87-.53-6.76-.03-13.67-.06-20.55-.09-3.44.01-6.87.02-10.27.04-3.44-.06-6.86,1.37-9.08,3.85-1.17,1.31-2.14,2.98-2.69,4.87-.23.95-.43,1.94-.42,2.96-.03,1.01.03,2.08.04,3.13.1,4.24.19,8.63.33,12.75.04.18.07.34.11.49,0,.63-.01,1.25-.02,1.87.08,1.05.16,2.19.22,2.89.21,8.62.47,17.25.6,26.31.03.77.06,1.56.08,2.35.1,2.39,0,5.97,0,8.36,0-3.66-.03-7.22-.08-10.71-.38-10.17-.92-17.99-.82-29.21-.04-.72-.08-1.4-.08-1.87,0-.16,0-.32-.02-.49-.28-1.44-.43-4.11-.5-7.27-.02-1.58-.04-3.27-.06-5,.02-1.72-.11-3.49.18-5.13-.17.58-.16-.03,0-.76.13-.74.45-1.59.36-1.63,1.1-3.5,3.97-6.41,7.39-7.72.42-.18.87-.28,1.3-.43.44-.12.89-.19,1.33-.28.44-.06.89-.1,1.34-.14.41-.02.83-.04,1.23-.07,1.62-.08,3.19-.16,4.69-.24,9.55-.39,19.11-.19,27.46-.78,2.39-.2,7.17-.1,10.75-.2,1.51-.08,3.15-.17,4.82-.25-1.76-.04-3.53-.08-5.29-.11-1.19-.1,30.31-.61,29.13-1,0,0-.1,0-.29-.01h-.85c-.74,0-1.82.02-3.17.03-2.71.03-6.51.08-10.88.13-8.75.11-19.79.23-28.99.24-3.58-.29,3.11-1.44,5.51-1.54.26-.02.57-.05.86-.08-2.74-.02-5.49-.04-8.19-.06-4.31.09-8.66.19-13,.28-3.5.07-7.03.14-10.56.21l-2.65.05c-.38,0-1.03.04-1.62.08-.6.02-1.19.15-1.79.24-2.37.45-4.63,1.45-6.55,2.88,2.02-1.58,4.47-2.64,7.03-3.12.61-.14,1.23-.2,1.87-.25l.48-.04.38-.02.71-.03c7.61-.35,16.48-.35,25.7-.28,4.9-.12,9.77-.24,14.6-.36.13,0,.24-.01.37-.02-6.15-.04-12.43-.08-18.55-.11-5.62.12-11.28.24-16.99.36-1.43.03-2.85.06-4.28.08l-1.07.02h-.54s-.28.02-.28.02l-.38.02c-.5.03-1,.05-1.5.12l-1.49.25c-3.95.87-7.52,3.2-9.9,6.41,1.53-2.16,3.59-3.94,5.98-5.18,1.27-.7,2.69-1.2,4.19-1.54,1.43-.34,3.31-.4,4.22-.42,2.24-.07,4.58-.11,6.98-.14,4.8-.05,9.88-.04,15.07,0,10.69-.24,21.23-.51,31.45-.84-6.94,0-14.86,0-21.72.1-6.91.13-13.67.25-20.33.38-3.33.06-6.64.13-9.92.19l-2.46.05c-.48.01-1.15.06-1.72.1-.59.06-1.18.17-1.76.27-2.33.48-4.55,1.44-6.47,2.8C3.55,6.58.91,10.84.21,15.42c-.08.57-.17,1.14-.18,1.72-.02.54-.05,1.24-.03,1.56l.05,2.41c.03,1.61.06,3.21.1,4.81.13,6.41.26,12.8.39,19.21.23,3.1.42,6.19.48,9.29.19,7.16.19,15.52.29,22.69.2-1.19.2,2.39.29,2.39.39,7.16.29,15.52.29,23.88,0,1.19-.1,1.19-.18,2.42.09,1.15.18,2.34.25,3.56.02.54.1,1.38.18,2.16.14.78.27,1.57.52,2.33.9,3.09,2.87,5.98,5.63,7.99,1.38,1.01,2.94,1.8,4.62,2.3l1.28.32,1.31.2c.87.08,1.82.1,2.48.09,2.05,0,4.14,0,6.24,0,0,1.89-.01,3.8-.02,5.7,0,1.87.02,3.74.03,5.63,0,.94,0,1.89,0,2.84v.72s.06.99.06.99c.01.33.08.66.15.98.08.32.12.66.25.98-.13-.3-.17-.63-.25-.94-.07-.32-.15-.64-.16-.96l-.07-.96c-.01-.29,0-.48,0-.73,0-.94,0-1.88,0-2.83,0-1.89,0-3.8,0-5.71-.01-1.1-.03-2.19-.04-3.27-.02-.77-.04-1.54-.06-2.29-.8.03-1.6.05-2.39.08l-1.18.04-2.1.05-1.05.02c-.35,0-.84-.01-1.26-.03-.44,0-.87-.07-1.3-.12-.43-.05-.86-.12-1.29-.24-1.7-.39-3.34-1.07-4.82-2.01,1.5.98,3.18,1.69,4.91,2.08,1.69.42,3.68.42,4.92.38.69,0,1.38-.02,2.07-.03l1.1-.03c.75-.02,1.5-.04,2.24-.06.02.97.04,1.93.07,2.89.02,1.66.04,3.31.06,4.96.02,1.78.04,3.56.06,5.34v1.33c.05.55.06,1.21.19,1.81.21,1.23.75,2.41,1.42,3.46.72,1.03,1.63,1.9,2.66,2.58,1.05.65,2.21,1.1,3.43,1.34,1.22.19,2.49.17,3.71-.11,1.2-.33,2.39-.82,3.34-1.59l.37-.27.26-.21.52-.43,1.03-.85,2.07-1.7c1.38-1.14,2.77-2.27,4.16-3.42,3.35-2.77,6.66-5.51,9.93-8.22,1.63-1.36,3.25-2.71,4.85-4.05,1.4-1.18,2.79-2.35,4.18-3.52,9.69-.2,19.17-.4,28.66-.59,7.31-.15,14.62-.13,21.91-.07-.62.07-1.22.13-1.8.19,4.54.01,8.99.03,13.46.04,1.12,0,2.24,0,3.36-.01,1.05,0,2.42,0,3.69-.26,2.55-.48,4.99-1.71,6.89-3.54.7-.65,1.31-1.39,1.86-2.18,1.54-2.24,2.36-4.9,2.39-7.51,0-2.4-.05-4.62-.07-6.9-.04-4.52-.09-8.97-.12-13.42ZM4.64,81.89c-.29-8.36-.78-15.52-1.08-23.88-.31-6.76-.5-13.99-.63-21.4-.06-3.7-.11-7.45-.17-11.21l-.07-5.63-.02-1.41c.02-.54.03-1.12.08-1.68.14-1.12.35-2.24.74-3.3.5-1.51,1.22-2.95,2.18-4.19,2.09-2.72,4.8-4.34,7.57-5.05.3-.08.6-.16.89-.23-.12.03-.24.07-.36.1,1.05-.24,2.11-.33,3.17-.33.97,0,1.78.05,2.71.07,1.81.06,3.7.11,5.8.14l1.19-.1v.29c-2.69.17-5.52.27-8.45.32l-1.12.03-1.27.08-1.27.21c-.42.09-.83.21-1.25.32-1.65.5-3.23,1.32-4.61,2.4-2.76,2.15-4.69,5.44-5.16,8.96-.08.44-.1.88-.12,1.32l-.03.65v.58c0,.77.01,1.53.02,2.29.03,1.52.05,3.03.08,4.53.39,15.52.49,32.24,1.17,47.76.1,2.39,0,5.98,0,8.36Zm42.74,57.18c-1.41,1.23-2.9,2.52-4.4,3.83-.76.65-1.52,1.3-2.27,1.94-.38.32-.75.64-1.13.96l-.56.47c-.2.16-.49.37-.73.54-1.01.72-2.2,1.22-3.39,1.41-.59.14-1.18.12-1.76.14-.57-.06-1.14-.08-1.67-.23-2.14-.48-3.78-1.71-4.78-2.94-.75-.87-1.26-1.95-1.62-3.06-.12-.57-.29-1.14-.31-1.72l-.05-.86v-.67c0-1.8-.01-3.63-.01-5.48-.02-1.78-.03-3.59-.05-5.41-.03-1.2-.05-2.4-.08-3.6-2,.06-4,.11-5.99.17-1.24.05-3.04.07-4.63-.26-1.61-.31-3.16-.93-4.55-1.75-.72-.68-.66-.94-.14-.71.28.09.69.27,1.23.53.56.21,1.24.52,2.09.76.83.26,1.82.46,2.93.58.55.07,1.15.05,1.74.07.54-.01,1.1-.02,1.68-.04,1.88-.03,4.04-.05,6.38-.09.01,4.2.03,8.95.04,13.8v2.03c0,.35.05.81.08,1.21.05.41.16.81.25,1.22.45,1.61,1.47,3.05,2.76,4.05,1.3,1.01,2.89,1.61,4.5,1.72,1.62.12,3.26-.3,4.6-1.13l.94-.67.74-.61c.49-.41.97-.81,1.44-1.21.95-.8,1.87-1.58,2.77-2.33,1.79-1.52,3.45-2.95,4.94-4.27,2.98-2.63,5.27-4.79,6.48-6.19,2.22-1.05-1.9,2.87-7.5,7.81Zm66.21-21.54c-2.39.1-4.77.39-5.97.39-4.78.2-10.75.2-16.72.29-4.77.2-10.75,0-16.72.1-1.19,0-2.39.2-2.39.29-1.17-.03-2.26-.04-3.3-.04-1.48,0-2.89.02-4.25.03-.75.63-1.48,1.24-2.21,1.85-.51.44-1.02.88-1.53,1.31-.9.78-1.79,1.55-2.7,2.35-1.83,1.59-3.78,3.24-6.14,5.11l2.91-2.11c-3.65,3.09-6.3,5.5-10.87,9.35-1.86,1.51-3.41,2.9-4.86,4.2-.72.65-1.42,1.27-2.1,1.88l-.51.45-.37.28c-.23.21-.52.29-.77.45-1.59.72-3.69.25-4.93-1.07-.63-.64-1.03-1.47-1.16-2.36l-.06-.69v-.98c-.02-.65-.03-1.29-.04-1.94-.04-2.57-.09-5.09-.13-7.52-.07-3.02-.14-5.93-.21-8.72-1.35.05-2.64.09-3.91.14.99-.12,2.56-.17,3.98-.21.03.85.05,1.63.08,2.19.09,1.1.16,2.36.22,3.76.05,1.23.11,2.54.16,3.93.09,2.41.16,5.06.21,7.82l.02,1.04v.52s.05.34.05.34l.03.34.09.32c.03.22.13.41.21.61.34.79.97,1.46,1.76,1.86.78.41,1.67.59,2.47.44.4-.08.78-.19,1.13-.39.17-.1.35-.18.5-.33.16-.13.3-.22.59-.48,2.69-2.36,5.4-4.73,8.09-7.09,3.12-2.66,6.24-5.32,9.38-7.99,1.57-1.34,3.14-2.67,4.72-4.02,1.92-1.62,3.86-3.25,5.79-4.88,9.1-.14,18.36-.28,27.94-.43,7.16-.1,15.52-.29,22.69-.49,2.4-.07,4.81-.08,7.19-.07.11.02.23.05.36.08-2.91.03-5.83.06-8.74.09Zm23.33-1.17l.09-.07s.02.02.03.03l-.12.04Zm5.59-26.71c-.13-10.01-.37-20.77-.28-29.52.02,0,.05.04.07.1.15,10.43.38,21.23.21,29.43Zm.24-24.18c-.05-1.26-.1-2.53-.14-3.76.12.89.21,2.03.21,3.19-.02.18-.04.37-.07.57Z"/>
      <path class="cls-1" d="m15.54,6.14c1.07-.16,2.15-.13,3.19-.14h3.16c2.1-.02,4.2-.03,6.3-.04,8.38-.03,16.74-.04,25.24.05,5.16-.11,10.36-.22,15.6-.33,4.04-.13,8.06-.26,12.08-.39,9.58-.26,19.98-.35,30.55-.4,5.29-.02,10.61-.04,15.91-.07,1.32,0,2.65-.01,3.96-.02.68,0,1.27-.03,2.02,0,.74,0,1.47.11,2.19.23,2.88.58,5.58,2.07,7.5,4.25.67.32.98.22.61-.64-2.2-2.53-5.33-4.27-8.69-4.74-.42-.08-.84-.12-1.26-.13-.41-.02-.87-.05-1.19-.04h-2.1s-4.19-.01-4.19-.01l-16.77.07c-11.18.07-22.36.16-33.53.08-.17,0-.35.02-.52.03-9.56.59-25.08.39-37.03.88-5.97.29-11.94.49-17.91.67l-2.24.07-1.12.03-1.17.09c-1.56.18-3.09.65-4.46,1.38-2.76,1.45-4.9,3.96-5.88,6.83,1.59-4.09,5.44-7.18,9.75-7.71Z"/>
      <path class="cls-1" d="m9.54,102.44c-.06-4.68-.12-9.38-.18-14.12-.23-13.19-.53-24.89-.88-36.86.03,8.78.06,17.62.08,26.52.1,8.91.6,16.46.97,24.46Z"/>
      <path class="cls-1" d="m7.6,20.44v-1.48s-.02-.72-.02-.72l.03-.59c.03-.79.19-1.56.41-2.31.4-1.22,1.03-2.38,1.87-3.37-1.23,1.5-2.01,3.34-2.17,5.24-.08.97,0,2.5.01,3.85l.08,4.14.37,16.55c.1,3.28.2,6.5.3,9.71-.05-6.51-.09-13-.14-19.47-.03-3.24-.06-6.47-.09-9.69l-.02-2.42c0-.79-.02-1.69.01-2.2.07-1.2.38-2.38.91-3.47.86-1.78,2.33-3.32,4.14-4.2.9-.45,1.87-.76,2.88-.9.88-.11,2.38-.1,3.67-.13l15.9-.29,31.81-.67c2.41-.04,4.8-.09,7.18-.13-9.86-.02-19.72-.04-29.48-.06-4.88,0-9.73,0-14.55,0-2.41,0-4.81.01-7.2.02-1.19,0-2.39,0-3.58.02h-1.78s-.89.01-.89.01l-.78.04c-2.04.15-4.02.92-5.6,2.18-1.59,1.24-2.79,2.95-3.41,4.83-.31.94-.51,1.91-.51,2.9-.03.45,0,1.07,0,1.64l.02,1.72c.04,2.29.07,4.56.11,6.81.16,9.01.39,17.75.69,26.12.02.61.05,1.3.07,1.95-.05-7.97-.1-15.89-.15-23.79-.03-3.95-.07-7.89-.1-11.83Z"/>
      <path class="cls-1" d="m48.43,6.12c1.16,0,2.3,0,3.44.01,1.33-.03,2.65-.07,3.96-.1-.81,0-1.61-.02-2.4-.03-1.67.04-3.34.08-5,.12Z"/>
      <path class="cls-1" d="m2.87,22.33c.06,2.78.13,5.6.2,8.45-.03-2.58-.06-5.16-.09-7.7-.02-1.27-.03-2.53-.05-3.77v-.93s.02-1.08.02-1.08c0-.37.05-.72.1-1.08.06-.36.08-.72.18-1.07.59-2.83,2.04-5.37,3.94-7.27.94-.97,2.02-1.74,3.12-2.41,1.13-.61,2.29-1.14,3.48-1.45-.17.04-.35.08-.53.13-4.44,1.27-8.23,4.79-9.74,9.24-.5,1.53-.77,3.16-.74,4.79.03,1.37.07,2.76.11,4.15Z"/>
      <path class="cls-1" d="m.14,35.31v4.78c.06.73.12,1.45.18,2.17,0-1.12.01-2.25.02-3.37l-.2-3.58Z"/>
      <path class="cls-1" d="m2.75,115.12c-.56-1.55-.9-3.21-.94-4.88-.03-1.32-.05-2.66-.08-3.99,0-.15,0-.29,0-.44-.41-21.16-.8-41.01-1.18-60.68-.07-.95-.15-1.91-.22-2.86-.06,13.2.06,26.33.61,38.43.1,2.39.39,5.97.39,8.36.05,5.65.15,11.17.27,16.62.03,1.36.06,2.72.1,4.07,0,.29.04.8.07,1.21.02.43.07.86.15,1.29.12.86.36,1.69.62,2.51,1.12,3.27,3.37,6.07,6.2,7.91-2.68-1.79-4.87-4.42-5.98-7.55Z"/>
    </g>
  </g>
</svg>