<svg width="651" height="431" viewBox="0 0 651 431" fill="none" xmlns="http://www.w3.org/2000/svg">
<path d="M641.663 117.693C643.318 117.324 644.606 116.032 645.341 114.556C646.445 112.711 647.181 110.866 647.733 108.837C648.469 106.623 648.836 104.409 649.204 102.195C649.388 101.088 649.388 99.797 649.204 98.6901C649.02 98.1366 648.836 97.3987 648.469 96.8452C648.101 96.4762 647.733 96.1072 647.365 95.9227C646.261 93.7088 643.686 92.4174 641.663 91.126C638.168 88.9121 635.225 85.9602 632.465 83.0084C628.051 78.2116 622.533 71.7544 618.302 66.7732C614.991 62.8989 611.864 58.8401 609.105 54.5968C607.817 52.5674 606.529 50.3535 605.61 48.1396C604.506 45.5567 603.402 42.0514 602.483 39.2841C601.747 37.0702 600.827 34.6718 599.54 32.6424C598.068 30.244 595.861 28.0301 593.837 26.0007L587.951 20.466C585.192 17.8831 582.433 14.3778 580.041 11.4259C578.386 9.39653 576.547 7.36713 574.339 5.89121C572.132 4.41528 569.741 3.30834 567.165 2.75486C561.095 1.27894 554.473 1.27894 548.219 2.0169C544.54 2.38588 540.862 3.30834 537.367 4.59977C533.504 6.0757 529.825 8.1051 526.514 10.5035C523.571 8.84306 520.444 7.55163 517.317 6.81366C515.293 6.44468 513.454 6.26019 511.431 6.44468C510.327 6.62917 509.407 6.81366 508.487 7.55163C507.936 7.92061 507.384 8.65857 507.2 9.39653C507.016 10.5035 507.016 11.6104 507.2 12.5329C507.936 16.0382 509.775 19.359 511.247 22.6799C507.568 25.6317 503.705 28.5836 499.474 30.7975C494.508 33.3803 486.598 35.7787 481.264 37.6236C465.629 43.1584 442.084 52.7519 426.265 57.5486C423.689 58.2866 421.114 59.0246 418.539 59.3936C415.964 59.7625 413.389 59.947 410.813 59.7625C400.145 59.2091 385.981 57.1797 375.496 56.8107C368.322 56.4417 360.965 56.4417 353.791 57.1797C345.329 57.9176 331.534 60.5005 322.888 61.9764C315.163 63.2679 307.069 64.3748 299.343 64.9283C291.25 65.4817 282.421 65.8507 274.327 65.8507C271.568 65.8507 263.658 65.8507 260.715 65.8507L122.39 62.3454C113.376 61.9764 93.1427 61.2385 84.1294 60.685C80.4505 60.5005 76.4038 60.5005 72.9088 60.5005C69.046 60.685 64.9993 61.054 61.1365 61.7919C51.2035 63.8213 41.8224 69.1716 34.6486 76.1822C29.4981 81.1635 25.0835 87.2517 21.7725 93.7089C17.9097 101.273 15.1505 109.575 13.8629 118.062C13.3111 122.305 12.9432 126.733 12.9432 130.976C12.9432 133.19 12.9432 136.142 12.9432 138.356C13.679 159.019 13.679 187.061 15.1505 207.355C16.0703 223.037 18.2776 242.04 15.8863 257.721C15.3345 260.858 14.7826 264.178 13.8629 267.315C12.9432 270.82 11.4717 274.141 10.1841 277.462C9.08039 280.229 6.50518 285.395 5.76941 288.162C5.58546 288.531 5.58546 289.085 5.58546 289.454L5.76941 289.638C6.13729 289.823 6.50518 289.638 6.87307 289.638C7.24096 289.638 7.60884 289.638 7.79279 289.823C7.79279 290.192 7.79279 290.745 7.60884 291.114C7.24096 293.143 5.40152 297.756 4.66575 299.785C3.37814 303.475 2.27448 307.349 1.72265 311.039C1.35476 314.36 1.5387 317.865 2.09053 321.186C2.45842 322.846 2.82631 324.507 3.74603 326.167C4.11391 326.721 4.4818 327.459 5.03363 327.828C5.40152 328.012 5.76941 327.828 6.32124 327.643C6.50518 327.643 6.87307 327.459 7.05701 327.643C7.4249 328.197 7.60884 328.935 7.79279 329.488C9.08039 334.838 9.26434 340.927 11.2877 346.092C11.8395 347.199 12.3914 348.491 13.1272 349.413C13.3111 349.598 13.679 349.967 14.0469 350.151C14.2308 349.782 14.4148 349.413 14.4148 349.044C14.9666 346.646 15.1505 342.403 15.3345 339.82C15.5184 337.421 15.8863 334.838 16.4381 332.624C16.806 330.78 17.5418 329.119 18.2776 327.459C19.5652 324.507 21.5886 321.186 22.6922 318.05C23.428 316.205 23.7959 314.175 23.7959 312.146C23.9798 305.689 22.5083 298.678 22.3243 292.406C22.3243 290.376 22.5083 288.162 22.8762 286.133C23.428 282.996 24.7156 278.938 25.4514 275.801C26.1872 272.849 26.555 269.898 26.3711 266.761C26.3711 262.887 25.0835 254.769 24.5317 251.08C23.9798 245.914 23.428 240.195 23.2441 235.029C22.1404 213.074 22.1404 190.013 23.0601 168.059C23.6119 154.591 25.4514 140.385 27.4748 127.102C28.3945 138.356 30.7857 149.61 34.4646 160.31C37.0398 168.059 41.0866 176.361 43.6618 183.925C44.7655 187.246 45.3173 190.751 45.5012 194.256C45.6852 196.839 45.6852 200.345 46.0531 202.743C46.421 205.879 47.1567 209.016 47.8925 211.967C49.3641 217.502 51.9393 223.59 52.675 229.125C53.4108 234.66 52.3072 240.195 51.0196 245.729C48.8122 254.954 46.6049 264.732 42.926 273.587C40.9026 278.384 37.5917 283.734 34.8325 288.162C32.8091 291.299 31.1536 294.804 30.05 298.309C28.9463 301.815 28.3945 305.689 28.9463 309.379C29.3142 311.777 30.2339 315.651 30.7857 318.234C31.3376 320.448 31.7055 322.846 32.0734 325.245C33.5449 337.79 31.5215 350.52 28.5784 362.512L22.3243 387.234C21.7725 389.448 21.2207 391.846 21.4046 394.244C21.5886 395.536 21.9564 396.827 22.5083 397.934C23.0601 399.041 23.7959 399.964 24.8995 400.702C25.4514 401.255 26.3711 401.44 27.1069 401.624C28.2105 401.809 29.3142 401.809 30.4179 402.178C31.7055 402.731 32.4412 403.838 32.9931 404.945C36.1201 410.664 37.0398 418.413 39.4311 424.501C39.9829 425.792 40.7187 427.268 42.1903 428.006C42.926 428.375 43.8457 428.375 44.5815 428.375C46.9728 428.375 66.1029 428.375 67.9424 428.375C68.6781 428.375 69.4139 428.375 70.1497 428.191C70.8855 428.006 71.6212 427.822 72.357 427.453C73.0928 426.899 73.6446 425.977 73.8286 424.87C74.1964 423.578 74.1965 422.103 74.0125 420.811C73.8286 419.52 73.6446 418.044 72.9088 416.937C72.357 416.014 71.6212 415.092 70.8855 414.354C69.4139 412.878 67.0227 411.402 65.1832 410.111C63.1598 408.635 60.9525 406.974 59.1131 405.314C57.6415 403.838 56.17 402.362 55.0663 400.517C53.7787 398.303 52.675 395.905 51.9393 393.506C51.2035 390.924 50.6517 388.156 50.4677 385.573C49.9159 380.223 49.7319 374.135 49.548 368.785C49.548 358.822 49.7319 348.675 52.4911 339.082C54.6984 330.964 59.1131 321.555 62.608 313.806C64.6314 309.379 66.8387 304.028 69.23 299.785C70.8855 296.833 72.7249 294.066 75.1162 291.668C78.2432 288.162 81.9221 285.21 85.601 282.443C87.4404 284.288 89.6477 286.317 91.855 287.609C94.2463 289.269 97.7412 291.114 100.133 292.774C101.604 293.697 102.892 294.804 103.627 296.464C103.811 297.018 103.995 297.756 104.179 298.309C104.731 301.63 104.731 305.689 105.651 309.01C106.019 310.486 106.571 312.146 107.674 313.437C108.41 314.175 109.698 314.729 110.617 314.175C111.353 313.806 111.905 312.884 112.089 312.146C113.193 309.194 113.376 305.689 114.296 302.553C114.48 301.815 114.664 301.261 115.216 300.708C115.4 300.339 115.768 299.97 116.32 299.785C116.871 299.601 117.423 299.416 117.975 299.416C118.711 299.416 119.447 299.416 120.182 299.601C121.838 299.785 123.861 300.154 125.517 300.339C127.172 300.523 128.828 300.339 130.483 300.154C131.955 299.97 134.346 299.601 135.818 299.785C136.185 299.785 136.553 299.785 136.737 299.97C136.921 299.97 137.289 300.154 137.473 300.339C137.657 300.523 137.841 300.892 138.025 301.261C138.209 301.815 138.393 302.184 138.577 302.737C139.313 305.873 140.048 309.563 141.336 312.33C141.888 313.253 142.44 314.36 143.543 314.913C143.911 315.098 144.463 315.098 144.831 314.913C145.751 314.544 146.118 313.806 146.486 312.884C147.958 309.563 148.142 305.504 149.062 302.184C149.429 301.261 149.613 300.339 150.165 299.416C150.533 298.863 151.085 298.309 151.821 297.94C152.189 297.756 152.556 297.571 152.74 297.387C154.212 296.649 156.419 295.542 157.891 294.804C164.881 291.114 170.951 285.764 176.469 280.229C178.309 278.384 180.332 276.355 181.987 274.325C183.091 273.218 184.195 271.374 185.298 270.267C186.218 269.344 187.138 268.606 188.609 268.237C189.529 268.053 190.449 268.053 191.552 268.237C193.208 268.422 194.68 268.791 196.335 269.344C206.268 272.48 216.753 277.831 226.686 280.783C230.732 282.074 234.963 282.996 239.194 282.996C245.264 283.181 251.15 281.336 256.853 279.122C263.107 279.122 269.545 278.569 275.799 277.462C286.283 275.801 305.23 270.82 315.715 268.237C323.992 266.392 332.453 264.363 340.915 263.994C345.329 263.809 349.744 263.994 353.975 264.547C360.781 265.285 369.426 267.499 376.232 268.791C375.496 278.938 374.025 289.638 374.944 299.785C375.128 301.815 375.496 303.844 375.864 305.689C376.232 307.903 377.704 313.068 378.255 315.282C378.623 316.943 379.175 318.788 379.359 320.633C379.543 322.293 379.543 323.953 379.727 325.429C379.727 328.566 379.543 332.071 380.095 335.207C380.463 337.421 381.382 340.373 381.75 342.587C382.118 344.985 382.486 347.384 382.67 349.782C383.222 363.25 382.118 376.902 379.911 390.186C379.175 394.429 377.887 400.702 376.968 404.945C376.784 405.683 376.784 406.236 376.784 406.974C376.784 408.081 376.968 409.373 377.52 410.295C377.887 410.849 378.255 411.218 378.623 411.587C378.991 411.956 379.359 412.509 379.911 412.694C380.647 413.063 381.382 413.247 382.302 413.247C383.958 413.247 385.797 412.509 387.453 412.14C387.82 412.14 388.004 411.956 388.372 411.956C388.74 411.956 388.924 411.956 389.292 412.14C389.66 412.325 389.844 412.509 390.212 412.878C390.947 413.8 391.131 415.092 391.683 416.199C392.787 419.151 393.707 423.025 395.362 425.792C395.73 426.346 396.098 427.084 396.65 427.637C397.018 428.006 397.385 428.191 397.937 428.375C398.673 428.56 399.409 428.744 400.145 428.744H424.241C424.425 428.744 424.609 428.744 424.793 428.744C425.161 428.744 425.345 428.744 425.713 428.56C426.081 428.375 426.265 428.006 426.449 427.637C426.816 426.715 427 425.608 427.184 424.685C427.368 423.025 427.368 421.18 427.184 419.52C427 418.597 426.816 417.675 426.265 416.752C425.713 415.645 424.977 414.723 424.241 413.985C421.666 411.402 418.539 409.004 415.412 406.974C413.756 405.867 410.997 404.207 409.526 403.1C408.238 402.178 407.134 401.071 406.399 399.779C405.663 398.488 405.295 397.196 404.927 395.905C403.64 390.555 403.088 384.651 402.72 379.301C401.984 369.707 401.616 359.929 402.168 350.336C402.536 345.17 402.904 339.82 404.375 334.838C405.111 332.256 406.399 329.304 407.134 326.905C408.054 324.507 408.606 321.924 409.158 319.341C410.262 313.437 411.549 303.29 412.837 297.571C414.492 290.007 416.516 282.074 419.459 274.879C423.505 274.694 427.736 274.325 431.599 272.849C434.358 271.743 436.933 269.898 439.141 267.684C441.716 265.101 444.659 260.489 446.866 257.352C447.97 255.692 449.258 254.031 450.729 252.371C452.017 250.895 454.408 248.681 455.696 247.39C458.271 244.807 460.662 242.04 462.502 238.903C465.629 233.553 467.652 227.649 469.675 221.746C471.331 216.58 475.562 202.743 477.585 197.762C478.137 196.286 478.873 194.81 479.424 193.518C481.08 190.198 484.023 187.246 486.414 184.478C488.989 181.342 491.932 177.468 494.508 174.147C499.106 167.874 523.019 135.219 526.882 129.5C529.825 125.072 532.768 120.46 535.159 115.663C539.758 116.77 544.54 117.324 549.139 117.693C554.657 118.062 563.487 117.877 569.189 117.877C572.684 117.877 576.547 118.062 580.041 118.246C589.974 119.169 600.275 121.567 609.84 124.334C612.783 125.072 615.727 125.81 618.67 125.257C621.429 124.703 624.004 123.227 626.211 121.382C628.971 121.567 631.73 121.567 634.489 120.829C635.776 120.645 636.88 120.276 637.984 119.538C640.007 119.169 640.927 118.615 641.663 117.693Z" stroke="#F1F6FF" stroke-width="3" stroke-miterlimit="10" stroke-linecap="round" stroke-linejoin="round"/>
<path d="M216.79 64.6787C218.997 69.4755 221.757 74.6412 226.907 77.0396C230.034 78.331 233.529 78.5155 237.024 78.3311C241.438 78.1466 246.957 77.7776 251.371 78.5155C254.131 78.8845 256.89 79.807 259.465 81.0984C265.903 84.4192 271.053 89.954 273.997 96.5956C275.1 98.994 275.836 101.577 275.836 104.16C276.02 105.82 275.836 107.665 275.1 109.141C273.997 111.908 271.789 114.122 269.03 115.414C267.558 116.152 265.719 116.521 264.064 116.705C261.672 117.074 258.913 117.259 256.522 118.181C255.234 118.735 254.131 119.288 253.027 120.21C251.739 121.502 250.636 122.978 249.716 124.454C248.428 126.852 247.509 129.435 246.773 132.202C246.221 134.416 245.853 136.815 245.853 139.213C245.853 140.873 246.037 142.534 246.405 144.01C246.957 146.593 248.612 148.991 249.9 151.389C250.82 152.865 251.555 154.526 251.739 156.371C251.923 157.293 251.923 158.216 251.739 159.323C251.555 161.905 250.82 165.411 250.268 167.994C249.716 171.499 248.98 175.373 250.636 178.694C251.555 180.539 253.027 182.015 254.866 182.937C256.522 183.86 258.361 184.044 260.201 184.044C262.04 183.86 263.696 183.122 265.351 182.384C268.478 180.908 271.605 178.51 274.732 177.218C275.652 176.849 276.756 176.665 277.675 177.034C278.227 177.218 278.779 177.587 279.147 178.141C279.699 179.063 280.067 180.17 280.251 181.092C280.435 182.753 280.067 184.413 279.331 185.889C278.595 187.181 277.675 188.288 276.756 189.395C275.284 191.055 273.445 192.346 271.605 193.638C265.535 198.066 258.545 202.678 253.579 208.582C252.291 210.242 251.004 212.087 250.452 214.301C250.268 215.408 250.268 216.515 250.636 217.437C251.004 218.544 251.555 219.467 252.291 220.205C253.579 221.496 255.05 222.234 256.706 222.787C259.281 223.71 262.224 223.894 264.983 223.341C266.639 222.972 268.11 222.603 269.398 221.68C271.789 220.389 273.629 218.544 275.468 216.515C278.227 213.378 280.986 209.135 283.562 205.814C285.401 203.416 287.976 201.017 289.632 198.619C290.551 197.328 291.287 195.852 291.839 194.376C293.862 188.841 294.966 182.568 298.093 177.587C298.645 176.665 299.565 175.742 300.3 175.004C301.404 174.082 302.692 173.344 304.163 173.159C304.899 172.975 305.635 172.975 306.371 173.344C306.922 173.528 307.474 174.082 307.658 174.635C307.842 175.189 308.026 175.742 308.026 176.296C308.026 177.034 308.026 177.772 307.842 178.325C307.474 180.354 306.738 183.122 306.371 185.151C306.003 186.996 305.451 189.026 305.635 191.055C305.635 191.977 305.819 192.9 306.187 193.638C307.106 195.298 308.946 196.405 310.601 197.143C312.441 198.066 314.648 198.988 316.304 200.095C318.695 201.94 319.798 205.261 320.902 207.844C321.638 209.504 322.558 211.349 324.213 212.456C325.317 213.194 326.604 213.378 327.892 213.378C329.731 213.378 331.571 212.825 333.226 211.902C336.721 210.058 338.929 206.552 339.848 202.862C340.768 199.542 340.768 195.852 339.297 192.715C338.377 190.502 336.905 188.472 335.986 186.074C335.618 184.967 335.434 183.675 335.802 182.384C336.169 181.092 336.721 179.986 337.273 178.694C338.929 175.742 341.504 172.421 343.159 169.47C343.895 168.178 344.447 166.702 344.631 165.226C344.999 161.536 342.607 158.4 340.952 155.264C340.216 153.788 339.297 152.127 339.113 150.467C338.377 145.117 342.056 140.135 344.447 135.708C345.918 133.125 347.206 130.357 347.758 127.406C348.31 124.823 348.494 122.24 348.494 119.473C348.494 116.521 348.126 113.569 347.39 110.617C346.654 107.665 345.367 104.529 343.527 102.13C340.4 98.2561 335.618 95.8577 331.387 93.0903C330.099 92.1679 328.628 91.2454 327.34 90.1385C326.053 89.0315 324.949 87.7401 323.845 86.4487C321.638 83.6813 319.982 80.3604 318.879 77.0396C317.407 72.6118 316.671 67.8151 316.855 63.0183" stroke="#F1F6FF" stroke-width="1.5" stroke-miterlimit="10" stroke-linecap="round" stroke-linejoin="round"/>
<path d="M13.5322 168.732C14.0841 170.576 15.0038 172.421 16.1074 174.082C16.8432 175.004 17.579 175.742 18.6826 176.111C19.4184 176.296 20.1542 176.296 20.89 176.111C22.1776 175.742 23.4652 174.82 24.5688 174.082" stroke="#F1F6FF" stroke-width="1.5" stroke-miterlimit="10" stroke-linecap="round" stroke-linejoin="round"/>
<path d="M45.5381 185.52C47.9294 183.306 50.6885 180.908 53.8156 179.801C55.2871 179.432 56.7587 179.248 58.2302 179.248C61.1733 179.248 64.3003 179.432 67.0595 178.51C69.4508 177.772 71.2902 175.927 72.7617 174.082C75.7048 170.208 77.5443 165.411 78.6479 160.798C79.1998 158.4 79.7516 154.895 80.4874 152.312C80.8553 151.205 81.2232 149.914 81.9589 148.807C83.7984 145.67 88.0291 145.301 91.3401 146.039C93.5474 146.408 95.5708 147.331 97.5941 148.253C99.9854 149.36 102.561 151.02 105.136 151.574C106.24 151.758 107.343 151.943 108.447 151.758C109.918 151.574 111.39 150.836 112.494 149.914C114.149 148.622 115.437 146.777 116.172 144.748C116.54 143.272 116.724 141.796 116.724 140.136C116.356 133.678 113.229 126.852 113.413 120.21C113.413 117.812 113.965 115.414 114.885 113.015C116.172 109.51 118.564 106.005 119.667 102.499C120.035 101.208 120.403 99.732 120.219 98.2561C120.035 97.1491 119.667 95.8577 118.932 94.9352C117.092 92.1679 113.965 89.585 111.39 87.1866C109.734 85.5262 107.895 83.8658 106.791 81.6519C105.504 79.2535 105.136 76.3017 104.032 73.7188C103.112 71.6894 102.009 69.8445 100.721 67.9996C98.8818 65.4167 96.8584 63.0183 94.651 60.8044" stroke="#F1F6FF" stroke-width="1.5" stroke-miterlimit="10" stroke-linecap="round" stroke-linejoin="round"/>
<path d="M380.5 57.1146C378.844 58.9595 377.373 60.9889 376.269 63.2028C375.533 64.6787 374.982 66.3392 374.798 68.1841C374.614 70.7669 375.35 73.3498 375.717 75.9327C375.901 77.5931 375.901 79.2535 375.166 80.7294C374.614 82.2054 373.694 83.3123 372.774 84.6038C370.751 87.1866 368.176 89.7695 367.072 93.0903C365.968 96.5957 367.072 100.654 369.463 103.422C371.303 105.451 373.878 106.558 376.453 107.296C380.5 108.588 385.282 109.695 388.41 112.831C390.985 115.414 392.824 118.919 393.56 122.424C394.112 125.376 394.112 128.697 392.64 131.464C391.353 133.678 389.145 134.97 387.122 136.261L383.443 138.291C381.052 139.767 378.661 141.242 377.005 143.641C375.533 145.67 374.614 148.069 374.246 150.467C373.694 153.234 373.878 156.002 374.43 158.585C374.798 160.245 375.717 161.905 376.637 163.381C378.477 165.964 381.236 168.178 383.075 170.945C383.811 171.868 384.363 172.975 384.731 174.082C385.099 175.189 385.283 176.48 385.466 177.587C385.834 181.461 385.099 185.336 384.363 189.026C382.339 197.512 378.844 205.999 375.35 213.747C374.614 215.777 373.694 217.806 373.694 219.836C373.51 222.418 374.246 225.001 375.35 227.215C376.453 229.429 377.925 231.458 380.132 232.565C381.604 233.303 383.627 233.672 385.282 234.041C386.386 234.226 387.49 234.595 388.41 235.333C388.961 235.702 389.329 236.255 389.697 236.809C390.433 237.916 391.353 240.13 391.904 241.421C392.64 242.897 393.376 244.373 394.48 245.48C395.215 246.218 396.319 246.771 397.239 247.14C398.894 247.694 400.734 247.694 402.573 247.325C404.413 246.956 406.068 246.218 407.54 244.926C409.011 243.45 409.931 241.421 410.299 239.392C411.403 234.595 411.219 228.876 413.242 224.263C414.346 221.865 415.817 219.836 417.473 217.991C419.496 215.592 422.071 213.009 423.727 210.242C424.462 209.135 424.83 207.844 425.198 206.552C425.75 204.338 426.118 201.755 426.854 199.726C427.222 198.435 427.957 197.328 429.061 196.405C429.981 195.667 431.084 195.483 432.188 195.298C433.66 195.114 435.315 195.483 436.787 196.221C437.89 196.774 438.81 197.697 439.362 198.804C439.73 199.726 439.914 200.649 440.098 201.755C440.282 205.076 439.178 208.397 438.258 211.533C436.971 215.592 434.763 221.68 434.395 225.924C434.395 227.031 434.212 228.138 434.579 229.245C434.763 229.983 435.315 230.536 435.867 231.089C436.603 231.643 437.339 232.012 438.258 232.196C439.914 232.565 441.753 232.381 443.409 232.012C445.984 231.458 448.375 230.352 450.399 228.691C453.158 226.477 454.997 223.525 456.469 220.389C458.492 215.961 459.596 211.349 460.699 206.552C462.355 198.435 464.01 187.734 465.85 179.801C466.77 175.558 468.057 171.499 469.713 167.44C471.368 163.935 473.392 160.245 476.703 158.031C478.358 156.924 480.197 156.371 482.037 156.002C484.244 155.448 487.187 154.895 489.395 153.972C490.866 153.419 492.154 152.681 493.257 151.574C495.649 149.545 497.488 146.777 498.96 144.01C501.351 139.582 503.006 134.601 504.11 129.804C505.03 125.93 505.398 121.871 505.03 117.997C504.846 115.045 504.294 111.908 504.294 108.957C504.294 107.112 504.662 105.267 505.398 103.422C506.133 101.392 507.237 99.363 508.709 97.8871C509.628 96.7801 510.916 95.8577 512.388 95.3042C514.779 94.3818 517.354 94.5663 519.929 95.1197C526.183 96.5957 532.437 99.9165 538.691 101.392C540.899 101.946 543.106 102.315 545.313 102.13C546.969 102.13 548.624 101.577 549.912 100.839C551.752 99.732 553.591 98.0716 555.43 96.9646C556.534 96.2267 557.822 95.8577 559.109 95.6732C560.213 95.4887 561.133 95.4887 562.236 95.6732C564.076 95.8577 566.651 96.4112 568.674 96.7802C569.962 96.9646 571.433 97.1491 572.721 97.1491C573.457 97.1491 574.377 96.9646 575.112 96.7802C575.848 96.4112 576.584 95.8577 577.136 95.1197C578.607 93.4593 579.527 90.692 580.631 88.6626C581.366 87.1866 582.102 85.7107 583.39 84.4193C584.677 83.1278 586.149 82.2054 587.621 81.4674C590.38 79.9915 593.875 78.7 595.162 75.7482C595.714 74.4568 596.082 72.9808 595.898 71.5049C595.898 69.8445 595.53 68.3686 594.794 66.8926C594.242 65.7857 593.691 64.8632 592.771 64.1253C591.667 63.0183 590.38 62.2804 588.908 61.5424C586.149 60.251 583.022 59.144 581.366 56.5611C579.711 54.1628 578.791 50.8419 577.504 48.0746C576.768 46.4142 575.848 44.9382 574.561 43.8313C571.617 40.6949 567.203 38.6655 564.076 35.7137C563.156 34.7912 562.236 33.6843 561.684 32.5773C560.213 29.441 560.213 25.5667 559.477 22.2459C559.109 20.7699 558.741 19.4785 558.006 18.1871C557.086 16.3421 555.798 14.6817 554.327 13.3903C552.303 11.3609 549.912 9.70047 547.521 8.22455C544.946 6.74862 542.186 5.45718 539.427 4.53473" stroke="#F1F6FF" stroke-width="1.5" stroke-miterlimit="10" stroke-linecap="round" stroke-linejoin="round"/>
<path d="M641.516 117.812C640.78 118.55 639.86 119.288 638.757 119.841C637.653 120.395 636.366 120.764 635.262 121.133C632.503 121.686 629.744 121.686 626.984 121.686" stroke="#F1F6FF" stroke-width="2.25" stroke-miterlimit="10" stroke-linecap="round" stroke-linejoin="round"/>
<path d="M526.551 10.8074C530.046 8.40904 533.725 6.19515 537.771 4.71923C541.45 3.42779 545.313 2.50534 549.176 2.13635C555.246 1.58288 561.5 1.58288 567.386 3.05881C569.962 3.79677 572.537 4.71923 574.928 6.37964C576.951 7.85557 578.791 9.88497 580.262 11.7299C581.366 13.2058 583.757 16.1577 585.045 17.6336C585.965 18.7405 587.068 19.8475 588.172 20.9544L594.058 26.4891C596.082 28.5185 598.105 30.7324 599.76 33.1308C601.048 35.1602 601.968 37.3741 602.703 39.7725C603.623 42.5399 604.543 46.0452 605.831 48.628C606.75 50.8419 608.038 53.0558 609.325 55.0852C612.085 59.3285 615.396 63.3873 618.523 67.2616C622.753 72.2429 628.272 78.7001 632.686 83.4968C635.445 86.4487 638.572 89.4005 641.883 91.6144C643.907 92.9059 646.482 94.1973 647.586 96.4112" stroke="#F1F6FF" stroke-width="2.25" stroke-miterlimit="10" stroke-linecap="round" stroke-linejoin="round"/>
<path d="M627.721 103.791C628.089 102.684 628.457 101.392 629.192 100.47C629.56 99.9165 630.112 99.363 630.848 99.1785C631.767 98.8095 632.871 98.8095 633.975 98.8095C635.446 98.994 636.918 99.1785 638.206 99.9165C638.941 100.285 639.493 100.654 639.861 101.208C640.045 101.577 640.229 101.946 640.229 102.499C640.229 103.422 639.861 104.344 639.677 105.082V105.267" stroke="#F1F6FF" stroke-width="2.25" stroke-miterlimit="10" stroke-linecap="round" stroke-linejoin="round"/>
<path d="M632.686 117.074C632.318 117.074 629.743 116.705 629.375 116.705C627.536 116.521 625.88 116.152 624.409 115.045C623.489 114.307 622.569 113.384 622.018 112.277C621.098 110.617 620.546 108.588 620.546 106.558C620.362 104.344 620.73 102.13 621.65 100.101C622.201 98.8096 622.937 97.3336 624.041 96.4112C626.064 94.7508 628.823 94.9352 631.399 95.1197C633.238 95.3042 635.813 95.8577 637.653 95.8577C639.308 95.8577 642.067 95.8577 643.723 95.6732C644.643 95.6732 645.562 95.6732 646.482 95.8577C647.034 95.8577 647.402 96.0422 647.954 96.4112C648.505 96.7802 648.873 97.5181 649.241 98.0716C649.425 98.8096 649.425 99.363 649.425 100.101C649.425 101.208 649.241 102.315 649.241 103.422C648.689 106.927 647.77 110.432 646.114 113.753C645.378 115.229 644.459 116.521 642.987 117.259C642.251 117.628 641.332 117.812 640.412 117.997C637.837 118.181 635.078 117.443 632.686 117.074Z" stroke="#F1F6FF" stroke-width="2.25" stroke-miterlimit="10" stroke-linecap="round" stroke-linejoin="round"/>
<path d="M50.8731 81.2829C45.3548 87.0021 40.0204 93.0903 35.9737 99.9165C32.8466 105.082 30.6393 110.617 29.5356 116.521C28.6159 121.317 28.7999 126.114 29.3517 130.911C30.0875 137.184 31.1911 143.825 32.6627 149.914C33.9503 154.895 35.4218 160.061 37.2613 164.857C39.1007 170.023 42.4117 177.403 44.4351 182.568C45.1708 184.598 45.9066 186.812 46.4584 188.841C46.8263 190.87 47.1942 193.084 47.1942 195.298C47.3782 197.881 47.3782 201.386 47.7461 203.785C48.1139 206.921 48.8497 210.058 49.5855 213.009C51.057 218.544 53.6323 224.632 54.368 230.167C55.1038 235.702 54.0001 241.237 52.7125 246.771C50.5052 255.996 48.2979 265.774 44.619 274.629C42.5956 279.426 39.2846 284.776 36.5255 289.204C34.5021 292.34 32.8466 295.846 31.743 299.351C30.6393 302.856 30.0875 306.731 30.6393 310.421C31.0072 312.819 31.9269 316.693 32.4787 319.276C33.0306 321.49 33.3984 323.888 33.7663 326.287C35.2379 338.832 33.2145 351.562 30.2714 363.554L24.0173 388.276C23.4655 390.49 22.9137 392.888 23.0976 395.286C23.2815 396.578 23.6494 397.869 24.2013 398.976C24.7531 400.083 25.4889 401.006 26.5925 401.744C27.1444 402.113 27.8801 402.482 28.6159 402.666C29.7196 402.85 30.8232 402.85 31.9269 403.219C33.0306 403.773 33.7663 404.695 34.5021 405.802C37.6292 411.522 38.7328 419.455 41.1241 425.543C41.6759 426.834 42.4117 428.31 43.8832 429.048C44.619 429.417 45.5387 429.417 46.2745 429.417C50.1373 429.417 67.7959 429.602 71.2908 429.233C72.0266 429.233 72.7624 429.048 73.4982 428.679C74.2339 428.31 74.7858 427.757 75.1537 427.019C75.7055 425.912 75.8894 424.436 75.8894 423.329C75.8894 421.484 75.5215 419.639 74.7858 417.979C74.05 416.503 72.9463 415.396 71.8427 414.473C70.5551 413.366 67.9799 411.706 66.5083 410.784C63.7492 408.754 60.99 406.725 58.7827 404.142C57.4951 402.481 56.3914 400.637 55.4717 398.792C54.7359 397.131 54.0001 395.286 53.6323 393.441C53.0804 391.597 52.8965 389.567 52.5286 387.722C51.6089 379.42 51.4249 370.749 51.6089 362.631C51.7928 356.359 52.1607 350.086 53.4483 343.813C54.9199 337.356 57.4951 331.084 59.8863 324.995C61.9097 320.383 65.5886 311.897 67.612 307.284C69.2675 303.779 71.1069 300.274 73.3142 296.953C76.4413 292.34 80.672 288.466 85.0866 285.145C92.6283 279.426 101.458 273.522 108.264 267.065C118.196 258.025 125.922 246.771 132.728 235.148C137.878 226.108 142.661 216.884 146.156 207.106C150.019 196.405 152.41 185.151 153.882 173.897" stroke="#F1F6FF" stroke-width="2.25" stroke-miterlimit="10" stroke-linecap="round" stroke-linejoin="round"/>
<path d="M87.4775 283.3C89.317 285.145 91.5243 287.175 93.7316 288.466C96.1229 290.127 99.6178 291.971 102.009 293.632C103.481 294.554 104.768 295.661 105.504 297.322C105.688 297.875 105.872 298.613 106.056 299.167C106.608 302.487 106.608 306.546 107.527 309.867C107.895 311.343 108.447 313.003 109.551 314.295C110.287 315.033 111.574 315.586 112.494 315.033C113.23 314.664 113.781 313.741 113.965 313.003C115.069 310.052 115.253 306.546 116.173 303.41C116.357 302.672 116.541 302.118 117.092 301.565C117.276 301.196 117.644 300.827 118.196 300.643C118.748 300.458 119.3 300.274 119.852 300.274C120.587 300.274 121.323 300.274 122.059 300.458C123.714 300.643 125.738 301.012 127.393 301.196C129.049 301.381 130.704 301.196 132.36 301.012C133.831 300.827 136.223 300.458 137.694 300.643C138.062 300.643 138.43 300.643 138.614 300.827C138.798 300.827 139.166 301.012 139.35 301.196C139.534 301.381 139.718 301.75 139.901 302.118C140.085 302.672 140.269 303.041 140.453 303.594C141.189 306.731 141.925 310.421 143.212 313.188C143.764 314.11 144.316 315.217 145.42 315.771C145.788 315.955 146.34 315.955 146.707 315.771C147.627 315.402 147.995 314.664 148.363 313.741C149.834 310.421 150.018 306.362 150.938 303.041C151.306 302.118 151.49 301.196 152.042 300.274C152.41 299.72 152.961 299.167 153.697 298.798C154.065 298.613 154.433 298.429 154.617 298.244C156.089 297.506 158.296 296.399 159.767 295.661C166.757 291.971 172.827 286.621 178.346 281.087C180.185 279.242 182.209 277.212 183.864 275.183C184.968 274.076 186.071 272.231 187.175 271.124C188.095 270.202 189.014 269.464 190.486 269.095C191.406 268.91 192.325 268.91 193.429 269.095C195.085 269.279 196.556 269.648 198.212 270.202C208.145 273.338 218.629 278.688 228.562 281.64C232.609 282.931 236.84 283.854 241.071 283.854C247.141 284.038 253.027 282.193 258.729 279.98" stroke="#F1F6FF" stroke-width="2.25" stroke-miterlimit="10" stroke-linecap="round" stroke-linejoin="round"/>
<path d="M38.5488 415.949C48.2978 416.134 58.2308 414.658 67.244 410.968" stroke="#F1F6FF" stroke-width="2.25" stroke-miterlimit="10" stroke-linecap="round" stroke-linejoin="round"/>
<path d="M511.1 100.285C512.571 102.13 513.859 104.16 515.514 106.005C516.802 107.296 518.089 108.403 519.561 109.51C522.32 111.355 525.631 112.831 528.758 113.938C533.725 115.598 539.059 116.705 544.209 117.443C555.43 119.104 567.754 117.628 578.975 118.366C589.644 119.104 600.312 121.686 610.613 124.638C613.556 125.376 616.499 126.114 619.442 125.561C622.202 125.007 624.777 123.531 626.984 121.686" stroke="#F1F6FF" stroke-width="2.25" stroke-miterlimit="10" stroke-linecap="round" stroke-linejoin="round"/>
<path d="M367.624 205.814C366.521 214.854 365.785 224.263 366.705 233.303C367.073 237.547 367.808 241.605 369.464 245.664C370.384 247.878 371.487 250.092 372.959 251.937C374.062 253.413 375.35 255.258 376.454 256.918C377.189 258.025 377.741 259.317 378.109 260.608C378.661 263.006 378.477 265.774 378.477 268.172C377.741 278.319 376.27 289.389 377.189 299.536C377.373 301.565 377.557 303.594 377.925 305.624C378.477 308.391 379.765 313.188 380.5 315.771C380.868 317.431 381.42 319.276 381.604 321.121C381.788 322.781 381.788 324.442 381.972 325.918C381.972 329.239 381.788 332.928 382.524 336.065C383.26 339.201 384.179 342.522 384.547 345.843C385.099 350.271 385.099 354.698 385.099 359.126C384.915 371.303 383.628 383.663 381.236 395.655C380.868 398.054 379.397 403.957 379.213 406.171C379.213 406.909 379.029 407.647 379.029 408.201C379.029 408.939 379.213 409.861 379.765 410.599C379.949 411.153 380.317 411.522 380.684 411.891C381.052 412.26 381.42 412.628 381.788 412.997C382.156 413.366 382.708 413.551 383.076 413.735C383.628 413.92 384.179 413.92 384.731 413.735C386.203 413.551 388.042 412.997 389.514 412.628C389.698 412.628 390.066 412.444 390.249 412.444C390.617 412.444 391.169 412.444 391.537 412.813C391.905 413.182 392.273 413.551 392.457 414.104C392.825 414.842 393.009 415.58 393.377 416.318C394.296 419.27 395.4 422.775 396.688 425.543C397.239 426.65 397.975 428.126 399.263 428.679C399.999 429.048 401.102 429.048 401.838 429.233H425.935C426.119 429.233 426.302 429.233 426.486 429.233C426.854 429.233 427.038 429.233 427.406 429.048C427.774 428.864 427.958 428.495 428.142 428.126C428.51 427.203 428.694 426.096 428.878 425.174C429.062 423.513 429.062 421.669 428.878 420.008C428.694 419.086 428.51 418.163 427.958 417.241C427.406 416.134 426.67 415.211 425.935 414.473C423.359 411.891 420.232 409.492 417.105 407.463C415.45 406.356 412.875 404.695 411.403 403.588C410.299 402.666 409.012 401.559 408.276 400.268C407.356 398.976 406.988 397.316 406.62 395.84C405.333 390.674 404.965 384.955 404.413 379.605C403.493 367.059 402.942 353.96 404.597 341.415C404.965 338.648 405.701 335.88 406.437 333.113C407.172 330.899 408.46 328.132 409.012 325.918C409.931 323.15 410.483 320.383 410.851 317.431C411.955 310.052 413.426 299.72 415.266 292.709C417.289 284.961 419.497 277.028 423.175 270.017C424.279 268.172 425.383 266.143 426.67 264.482C428.878 261.715 431.821 258.394 433.844 255.442C438.259 249.539 441.57 242.897 444.329 236.071" stroke="#F1F6FF" stroke-width="2.25" stroke-miterlimit="10" stroke-linecap="round" stroke-linejoin="round"/>
<path d="M392.824 416.134C396.687 415.58 400.366 414.658 404.045 412.997C407.908 411.337 411.586 408.939 414.714 406.171" stroke="#F1F6FF" stroke-width="2.25" stroke-miterlimit="10" stroke-linecap="round" stroke-linejoin="round"/>
<path d="M135.303 230.905C145.052 229.245 155.353 228.507 164.918 231.274C169.148 232.565 173.195 234.41 177.058 236.624C186.439 242.159 198.028 252.49 206.673 259.501C212.559 264.298 218.813 268.726 225.619 272.231C230.218 274.445 235 276.29 239.967 277.397C252.659 280.349 266.087 279.611 278.963 277.581C296.621 274.629 317.959 267.434 335.617 265.036C341.136 264.298 346.838 264.113 352.356 264.667C360.45 265.22 370.015 267.619 378.108 269.279" stroke="#F1F6FF" stroke-width="2.25" stroke-miterlimit="10" stroke-linecap="round" stroke-linejoin="round"/>
<path d="M420.416 275.183C424.463 274.998 428.693 274.629 432.556 273.153C435.315 272.046 437.891 270.202 440.098 267.988C442.673 265.405 445.616 260.793 447.824 257.656C448.927 255.996 450.215 254.335 451.686 252.675C452.974 251.199 455.365 248.985 456.653 247.694C459.228 245.111 461.619 242.343 463.459 239.207C466.586 233.857 468.609 227.953 470.633 222.049C472.288 216.884 476.519 203.047 478.542 198.066C479.094 196.59 479.83 195.114 480.382 193.822C482.037 190.502 484.98 187.55 487.371 184.782C489.947 181.646 492.89 177.772 495.465 174.451C500.064 168.178 523.976 135.523 527.839 129.804C530.782 125.376 533.725 120.764 536.117 115.967" stroke="#F1F6FF" stroke-width="2.25" stroke-miterlimit="10" stroke-linecap="round" stroke-linejoin="round"/>
<path d="M529.31 47.8901C526.919 47.5211 524.528 46.4142 522.321 45.3072C520.481 44.2003 518.642 43.0933 517.354 41.4329C516.802 40.8794 516.434 40.1415 516.066 39.4035C515.699 38.6655 515.515 37.7431 515.515 36.8206L515.331 34.4223C514.963 31.6549 514.043 29.2565 512.939 26.6736C511.652 23.7218 509.628 19.8475 508.525 16.8956C507.973 15.4197 507.421 13.9438 507.053 12.4678C506.869 11.3609 506.685 10.254 507.053 9.14701C507.237 8.59353 507.789 8.04006 508.341 7.67108C509.077 7.11761 510.18 6.74862 511.1 6.74862C512.755 6.56413 514.227 6.56413 515.882 6.93312C518.642 7.3021 521.401 8.22455 523.976 9.51599C527.103 10.9919 529.862 13.0213 532.621 15.0507C534.093 16.1577 537.22 18.925 538.691 20.2165C539.979 21.3234 542.554 23.5373 543.842 24.8287C545.681 26.6736 547.521 28.5185 548.441 31.1014C549.36 33.6843 549.176 36.4516 548.624 39.219" stroke="#F1F6FF" stroke-width="2.25" stroke-miterlimit="10" stroke-linecap="round" stroke-linejoin="round"/>
<path d="M29.1676 128.328C27.1442 141.611 25.3048 155.817 24.7529 169.101C23.8332 190.686 23.8332 213.563 24.9369 235.148C25.3048 240.683 25.6727 246.771 26.4084 252.121C26.7763 255.627 28.0639 263.744 28.0639 267.25C28.2479 270.017 28.0639 272.969 27.3282 275.736C26.5924 278.873 25.4887 282.931 24.7529 286.068C24.3851 288.282 24.0172 290.496 24.0172 292.894C24.0172 299.536 25.6727 306.731 25.4887 313.372C25.4887 315.402 25.1208 317.431 24.3851 319.276C23.2814 322.412 21.442 325.733 19.9704 328.685C19.2346 330.346 18.4989 332.19 18.131 333.851C17.5791 336.249 17.2113 338.648 17.0273 341.046C16.8434 343.629 16.6594 347.872 16.1076 350.271C15.9236 350.64 15.9236 351.009 15.7397 351.377C15.3718 351.193 15.0039 351.009 14.82 350.64C14.0842 349.717 13.5324 348.426 12.9805 347.319C10.9572 342.153 10.7732 336.065 9.48562 330.715C9.30167 330.161 9.11773 329.423 8.74984 328.87C8.5659 328.685 8.19801 328.87 8.01407 328.87C7.64618 329.054 7.27829 329.054 6.72646 329.054C6.17463 328.685 5.80674 328.132 5.43886 327.394C4.70308 325.918 4.15125 324.073 3.78336 322.412C3.04759 318.907 3.04759 315.402 3.41548 311.896C3.96731 308.207 5.07097 304.517 6.17463 301.011C6.91041 298.982 8.74984 294.37 9.11773 292.34C9.11773 291.971 9.30167 291.602 9.30167 291.049C7.46224 290.496 7.09435 290.496 6.91041 290.496C6.54252 290.496 6.17463 290.496 5.80674 290.496C5.80674 290.496 5.6228 290.496 5.6228 290.311C5.6228 289.942 5.80674 289.389 5.80674 289.02C6.72646 286.252 9.11773 280.902 10.2214 278.319C11.6929 274.814 13.1645 271.124 14.0842 267.25C15.0039 264.113 15.5558 260.792 16.1076 257.656C18.4989 240.867 15.7397 217.622 14.82 200.464L14.4521 192.715C14.0842 182.753 13.3484 145.855 13.1645 136.63C13.1645 129.066 13.3484 121.502 14.82 114.122C16.4755 106.005 19.6025 98.2561 23.8332 91.2454C27.88 84.6038 32.8465 78.5156 38.7327 73.5343C44.8028 68.5531 51.9766 64.6787 59.7022 62.8338C66.1403 61.1734 72.9462 60.9889 79.5681 61.1734C115.253 63.0183 232.793 65.9702 270.134 66.5237C277.492 66.5237 285.769 66.3392 292.943 65.9702C298.461 65.6012 304.531 65.2322 309.866 64.4943C317.591 63.5718 333.043 60.62 340.768 59.3285C350.517 57.6681 360.45 56.7456 370.383 57.1146C380.5 57.2991 395.032 58.9595 405.148 59.882L407.356 60.0665L408.643 60.251H409.931H410.483H411.035H411.586C414.162 60.251 416.737 60.251 419.312 59.6975C422.255 59.144 425.014 58.4061 427.773 57.4836C443.041 52.6868 466.218 43.2778 481.301 37.9276C486.636 36.0827 494.545 33.6843 499.512 31.1014C503.742 28.8875 507.605 25.9357 511.284 22.9838" stroke="#F1F6FF" stroke-width="2.25" stroke-miterlimit="10" stroke-linecap="round" stroke-linejoin="round"/>
</svg>
