<svg width="40" height="16" viewBox="0 0 40 16" fill="none" xmlns="http://www.w3.org/2000/svg">
<path d="M22.9633 1.6944H16.1592V14.1473H22.9633V1.6944Z" fill="#FF5A00"/>
<path d="M16.6123 7.92087C16.6123 5.39081 17.7798 3.14528 19.5714 1.6944C18.2529 0.638284 16.5896 0 14.7754 0C10.4775 0 7 3.5426 7 7.92087C7 12.2991 10.4775 15.8417 14.7754 15.8417C16.5896 15.8417 18.2529 15.2035 19.5714 14.1473C17.7773 12.717 16.6123 10.4509 16.6123 7.92087Z" fill="#EB001B"/>
<path d="M32.1427 7.92087C32.1427 12.2991 28.6652 15.8417 24.3674 15.8417C22.5531 15.8417 20.8898 15.2035 19.5713 14.1473C21.3855 12.6939 22.5305 10.4509 22.5305 7.92087C22.5305 5.39081 21.3629 3.14528 19.5713 1.6944C20.8873 0.638284 22.5506 0 24.3648 0C28.6652 0 32.1427 3.56567 32.1427 7.92087Z" fill="#F79E1B"/>
</svg>
