<?xml version="1.0" encoding="utf-8"?>
<!-- Generator: Adobe Illustrator 27.1.1, SVG Export Plug-In . SVG Version: 6.00 Build 0)  -->
<svg version="1.1" id="Layer_1" xmlns="http://www.w3.org/2000/svg" xmlns:xlink="http://www.w3.org/1999/xlink" x="0px" y="0px"
	 viewBox="0 0 24 24" style="enable-background:new 0 0 24 24;" xml:space="preserve">
<style type="text/css">
	.st0{fill:none;stroke:#FFFFFF;stroke-width:2;stroke-linecap:round;stroke-linejoin:round;}
</style>
<path class="st0" d="M14,6c1,0.2,1.9,0.7,2.6,1.4C17.3,8.1,17.8,9,18,9.9 M14,2c2,0.2,3.9,1.1,5.4,2.6C20.9,6,21.8,7.9,22,9.9
	 M10.2,13.9c-1.2-1.2-2.2-2.6-2.8-4C7.3,9.7,7.3,9.7,7.3,9.6C7.2,9.3,7.2,9,7.4,8.7c0-0.1,0.1-0.1,0.2-0.2C8,8.1,8.2,8,8.3,7.8
	c0.4-0.7,0.4-1.5,0-2.2C8.2,5.4,8,5.3,7.6,4.9L7.4,4.7C6.9,4.2,6.6,3.9,6.4,3.8c-0.6-0.3-1.2-0.3-1.8,0C4.3,3.9,4,4.2,3.5,4.7
	L3.3,4.9C2.8,5.4,2.5,5.7,2.3,6C2.1,6.4,1.9,7,1.9,7.5c0,0.4,0.1,0.7,0.2,1.3C3,11.8,4.7,14.7,7,17c2.4,2.4,5.3,4,8.3,4.9
	c0.6,0.2,0.8,0.2,1.3,0.2c0.5,0,1.1-0.2,1.5-0.4c0.4-0.2,0.6-0.5,1.2-1l0.2-0.2c0.5-0.5,0.8-0.8,0.9-1.1c0.3-0.6,0.3-1.2,0-1.8
	c-0.1-0.3-0.4-0.6-0.9-1.1l-0.2-0.2c-0.3-0.3-0.5-0.5-0.7-0.6c-0.7-0.4-1.5-0.4-2.2,0c-0.2,0.1-0.4,0.3-0.7,0.6
	c-0.1,0.1-0.2,0.2-0.2,0.2c-0.2,0.2-0.6,0.2-0.9,0.1c-0.1,0-0.1-0.1-0.3-0.1C12.8,16,11.4,15.1,10.2,13.9z"/>
</svg>
