<svg width="50" height="16" viewBox="0 0 50 16" fill="none" xmlns="http://www.w3.org/2000/svg">
<path d="M21.9554 14.4043H18.6611L20.7216 1.63682H24.0157L21.9554 14.4043Z" fill="#00579F"/>
<path d="M33.8976 1.94895C33.2478 1.69062 32.2172 1.40539 30.9429 1.40539C27.6896 1.40539 25.3988 3.14385 25.3847 5.62932C25.3577 7.4631 27.0249 8.48162 28.2719 9.09306C29.5464 9.71786 29.9796 10.1257 29.9796 10.6826C29.9667 11.5379 28.9498 11.9322 28.0013 11.9322C26.6861 11.9322 25.9814 11.7289 24.9104 11.253L24.4766 11.0491L24.0156 13.9151C24.7883 14.2678 26.2118 14.5809 27.6896 14.5946C31.1462 14.5946 33.3966 12.883 33.4233 10.2343C33.4364 8.78093 32.556 7.66727 30.6581 6.75724C29.5059 6.17306 28.8002 5.77916 28.8002 5.18144C28.8137 4.63806 29.397 4.0815 30.6977 4.0815C31.7686 4.05424 32.5555 4.31221 33.1516 4.57036L33.4496 4.70593L33.8976 1.94895Z" fill="#00579F"/>
<path d="M38.276 9.88123C38.5473 9.14776 39.5912 6.30899 39.5912 6.30899C39.5775 6.33625 39.862 5.56198 40.0246 5.08666L40.2549 6.18678C40.2549 6.18678 40.8787 9.24289 41.0142 9.88123C40.4993 9.88123 38.9267 9.88123 38.276 9.88123ZM42.3424 1.63682H39.7942C39.0085 1.63682 38.4115 1.86753 38.0724 2.69614L33.1792 14.4041H36.6358C36.6358 14.4041 37.2049 12.8283 37.3272 12.4889C37.7064 12.4889 41.0689 12.4889 41.5568 12.4889C41.6513 12.9372 41.9498 14.4041 41.9498 14.4041H45L42.3424 1.63682Z" fill="#00579F"/>
<path d="M15.9097 1.63682L12.6835 10.343L12.3309 8.5773C11.7345 6.53989 9.86387 4.32628 7.77637 3.22562L10.7314 14.3908H14.2151L19.3931 1.63682H15.9097Z" fill="#00579F"/>
<path d="M9.6879 1.63682H4.38772L4.3335 1.89479C8.46797 2.95429 11.2061 5.50818 12.3311 8.57784L11.1789 2.71004C10.9893 1.89461 10.4063 1.66372 9.6879 1.63682Z" fill="#FAA61A"/>
</svg>
